<svg width="80" height="80" viewBox="0 0 80 80" fill="none" xmlns="http://www.w3.org/2000/svg">
<rect width="80" height="80" rx="15" fill="#05192D"/>
<path d="M42.463 55.8842V42.358L64 30.1802L58.759 27.2138L42.463 36.4252V22.8423C42.463 21.9339 41.9618 21.0681 41.1599 20.6139L21.5561 9.45804C20.971 9.1393 20.3105 8.98172 19.6431 9.00169C18.9758 9.02166 18.326 9.21844 17.7614 9.57159C17.2195 9.90614 16.7731 10.3727 16.4648 10.9268C16.1565 11.4808 15.9965 12.1039 16.0001 12.7367V50.9023C16.0001 52.1939 16.6588 53.3862 17.7614 54.0674C18.3255 54.422 18.9754 54.6197 19.6431 54.6396C20.3107 54.6596 20.9715 54.5012 21.5561 54.181L37.2649 45.296V57.3887C37.2649 58.3112 37.7805 59.177 38.5824 59.6312L58.7303 71L63.9714 68.0194L42.463 55.8842ZM37.2649 24.3468V39.3632L21.1981 48.4469V15.2063L37.2649 24.3468Z" fill="#03EF62"/>
</svg>
