<svg width="80" height="80" viewBox="0 0 80 80" fill="none" xmlns="http://www.w3.org/2000/svg">
<path d="M41.8473 51.785V41.7495L58 32.7143L54.0692 30.5135L41.8473 37.3478V27.2701C41.8473 26.5961 41.4714 25.9538 40.8699 25.6168L26.1671 17.3398C25.7283 17.1034 25.2329 16.9864 24.7324 17.0013C24.2318 17.0161 23.7445 17.1621 23.321 17.4241C22.9146 17.6723 22.5799 18.0184 22.3486 18.4295C22.1174 18.8406 21.9974 19.3029 22 19.7724V48.0888C22 49.0471 22.4941 49.9317 23.321 50.4371C23.7441 50.7002 24.2316 50.8468 24.7323 50.8617C25.233 50.8765 25.7286 50.759 26.1671 50.5214L37.9487 43.9293V52.9013C37.9487 53.5858 38.3353 54.2281 38.9368 54.5651L54.0477 63L57.9785 60.7886L41.8473 51.785ZM37.9487 28.3863V39.5276L25.8986 46.2671V21.6047L37.9487 28.3863Z" fill="#03EF62"/>
</svg>
