<svg width="44" height="32" viewBox="0 0 44 32" fill="none" xmlns="http://www.w3.org/2000/svg">
<path d="M16.137 0C19.1338 0.00228749 22.071 0.831155 24.62 2.39393C27.169 3.9567 29.2292 6.19174 30.5704 8.84909C32.1658 8.61839 33.792 8.71609 35.3477 9.13614C36.9034 9.55618 38.355 10.2895 39.6122 11.2905C40.8693 12.2914 41.905 13.5386 42.6546 14.9538C43.4042 16.3693 43.8516 17.9226 43.9689 19.5169C44.0862 21.1113 43.8709 22.7126 43.3365 24.2207C42.802 25.7291 41.9599 27.1119 40.8626 28.2831C39.7653 29.4545 38.4363 30.389 36.9586 31.0285C35.4809 31.668 33.8862 31.9986 32.2739 32H16.137C11.8571 32 7.75275 30.3142 4.72648 27.3136C1.70021 24.313 0 20.2435 0 16.0001C0 11.7565 1.70021 7.68688 4.72648 4.68629C7.75275 1.6857 11.8571 0 16.137 0ZM16.137 29.0909H32.2739C34.6083 29.0909 36.8471 28.1713 38.4978 26.5347C40.1485 24.898 41.0759 22.6782 41.0759 20.3636C41.0759 18.0491 40.1485 15.8292 38.4978 14.1926C36.8471 12.5559 34.6083 11.6364 32.2739 11.6364C32.0722 11.6364 31.8705 11.6364 31.6706 11.6564C32.0718 13.0699 32.2748 14.5315 32.2739 16.0001C32.2739 16.3858 32.1193 16.7558 31.8442 17.0285C31.5691 17.3014 31.196 17.4545 30.8069 17.4545C30.4178 17.4545 30.0447 17.3014 29.7696 17.0285C29.4945 16.7558 29.3399 16.3858 29.3399 16.0001C29.3399 13.4109 28.5656 10.8799 27.1148 8.72707C25.6641 6.57429 23.6021 4.8964 21.1895 3.90558C18.7769 2.91476 16.1224 2.65552 13.5611 3.16063C11.0001 3.66575 8.64749 4.91253 6.80104 6.74332C4.95458 8.57413 3.69713 10.9067 3.18777 13.4461C2.6782 15.9854 2.93981 18.6176 3.93907 21.0097C4.93833 23.4018 6.63052 25.4462 8.80177 26.8848C10.973 28.3231 13.5256 29.0909 16.137 29.0909Z" fill="url(#paint0_linear_32_56)"/>
<path d="M16.1558 29.0169H32.2274C34.5524 29.0169 36.7822 28.1026 38.4262 26.4752C40.0702 24.8478 40.9938 22.6404 40.9938 20.339C40.9938 18.0375 40.0702 15.8302 38.4262 14.2028C36.7822 12.5754 34.5524 11.661 32.2274 11.661C32.0265 11.661 31.8256 11.661 31.6266 11.6809C32.0261 13.0865 32.2283 14.5398 32.2274 16.0001C32.2274 16.3836 32.0735 16.7515 31.7995 17.0227C31.5255 17.294 31.1539 17.4463 30.7664 17.4463C30.3789 17.4463 30.0072 17.294 29.7332 17.0227C29.4592 16.7515 29.3053 16.3836 29.3053 16.0001C29.3053 13.4255 28.5341 10.9088 27.0892 8.76816C25.6443 6.62754 23.5907 4.95914 21.1879 3.97391C18.785 2.98869 16.1412 2.73091 13.5904 3.23318C11.0397 3.73544 8.69658 4.97518 6.85759 6.79562C5.0186 8.61609 3.76623 10.9355 3.25893 13.4605C2.75143 15.9855 3.01198 18.6028 4.0072 20.9814C5.00242 23.36 6.68776 25.3929 8.85023 26.8233C11.0127 28.2535 13.555 29.0169 16.1558 29.0169Z" fill="url(#paint1_linear_32_56)" fill-opacity="0.15"/>
<defs>
<linearGradient id="paint0_linear_32_56" x1="22" y1="0" x2="22" y2="32" gradientUnits="userSpaceOnUse">
<stop offset="0.26" stop-color="#FED76C"/>
<stop offset="1" stop-color="#FFBC5E"/>
</linearGradient>
<linearGradient id="paint1_linear_32_56" x1="21.9951" y1="0.090397" x2="21.9951" y2="31.9096" gradientUnits="userSpaceOnUse">
<stop offset="0.26" stop-color="#FFDB6E"/>
<stop offset="1" stop-color="#FFBC5E"/>
</linearGradient>
</defs>
</svg>
