<svg width="41" height="41" viewBox="0 0 41 41" fill="none" xmlns="http://www.w3.org/2000/svg">
<path opacity="0.15" fill-rule="evenodd" clip-rule="evenodd" d="M39.7627 18.939C39.5433 18.8478 39.2908 18.8982 39.1228 19.0666L37.3644 20.8307V8.83661C37.3644 8.51128 37.1016 8.24761 36.7773 8.24761H32.2663L33.9038 6.60485L33.9045 6.60406L35.4823 5.02117C35.8204 4.68204 36.0066 4.23091 36.0066 3.75124C36.0066 3.27158 35.8204 2.8206 35.4823 2.48131L33.6578 0.65091C33.3198 0.31177 32.8701 0.125 32.3919 0.125C31.9138 0.125 31.4642 0.31177 31.1261 0.65091L29.5475 2.23458L27.64 4.14822L23.5538 8.24754H5.3297V2.42064C5.3297 2.0953 5.06681 1.83165 4.74259 1.83165C2.19649 1.83181 0.125 3.9098 0.125 6.46424V31.4809C0.125 31.5244 0.13 31.5667 0.13891 31.6075C0.22 32.6914 0.68742 33.6984 1.4686 34.4629C2.3036 35.2799 3.40587 35.7298 4.57243 35.7298H22.5129L19.1341 39.1196C18.9662 39.288 18.916 39.5412 19.0068 39.7614C19.0977 39.9815 19.3118 40.125 19.5493 40.125H39.538C39.8622 40.125 40.1251 39.8614 40.1251 39.536V19.4832C40.1251 19.245 39.982 19.0302 39.7627 18.939ZM31.9565 1.48397C32.1965 1.24304 32.5876 1.24304 32.8276 1.48397L34.6522 3.31445C34.8923 3.5553 34.8923 3.94742 34.6522 4.18835L33.4888 5.35553L30.793 2.65115L31.9565 1.48397ZM29.9627 3.48413L32.6584 6.18843L31.5812 7.26917L28.8856 4.56487L29.9627 3.48413ZM17.5217 20.885L15.84 21.4806L14.7195 20.3565L15.3132 18.6694L17.5217 20.885ZM34.9543 29.2957L29.2957 34.9543C29.2327 35.0173 29.2773 35.125 29.3664 35.125H35.125V29.3664C35.125 29.2773 35.0173 29.2327 34.9543 29.2957ZM15.125 17.625L18.625 21.125L31.625 8.125L28.125 4.625L15.125 17.625Z" fill="url(#paint0_linear_33_102)"/>
<path d="M35.5248 28.38C35.3054 28.2888 35.0529 28.3392 34.885 28.5076L28.4689 34.9444C28.301 35.1129 28.2507 35.3662 28.3417 35.5863C28.4325 35.8065 28.6467 35.9499 28.8841 35.9499H35.3002C35.6245 35.9499 35.8873 35.6862 35.8873 35.3609V28.9241C35.8872 28.686 35.7442 28.4712 35.5248 28.38ZM30.3013 34.772L34.7129 30.3461V34.772H30.3013Z" fill="url(#paint1_linear_33_102)" stroke="url(#paint2_linear_33_102)" stroke-width="0.25"/>
<path d="M39.7627 18.939C39.5433 18.8478 39.2908 18.8982 39.1228 19.0666L37.3644 20.8307V8.83661C37.3644 8.51128 37.1016 8.24761 36.7773 8.24761H32.2663L33.9038 6.60485C33.9041 6.60462 33.9043 6.60429 33.9045 6.60406L35.4823 5.02117C35.8204 4.68204 36.0066 4.23091 36.0066 3.75124C36.0066 3.27158 35.8204 2.8206 35.4823 2.48131L33.6578 0.65091C33.3198 0.31177 32.8701 0.125 32.3919 0.125C31.9138 0.125 31.4642 0.31177 31.1261 0.65091L29.5475 2.23458L27.64 4.14822L23.5538 8.24754H5.3297V2.42064C5.3297 2.0953 5.06681 1.83165 4.74259 1.83165C2.19649 1.83181 0.125 3.9098 0.125 6.46424V31.4809C0.125 31.5244 0.13 31.5667 0.13891 31.6075C0.22 32.6914 0.68742 33.6984 1.4686 34.4629C2.3036 35.2799 3.40587 35.7298 4.57243 35.7298H22.5129L19.1341 39.1196C18.9662 39.288 18.916 39.5412 19.0068 39.7614C19.0977 39.9815 19.3118 40.125 19.5493 40.125H39.538C39.8622 40.125 40.1251 39.8614 40.1251 39.536V19.4832C40.1251 19.245 39.982 19.0302 39.7627 18.939ZM31.9565 1.48397C32.1965 1.24304 32.5876 1.24304 32.8276 1.48397L34.6522 3.31445C34.8923 3.5553 34.8923 3.94742 34.6522 4.18835L33.4888 5.35553L30.793 2.65115L31.9565 1.48397ZM29.9627 3.48413L32.6584 6.18843L31.5812 7.26917L28.8856 4.56487L29.9627 3.48413ZM38.951 26.1014H37.8678C37.5435 26.1014 37.2807 26.3651 37.2807 26.6904C37.2807 27.0158 37.5435 27.2794 37.8678 27.2794H38.951V29.0543H37.8678C37.5435 29.0543 37.2807 29.3181 37.2807 29.6434C37.2807 29.9687 37.5435 30.2324 37.8678 30.2324H38.951V32.0072H37.8678C37.5435 32.0072 37.2807 32.2708 37.2807 32.5962C37.2807 32.9215 37.5435 33.1852 37.8678 33.1852H38.951V34.9601H37.8678C37.5435 34.9601 37.2807 35.2238 37.2807 35.5491C37.2807 35.8745 37.5435 36.1381 37.8678 36.1381H38.951V38.9472H20.9666L26.8969 32.998C27.1262 32.7678 27.1262 32.395 26.8969 32.165C26.8706 32.1385 26.8423 32.1156 26.8127 32.0953C26.5841 31.9383 26.2696 31.9613 26.0665 32.165L23.6872 34.552H4.57251C2.79188 34.552 1.35844 33.1574 1.30203 31.3743C1.30539 31.2623 1.31406 31.1513 1.32797 31.0416C1.32805 31.041 1.32813 31.0404 1.32821 31.0397C1.33477 30.9876 1.34266 30.9357 1.35164 30.8842C1.35266 30.8783 1.35375 30.8723 1.35477 30.8665C1.36297 30.8205 1.37219 30.7747 1.38227 30.7291C1.38508 30.7164 1.38805 30.7037 1.39102 30.6911C1.39992 30.6525 1.40953 30.6142 1.41985 30.576C1.42547 30.5553 1.43133 30.5349 1.43735 30.5143C1.44594 30.4843 1.45485 30.4545 1.4643 30.4249C1.47375 30.3954 1.48383 30.3661 1.49407 30.3369C1.50117 30.3165 1.50821 30.296 1.51586 30.2757C1.53016 30.2371 1.54532 30.199 1.56094 30.1611C1.56539 30.1502 1.56977 30.1392 1.57438 30.1283C1.59446 30.0812 1.61532 30.0348 1.63735 29.9888C1.63828 29.9869 1.63914 29.9849 1.64008 29.983C2.0993 29.0296 2.98251 28.3188 4.04243 28.0982C4.0454 28.0976 4.04837 28.0969 4.05134 28.0962C4.09993 28.0863 4.14899 28.0778 4.19837 28.0699C4.20657 28.0686 4.21477 28.0668 4.22313 28.0656C4.26774 28.0588 4.31282 28.0535 4.3579 28.0484C4.37056 28.047 4.38313 28.045 4.39587 28.0438C4.43938 28.0394 4.48329 28.0365 4.5272 28.0337C4.5411 28.0328 4.55501 28.0314 4.56892 28.0307C4.62642 28.0278 4.68438 28.0263 4.74259 28.0263C5.06681 28.0263 5.3297 27.7627 5.3297 27.4373V23.1666C5.3297 22.8413 5.06681 22.5777 4.74259 22.5777C4.41837 22.5777 4.15548 22.8413 4.15548 23.1666V26.8854C3.16407 27.0112 2.24383 27.4548 1.51821 28.1657C1.44188 28.2404 1.36953 28.3182 1.29906 28.3972V6.46424C1.29906 4.76026 2.53547 3.34031 4.1554 3.05988V20.8108C4.1554 21.136 4.41829 21.3998 4.74251 21.3998C5.06673 21.3998 5.32962 21.136 5.32962 20.8108V9.4256H22.3797L19.134 12.6817C18.9047 12.9118 18.9047 13.2847 19.134 13.5147C19.3633 13.7446 19.735 13.7446 19.9643 13.5147L24.2122 9.2531C24.2121 9.2532 24.2123 9.253 24.2122 9.2531L28.0551 5.39778L30.7507 8.10215L30.4344 8.41941C30.4342 8.41965 30.4339 8.41988 30.4337 8.42013L18.5955 20.2965L15.8999 17.5922L18.2333 15.2513C18.4626 15.0211 18.4626 14.6483 18.2333 14.4183C18.004 14.1884 17.6323 14.1884 17.4031 14.4183L14.6544 17.1757C14.6397 17.1905 14.626 17.206 14.6131 17.222C14.6088 17.2274 14.605 17.2331 14.6009 17.2386C14.5926 17.2497 14.5845 17.2608 14.5769 17.2724C14.5726 17.2792 14.5687 17.2861 14.5646 17.293C14.5582 17.304 14.5519 17.3152 14.5462 17.3265C14.5425 17.3338 14.5391 17.3414 14.5357 17.349C14.5304 17.3605 14.5256 17.3723 14.5211 17.384C14.5196 17.3882 14.5175 17.3921 14.516 17.3962L13.3722 20.647L12.5924 22.8634C12.5821 22.8928 12.5746 22.9228 12.5691 22.953H10.6166C10.2924 22.953 10.0295 23.2166 10.0295 23.5419C10.0295 23.8673 10.2924 24.1309 10.6166 24.1309H26.8755C27.1998 24.1309 27.4626 23.8673 27.4626 23.5419C27.4626 23.2166 27.1998 22.953 26.8755 22.953H15.2104L18.7909 21.6849C18.7939 21.6839 18.7967 21.6824 18.7996 21.6813C18.8136 21.6761 18.8272 21.6702 18.8407 21.6641C18.8461 21.6616 18.8515 21.6592 18.8568 21.6566C18.8708 21.6496 18.8846 21.6418 18.8982 21.6335C18.9026 21.6308 18.9071 21.6284 18.9114 21.6257C18.9256 21.6166 18.9393 21.6066 18.9529 21.5961C18.9562 21.5936 18.9597 21.5913 18.963 21.5886C18.9793 21.5754 18.9953 21.5613 19.0105 21.546L31.0921 9.4257H36.1902V22.0087L27.792 30.4339C27.5627 30.6641 27.5627 31.0369 27.792 31.2669C27.8063 31.2813 27.8212 31.2948 27.8366 31.3073C27.9443 31.3954 28.0758 31.4395 28.2072 31.4395C28.3386 31.4395 28.4701 31.3954 28.5777 31.3073C28.5931 31.2948 28.608 31.2813 28.6223 31.2669L38.951 20.9049V26.1014ZM17.5217 20.885L15.84 21.4806L14.7195 20.3565L15.3132 18.6694L17.5217 20.885Z" fill="url(#paint3_linear_33_102)"/>
<path d="M24.2122 9.2531L19.9643 13.5147C19.735 13.7446 19.3633 13.7446 19.134 13.5147C18.9047 13.2847 18.9047 12.9118 19.134 12.6817L22.3797 9.4256H5.32962V20.8108C5.32962 21.136 5.06673 21.3998 4.74251 21.3998C4.41829 21.3998 4.1554 21.136 4.1554 20.8108V3.05988C2.53547 3.34031 1.29906 4.76026 1.29906 6.46424V28.3972C1.36953 28.3182 1.44188 28.2404 1.51821 28.1657C2.24383 27.4548 3.16407 27.0112 4.15548 26.8854V23.1666C4.15548 22.8413 4.41837 22.5777 4.74259 22.5777C5.06681 22.5777 5.3297 22.8413 5.3297 23.1666V27.4373C5.3297 27.7627 5.06681 28.0263 4.74259 28.0263C4.68438 28.0263 4.62642 28.0278 4.56892 28.0307C4.55501 28.0314 4.5411 28.0328 4.5272 28.0337C4.48329 28.0365 4.43938 28.0394 4.39587 28.0438C4.38313 28.045 4.37056 28.047 4.3579 28.0484C4.31282 28.0535 4.26774 28.0588 4.22313 28.0656C4.21477 28.0668 4.20657 28.0686 4.19837 28.0699C4.14899 28.0778 4.09993 28.0863 4.05134 28.0962C4.04837 28.0969 4.0454 28.0976 4.04243 28.0982C2.98251 28.3188 2.0993 29.0296 1.64008 29.983C1.63914 29.9849 1.63828 29.9869 1.63735 29.9888C1.61532 30.0348 1.59446 30.0812 1.57438 30.1283C1.56977 30.1392 1.56539 30.1502 1.56094 30.1611C1.54532 30.199 1.53016 30.2371 1.51586 30.2757C1.50821 30.296 1.50117 30.3165 1.49407 30.3369C1.48383 30.3661 1.47375 30.3954 1.4643 30.4249C1.45485 30.4545 1.44594 30.4843 1.43735 30.5143C1.43133 30.5349 1.42547 30.5553 1.41985 30.576C1.40953 30.6142 1.39992 30.6525 1.39102 30.6911C1.38805 30.7037 1.38508 30.7164 1.38227 30.7291C1.37219 30.7747 1.36297 30.8205 1.35477 30.8665C1.35375 30.8723 1.35266 30.8783 1.35164 30.8842C1.34266 30.9357 1.33477 30.9876 1.32821 31.0397C1.32813 31.0404 1.32805 31.041 1.32797 31.0416C1.31406 31.1513 1.30539 31.2623 1.30203 31.3743C1.35844 33.1574 2.79188 34.552 4.57251 34.552H23.6872L26.0665 32.165C26.2696 31.9613 26.5841 31.9383 26.8127 32.0953C26.8423 32.1156 26.8706 32.1385 26.8969 32.165C27.1262 32.395 27.1262 32.7678 26.8969 32.998L20.9666 38.9472H38.951V36.1381H37.8678C37.5435 36.1381 37.2807 35.8745 37.2807 35.5491C37.2807 35.2238 37.5435 34.9601 37.8678 34.9601H38.951V33.1852H37.8678C37.5435 33.1852 37.2807 32.9215 37.2807 32.5962C37.2807 32.2708 37.5435 32.0072 37.8678 32.0072H38.951V30.2324H37.8678C37.5435 30.2324 37.2807 29.9687 37.2807 29.6434C37.2807 29.3181 37.5435 29.0543 37.8678 29.0543H38.951V27.2794H37.8678C37.5435 27.2794 37.2807 27.0158 37.2807 26.6904C37.2807 26.3651 37.5435 26.1014 37.8678 26.1014H38.951V20.9049L28.6223 31.2669C28.608 31.2813 28.5931 31.2948 28.5777 31.3073C28.4701 31.3954 28.3386 31.4395 28.2072 31.4395C28.0758 31.4395 27.9443 31.3954 27.8366 31.3073C27.8212 31.2948 27.8063 31.2813 27.792 31.2669C27.5627 31.0369 27.5627 30.6641 27.792 30.4339L36.1902 22.0087V9.4257H31.0921L19.0105 21.546C18.9953 21.5613 18.9793 21.5754 18.963 21.5886C18.9597 21.5913 18.9562 21.5936 18.9529 21.5961C18.9393 21.6066 18.9256 21.6166 18.9114 21.6257C18.9071 21.6284 18.9026 21.6308 18.8982 21.6335C18.8846 21.6418 18.8708 21.6496 18.8568 21.6566C18.8515 21.6592 18.8461 21.6616 18.8407 21.6641C18.8272 21.6702 18.8136 21.6761 18.7996 21.6813C18.7967 21.6824 18.7939 21.6839 18.7909 21.6849L15.2104 22.953H26.8755C27.1998 22.953 27.4626 23.2166 27.4626 23.5419C27.4626 23.8673 27.1998 24.1309 26.8755 24.1309H10.6166C10.2924 24.1309 10.0295 23.8673 10.0295 23.5419C10.0295 23.2166 10.2924 22.953 10.6166 22.953H12.5691C12.5746 22.9228 12.5821 22.8928 12.5924 22.8634L13.3722 20.647L14.516 17.3962C14.5175 17.3921 14.5196 17.3882 14.5211 17.384C14.5256 17.3723 14.5304 17.3605 14.5357 17.349C14.5391 17.3414 14.5425 17.3338 14.5462 17.3265C14.5519 17.3152 14.5582 17.304 14.5646 17.293C14.5687 17.2861 14.5726 17.2792 14.5769 17.2724C14.5845 17.2608 14.5926 17.2497 14.6009 17.2386C14.605 17.2331 14.6088 17.2274 14.6131 17.222C14.626 17.206 14.6397 17.1905 14.6544 17.1757L17.4031 14.4183C17.6323 14.1884 18.004 14.1884 18.2333 14.4183C18.4626 14.6483 18.4626 15.0211 18.2333 15.2513L15.8999 17.5922L18.5955 20.2965L30.4337 8.42013C30.4339 8.41988 30.4342 8.41965 30.4344 8.41941L30.7507 8.10215L28.0551 5.39778L24.2122 9.2531ZM24.2122 9.2531C24.2123 9.253 24.2121 9.2532 24.2122 9.2531ZM39.7627 18.939C39.5433 18.8478 39.2908 18.8982 39.1228 19.0666L37.3644 20.8307V8.83661C37.3644 8.51128 37.1016 8.24761 36.7773 8.24761H32.2663L33.9038 6.60485C33.9041 6.60462 33.9043 6.60429 33.9045 6.60406L35.4823 5.02117C35.8204 4.68204 36.0066 4.23091 36.0066 3.75124C36.0066 3.27158 35.8204 2.8206 35.4823 2.48131L33.6578 0.65091C33.3198 0.31177 32.8701 0.125 32.3919 0.125C31.9138 0.125 31.4642 0.31177 31.1261 0.65091L29.5475 2.23458L27.64 4.14822L23.5538 8.24754H5.3297V2.42064C5.3297 2.0953 5.06681 1.83165 4.74259 1.83165C2.19649 1.83181 0.125 3.9098 0.125 6.46424V31.4809C0.125 31.5244 0.13 31.5667 0.13891 31.6075C0.22 32.6914 0.68742 33.6984 1.4686 34.4629C2.3036 35.2799 3.40587 35.7298 4.57243 35.7298H22.5129L19.1341 39.1196C18.9662 39.288 18.916 39.5412 19.0068 39.7614C19.0977 39.9815 19.3118 40.125 19.5493 40.125H39.538C39.8622 40.125 40.1251 39.8614 40.1251 39.536V19.4832C40.1251 19.245 39.982 19.0302 39.7627 18.939ZM31.9565 1.48397C32.1965 1.24304 32.5876 1.24304 32.8276 1.48397L34.6522 3.31445C34.8923 3.5553 34.8923 3.94742 34.6522 4.18835L33.4888 5.35553L30.793 2.65115L31.9565 1.48397ZM29.9627 3.48413L32.6584 6.18843L31.5812 7.26917L28.8856 4.56487L29.9627 3.48413ZM17.5217 20.885L15.84 21.4806L14.7195 20.3565L15.3132 18.6694L17.5217 20.885Z" stroke="url(#paint4_linear_33_102)" stroke-width="0.25"/>
<defs>
<linearGradient id="paint0_linear_33_102" x1="2.39167" y1="0.125001" x2="36.925" y2="38.2584" gradientUnits="userSpaceOnUse">
<stop offset="0.259336" stop-color="#FFDB6E"/>
<stop offset="1" stop-color="#FFBC5E"/>
</linearGradient>
<linearGradient id="paint1_linear_33_102" x1="28.727" y1="28.3351" x2="35.3031" y2="35.5735" gradientUnits="userSpaceOnUse">
<stop offset="0.259336" stop-color="#FFDB6E"/>
<stop offset="1" stop-color="#FFBC5E"/>
</linearGradient>
<linearGradient id="paint2_linear_33_102" x1="28.727" y1="28.3351" x2="35.3031" y2="35.5735" gradientUnits="userSpaceOnUse">
<stop offset="0.259336" stop-color="#FFDB6E"/>
<stop offset="1" stop-color="#FFBC5E"/>
</linearGradient>
<linearGradient id="paint3_linear_33_102" x1="2.39167" y1="0.125001" x2="36.925" y2="38.2584" gradientUnits="userSpaceOnUse">
<stop offset="0.259336" stop-color="#FFDB6E"/>
<stop offset="1" stop-color="#FFBC5E"/>
</linearGradient>
<linearGradient id="paint4_linear_33_102" x1="2.39167" y1="0.125001" x2="36.925" y2="38.2584" gradientUnits="userSpaceOnUse">
<stop offset="0.259336" stop-color="#FFDB6E"/>
<stop offset="1" stop-color="#FFBC5E"/>
</linearGradient>
</defs>
</svg>
