<svg width="234" height="234" viewBox="0 0 234 234" fill="none" xmlns="http://www.w3.org/2000/svg">
<path d="M145.888 37C130.95 37.0115 116.309 41.1785 103.603 49.0351C90.8972 56.8917 80.6275 68.128 73.9425 81.4874C65.9898 80.3276 57.8834 80.8188 50.1289 82.9305C42.3745 85.0422 35.1383 88.7291 28.8718 93.7612C22.6053 98.7932 17.4428 105.063 13.7064 112.178C9.97005 119.294 7.7399 127.103 7.15509 135.118C6.57027 143.134 7.64334 151.184 10.3073 158.766C12.9714 166.349 17.1692 173.301 22.6389 179.189C28.1087 185.078 34.7331 189.776 42.0989 192.991C49.4648 196.206 57.414 197.868 65.4509 197.875H145.888C167.222 197.875 187.681 189.4 202.766 174.315C217.851 159.23 226.326 138.771 226.326 117.438C226.326 96.1041 217.851 75.6446 202.766 60.5596C187.681 45.4746 167.222 37 145.888 37ZM145.888 183.25H65.4509C53.8145 183.25 42.6547 178.627 34.4266 170.399C26.1984 162.171 21.5759 151.011 21.5759 139.375C21.5759 127.739 26.1984 116.579 34.4266 108.351C42.6547 100.123 53.8145 95.5 65.4509 95.5C66.4563 95.5 67.4618 95.5 68.4581 95.6005C66.4584 102.707 65.4465 110.055 65.4509 117.438C65.4509 119.377 66.2213 121.237 67.5927 122.608C68.964 123.98 70.824 124.75 72.7634 124.75C74.7028 124.75 76.5627 123.98 77.9341 122.608C79.3054 121.237 80.0759 119.377 80.0759 117.438C80.0759 104.421 83.9357 91.6968 91.1673 80.874C98.3988 70.0512 108.677 61.6159 120.703 56.6347C132.729 51.6535 145.961 50.3502 158.728 52.8896C171.494 55.429 183.221 61.697 192.425 70.901C201.629 80.1051 207.897 91.8317 210.436 104.598C212.976 117.364 211.672 130.597 206.691 142.623C201.71 154.649 193.275 164.927 182.452 172.159C171.629 179.39 158.905 183.25 145.888 183.25Z" fill="url(#paint0_linear_1_53)"/>
<path d="M145.888 183.25H65.4509C53.8145 183.25 42.6547 178.627 34.4266 170.399C26.1984 162.171 21.5759 151.011 21.5759 139.375C21.5759 127.739 26.1984 116.579 34.4266 108.351C42.6547 100.123 53.8145 95.5 65.4509 95.5C66.4563 95.5 67.4618 95.5 68.4581 95.6005C66.4584 102.707 65.4465 110.055 65.4509 117.438C65.4509 119.377 66.2213 121.237 67.5927 122.608C68.964 123.98 70.824 124.75 72.7634 124.75C74.7028 124.75 76.5627 123.98 77.9341 122.608C79.3054 121.237 80.0759 119.377 80.0759 117.438C80.0759 104.421 83.9357 91.6968 91.1673 80.874C98.3988 70.0512 108.677 61.6159 120.703 56.6347C132.729 51.6535 145.961 50.3502 158.728 52.8896C171.494 55.429 183.221 61.697 192.425 70.901C201.629 80.1051 207.897 91.8317 210.436 104.598C212.976 117.364 211.672 130.597 206.691 142.623C201.71 154.649 193.275 164.927 182.452 172.159C171.629 179.39 158.905 183.25 145.888 183.25Z" fill="url(#paint1_linear_1_53)" fill-opacity="0.15"/>
<defs>
<linearGradient id="paint0_linear_1_53" x1="116.663" y1="37" x2="116.663" y2="197.875" gradientUnits="userSpaceOnUse">
<stop offset="0.26" stop-color="#FED76C"/>
<stop offset="1" stop-color="#FFBC5E"/>
</linearGradient>
<linearGradient id="paint1_linear_1_53" x1="116.663" y1="37" x2="116.663" y2="197.875" gradientUnits="userSpaceOnUse">
<stop offset="0.26" stop-color="#FFDB6E"/>
<stop offset="1" stop-color="#FFBC5E"/>
</linearGradient>
</defs>
</svg>
