<svg width="241" height="241" viewBox="0 0 241 241" fill="none" xmlns="http://www.w3.org/2000/svg">
<path d="M11.0391 166C40.2763 180.005 59.2905 183.374 96.1738 184.199C97.0892 200.3 102.677 215.15 111.604 227.414L112.039 228.637C63.7265 230.764 27.9731 223.591 11.0391 206.151V166Z" fill="url(#paint0_linear_1_86)" fill-opacity="0.15"/>
<path d="M190.039 95.1787C186.121 94.5806 182.114 94.2705 178.039 94.2705C152.689 94.2705 129.994 106.249 114.77 125.13L94.502 128L59.2764 123.768L20.8486 112.279L8.03906 99.5811V50C25.4191 60.0795 33.9923 63.9415 47.5342 68.1396C72.0711 70.3096 85.3424 71.5199 100.907 73.5811L138.802 70.5586L167.089 62.0928L190.039 50V95.1787Z" fill="url(#paint1_linear_1_86)" fill-opacity="0.15"/>
<path d="M188.039 35.5C188.039 52.3447 148.416 66 99.5391 66C50.6619 66 11.0391 52.3447 11.0391 35.5C11.0391 18.6553 50.6619 5 99.5391 5C148.416 5 188.039 18.6553 188.039 35.5Z" fill="url(#paint2_linear_1_86)" fill-opacity="0.15"/>
<path fill-rule="evenodd" clip-rule="evenodd" d="M219.199 132.695L227.832 141.328C228.923 142.426 229.536 143.911 229.536 145.459C229.536 147.007 228.923 148.492 227.832 149.59L220.879 156.543C222.814 160.145 224.266 163.987 225.195 167.969H234.199C235.753 167.969 237.244 168.586 238.342 169.685C239.441 170.784 240.059 172.274 240.059 173.828V186.035C240.059 187.589 239.441 189.08 238.342 190.178C237.244 191.277 235.753 191.895 234.199 191.895H224.434C223.246 195.828 221.538 199.585 219.355 203.066L225.723 209.434C226.82 210.532 227.436 212.021 227.436 213.574C227.436 215.127 226.82 216.616 225.723 217.715L217.09 226.348C215.992 227.439 214.507 228.052 212.959 228.052C211.411 228.052 209.926 227.439 208.828 226.348L201.875 219.395C198.24 221.333 194.366 222.785 190.352 223.711V232.715C190.352 234.269 189.734 235.759 188.635 236.858C187.537 237.957 186.046 238.574 184.492 238.574H172.227C170.673 238.574 169.182 237.957 168.083 236.858C166.985 235.759 166.367 234.269 166.367 232.715V222.949C162.436 221.747 158.68 220.033 155.195 217.852L148.809 224.219C147.711 225.31 146.226 225.923 144.678 225.923C143.13 225.923 141.645 225.31 140.547 224.219L131.914 215.586C130.823 214.488 130.21 213.003 130.21 211.455C130.21 209.907 130.823 208.422 131.914 207.324L138.867 200.371C136.92 196.747 135.468 192.878 134.551 188.867H125.547C123.993 188.867 122.503 188.25 121.404 187.151C120.305 186.052 119.688 184.562 119.688 183.008V170.801C119.688 169.247 120.305 167.756 121.404 166.658C122.503 165.559 123.993 164.941 125.547 164.941H135.312C136.507 161.001 138.221 157.237 140.41 153.75L134.023 147.383C132.932 146.285 132.32 144.8 132.32 143.252C132.32 141.704 132.932 140.219 134.023 139.121L142.656 130.488C143.754 129.397 145.239 128.784 146.787 128.784C148.335 128.784 149.82 129.397 150.918 130.488L157.891 137.441C161.518 135.501 165.386 134.049 169.395 133.125V124.141C169.395 122.587 170.012 121.096 171.111 119.997C172.21 118.899 173.7 118.281 175.254 118.281H187.539C189.093 118.281 190.583 118.899 191.682 119.997C192.781 121.096 193.398 122.587 193.398 124.141V133.906C197.34 135.097 201.104 136.811 204.59 139.004L210.977 132.695C212.075 131.598 213.564 130.982 215.117 130.982C216.67 130.982 218.159 131.598 219.258 132.695H219.199ZM35.1953 53.1055C51.3281 58.4961 73.7891 61.8164 98.7305 61.8164C123.672 61.8164 146.191 58.5938 162.324 53.1055C176.484 48.3789 185.234 42.6562 185.234 37.0508C185.234 31.4453 176.484 25.7422 162.324 21.0156C146.191 15.625 123.73 12.2852 98.7891 12.2852C73.8477 12.2852 51.3867 15.625 35.1953 21.0156C5.21485 31.0352 4.375 42.793 35.1953 53.1055ZM96.0938 185.547C70.957 185.312 48.1445 181.777 31.3672 176.172C24.6946 174.072 18.3353 171.083 12.4609 167.285V204.102C13.5742 209.316 22.0703 214.57 35.2539 218.965C51.3867 224.355 73.8477 227.695 98.7891 227.695C102.988 227.695 107.129 227.695 111.172 227.402C112.296 229.183 113.605 230.839 115.078 232.344L121.816 239.062C114.395 239.688 106.641 240.02 98.6719 240.02C72.4805 240.02 48.6328 236.426 31.25 230.625C22.0898 227.578 0 217.52 0 205.508V201.602C0.117188 146.745 0.130208 91.9141 0.0390625 37.1094C0.0390625 25.5859 12.0117 15.8594 31.2891 9.39453C48.75 3.59375 72.5977 0 98.7891 0C124.98 0 148.828 3.59375 166.211 9.39453C183.594 15.1953 195.352 23.8672 197.305 34.0039C197.541 34.6684 197.66 35.3689 197.656 36.0742V96.3477C194.415 95.164 190.99 94.5623 187.539 94.5703H185.215C185.224 94.4207 185.224 94.2707 185.215 94.1211V55.7031C179.284 59.5587 172.858 62.5941 166.113 64.7266C148.828 70.5273 125.039 74.2188 98.7891 74.2188C72.5391 74.2188 48.75 70.5273 31.2891 64.7266C24.6154 62.6208 18.2561 59.6251 12.3828 55.8203V95.2734C13.4961 100.508 21.9922 105.762 35.1758 110.156C51.3086 115.547 73.7695 118.887 98.7109 118.887C106.699 118.887 114.453 118.535 121.816 117.891L118.633 121.094C118.184 121.484 117.754 121.875 117.324 122.305C114.843 124.777 112.826 127.675 111.367 130.859C107.246 131.035 103.027 131.133 98.7695 131.133C72.5781 131.133 48.7305 127.539 31.3477 121.738C24.6838 119.649 18.3313 116.673 12.4609 112.891V149.707C13.5742 154.922 22.0703 160.156 35.1953 164.57C50.8203 169.766 72.1094 173.047 95.918 173.281V183.047C95.918 183.906 95.918 184.766 96.0352 185.605L96.0938 185.547ZM179.883 154.434C184.63 154.437 189.268 155.849 193.213 158.488C197.158 161.128 200.232 164.879 202.046 169.265C203.859 173.652 204.332 178.477 203.404 183.132C202.475 187.787 200.187 192.063 196.83 195.418C193.472 198.773 189.195 201.057 184.539 201.982C179.883 202.906 175.058 202.43 170.673 200.612C166.288 198.795 162.54 195.718 159.903 191.771C157.267 187.824 155.859 183.184 155.859 178.438C155.859 175.284 156.481 172.161 157.688 169.247C158.896 166.334 160.666 163.686 162.897 161.457C165.128 159.228 167.776 157.46 170.691 156.255C173.605 155.05 176.729 154.431 179.883 154.434Z" fill="url(#paint3_linear_1_86)"/>
<path d="M9.03906 111C46.4129 127.337 69.2904 130.368 111.28 130.36C102.692 142.259 97.4839 156.759 97.0664 172.454C96.6144 173.286 96.1488 174.135 95.665 175C44.1873 171.768 25.2244 166.722 9.03906 151.874V111Z" fill="url(#paint4_linear_1_86)" fill-opacity="0.15"/>
<defs>
<linearGradient id="paint0_linear_1_86" x1="60.1597" y1="111" x2="60.1597" y2="175" gradientUnits="userSpaceOnUse">
<stop offset="0.26" stop-color="#FFDB6E"/>
<stop offset="1" stop-color="#FFBC5E"/>
</linearGradient>
<linearGradient id="paint1_linear_1_86" x1="60.1597" y1="111" x2="60.1597" y2="175" gradientUnits="userSpaceOnUse">
<stop offset="0.26" stop-color="#FFDB6E"/>
<stop offset="1" stop-color="#FFBC5E"/>
</linearGradient>
<linearGradient id="paint2_linear_1_86" x1="60.1597" y1="111" x2="60.1597" y2="175" gradientUnits="userSpaceOnUse">
<stop offset="0.26" stop-color="#FFDB6E"/>
<stop offset="1" stop-color="#FFBC5E"/>
</linearGradient>
<linearGradient id="paint3_linear_1_86" x1="-19.9609" y1="16.5" x2="167.039" y2="222.5" gradientUnits="userSpaceOnUse">
<stop offset="0.26" stop-color="#FFDB6E"/>
<stop offset="1" stop-color="#FFBC5E"/>
</linearGradient>
<linearGradient id="paint4_linear_1_86" x1="60.1597" y1="111" x2="60.1597" y2="175" gradientUnits="userSpaceOnUse">
<stop offset="0.26" stop-color="#FFDB6E"/>
<stop offset="1" stop-color="#FFBC5E"/>
</linearGradient>
</defs>
</svg>
