<svg width="295" height="283" viewBox="0 0 295 283" fill="none" xmlns="http://www.w3.org/2000/svg">
<path fill-rule="evenodd" clip-rule="evenodd" d="M50.8354 98.5905H74.8869L78.5841 228.28L47.5995 228.281L50.8354 98.5905ZM28.1677 232.942H266.832V249.629H281.133L281.132 266.315H295V283L0 282.999V266.315H13.8683V249.629H28.1676L28.1677 232.942ZM279.28 62.3796L147.497 0L15.7132 62.3796L15.7142 72.5776L279.279 72.5786L279.28 62.3796ZM41.1194 77.2437H253.882V93.9273H41.1194V77.2437ZM219.65 98.5904H243.701L247.4 228.281L216.415 228.28L219.65 98.5904ZM163.378 98.5904L187.43 98.5914L191.128 228.28L160.143 228.281L163.378 98.5904ZM107.107 98.5904L131.157 98.5894L134.858 228.28H103.871L107.107 98.5904Z" fill="url(#paint0_linear_4_275)" fill-opacity="0.9"/>
<defs>
<linearGradient id="paint0_linear_4_275" x1="63.5776" y1="55.9222" x2="258.449" y2="270.805" gradientUnits="userSpaceOnUse">
<stop offset="0.26" stop-color="#FFDB6E"/>
<stop offset="1" stop-color="#FFBC5E"/>
</linearGradient>
</defs>
</svg>
