<svg width="86" height="85" viewBox="0 0 86 85" fill="none" xmlns="http://www.w3.org/2000/svg">
<rect x="13" y="37" width="59" height="45" fill="url(#paint0_linear_35_131)" fill-opacity="0.15"/>
<path d="M42.3977 0.000338937C42.5856 0.000171163 42.5856 0.000171163 42.7772 0C44.5857 0.00257176 46.3072 0.0571504 48.0628 0.539076C48.169 0.567523 48.2753 0.595969 48.3848 0.625277C54.6962 2.34824 59.8413 6.41725 63.1324 12.1251C65.3444 16.1159 66.0918 20.4285 66.0759 24.9545C66.0756 25.2123 66.0754 25.4701 66.0752 25.7279C66.0746 26.401 66.073 27.074 66.0712 27.7471C66.0695 28.4361 66.0687 29.1251 66.0679 29.8141C66.0662 31.1621 66.0634 32.51 66.0599 33.8579C66.2036 33.8566 66.3473 33.8553 66.4954 33.8539C66.6851 33.8529 66.8749 33.8518 67.0704 33.8508C67.2579 33.8495 67.4455 33.8481 67.6387 33.8468C69.326 33.881 71.0622 34.4504 72.2771 35.6813C73.5128 37.2274 73.9892 38.5871 73.9767 40.5661C73.978 40.8191 73.978 40.8191 73.9793 41.0772C73.9817 41.6391 73.9805 42.201 73.9793 42.7629C73.9803 43.1671 73.9814 43.5713 73.9827 43.9754C73.9854 44.9574 73.9857 45.9393 73.9848 46.9213C73.9842 47.7198 73.9844 48.5183 73.9853 49.3168C73.9854 49.4307 73.9855 49.5446 73.9857 49.6619C73.9859 49.8933 73.9862 50.1246 73.9864 50.356C73.9887 52.5231 73.9878 54.6903 73.9859 56.8574C73.9843 58.8376 73.9864 60.8178 73.9903 62.7981C73.9943 64.8343 73.9959 66.8705 73.9948 68.9067C73.9942 70.0487 73.9946 71.1907 73.9974 72.3327C74.0001 73.4066 73.9993 74.4805 73.9962 75.5545C73.9956 75.948 73.9961 76.3416 73.9979 76.7352C74 77.2736 73.9981 77.8118 73.9952 78.3502C73.9968 78.5049 73.9984 78.6597 74 78.8191C73.9805 80.5943 73.2685 82.0496 72.0931 83.3492C71.0331 84.3953 69.7258 84.9332 68.26 84.9359C68.0741 84.9366 67.8881 84.9374 67.6964 84.9381C67.492 84.9381 67.2876 84.9381 67.0771 84.938C66.8578 84.9386 66.6385 84.9392 66.4192 84.9399C65.816 84.9415 65.2129 84.9422 64.6097 84.9426C63.9593 84.9432 63.309 84.9448 62.6586 84.9463C61.0877 84.9495 59.5168 84.9512 57.9458 84.9527C57.2058 84.9534 56.4658 84.9543 55.7259 84.9552C53.2656 84.958 50.8054 84.9604 48.3452 84.9616C47.7068 84.9619 47.0684 84.9622 46.43 84.9626C46.2713 84.9627 46.1126 84.9627 45.9492 84.9628C43.3795 84.9642 40.8098 84.9684 38.2402 84.9738C35.6013 84.9793 32.9625 84.9822 30.3236 84.9828C28.8423 84.9831 27.3609 84.9846 25.8796 84.9888C24.6178 84.9924 23.3561 84.9937 22.0943 84.9921C21.4509 84.9914 20.8076 84.9917 20.1642 84.9949C19.5742 84.9978 18.9844 84.9977 18.3944 84.9951C18.0818 84.9945 17.7693 84.9972 17.4567 85C15.5229 84.9854 14.1412 84.509 12.7491 83.1388C11.4247 81.7145 11.011 80.3183 11.0233 78.3723C11.022 78.1195 11.022 78.1195 11.0207 77.8616C11.0183 77.3001 11.0195 76.7386 11.0207 76.177C11.0197 75.7731 11.0186 75.3692 11.0173 74.9653C11.0146 73.984 11.0143 73.0026 11.0152 72.0213C11.0158 71.2232 11.0156 70.4251 11.0147 69.6269C11.0146 69.5131 11.0145 69.3993 11.0143 69.282C11.0141 69.0507 11.0138 68.8195 11.0136 68.5882C11.0113 66.4218 11.0122 64.2555 11.0141 62.0892C11.0157 60.1101 11.0136 58.1311 11.0097 56.152C11.0057 54.1168 11.0041 52.0815 11.0052 50.0462C11.0058 48.9049 11.0054 47.7635 11.0026 46.6221C10.9999 45.5486 11.0007 44.4751 11.0038 43.4016C11.0044 43.0084 11.0039 42.6151 11.0021 42.2219C11 41.6835 11.0019 41.1454 11.0048 40.6071C11.0032 40.4528 11.0016 40.2985 11 40.1396C11.0182 38.475 11.553 36.8793 12.7229 35.6813C14.3227 34.3297 15.8384 33.8481 17.9156 33.8547C18.2033 33.8554 18.2033 33.8554 18.4967 33.8561C18.7162 33.857 18.7162 33.857 18.9401 33.8579C18.939 33.7206 18.9379 33.5834 18.9368 33.4419C18.9268 32.1307 18.9194 30.8194 18.9146 29.5081C18.9121 28.8344 18.9087 28.1607 18.903 27.487C18.8373 19.425 20.3339 12.4946 26.0701 6.5726C30.4371 2.21948 36.3267 0.00518201 42.3977 0.000338937ZM28.2659 8.82734C28.1315 8.95299 27.9972 9.07863 27.8588 9.20809C23.9237 13.0028 22.1722 18.1906 21.8851 23.5805C21.8655 24.4056 21.8658 25.23 21.8691 26.0553C21.8694 26.2824 21.8696 26.5095 21.8698 26.7366C21.8704 27.3258 21.872 27.9149 21.8738 28.504C21.8754 29.0665 21.8762 29.629 21.8769 30.1915C21.877 30.2336 21.877 30.2758 21.8771 30.3179C21.8787 31.4452 21.8816 32.5725 21.8846 33.6998C21.8848 33.7525 21.8849 33.8052 21.8851 33.8579C23.5048 33.8579 25.1246 33.8579 26.7934 33.8579C26.8014 33.0711 26.8094 32.2844 26.8177 31.4737C26.8235 30.9706 26.8294 30.4675 26.8356 29.9644C26.8454 29.1685 26.8549 28.3727 26.8624 27.5769C26.8685 26.9341 26.8761 26.2914 26.8847 25.6487C26.8877 25.4054 26.8902 25.1621 26.8921 24.9188C26.9093 22.8244 27.034 20.753 27.7239 18.7629C27.7664 18.6377 27.8089 18.5125 27.8527 18.3835C28.4744 16.6175 29.3528 15.0619 30.5564 13.6345C30.6617 13.5021 30.7669 13.3696 30.8753 13.2331C33.0428 10.619 36.1382 9.04064 39.3914 8.33005C39.5178 8.30115 39.6441 8.27225 39.7743 8.24247C43.7606 7.5262 47.9594 8.44064 51.3043 10.7026C54.6918 13.2206 57.0248 16.5484 57.8119 20.7824C58.0349 22.2831 58.0988 23.7638 58.1108 25.2783C58.1138 25.5277 58.117 25.7771 58.1204 26.0265C58.1287 26.6745 58.1352 27.3225 58.1413 27.9705C58.1491 28.7525 58.1591 29.5346 58.1688 30.3166C58.1831 31.497 58.1946 32.6774 58.2066 33.8579C59.8264 33.8579 61.4461 33.8579 63.1149 33.8579C63.1219 32.5792 63.1284 31.3005 63.1319 30.0217C63.1336 29.4258 63.1358 28.8299 63.1396 28.2341C63.1862 20.6762 62.1755 14.4358 56.8057 8.82734C53.0168 4.98959 47.8084 3.0004 42.5 2.96339C37.0942 3.00108 32.1737 5.0295 28.2659 8.82734ZM34.1559 14.1318C34.0238 14.2504 33.8918 14.369 33.7558 14.4912C31.625 16.5147 30.5316 18.8864 29.902 21.757C29.902 25.7503 29.902 29.7436 29.902 33.8579C38.2167 33.8579 46.5314 33.8579 55.098 33.8579C55.8469 23.774 55.8469 23.774 51.9894 15.2922C51.8629 15.1505 51.7363 15.0089 51.606 14.8629C49.3303 12.4369 46.2196 11.0205 42.9184 10.9035C39.6897 10.872 36.5719 11.901 34.1559 14.1318ZM14.6248 38.2507C14.0139 39.203 13.9843 39.994 13.988 41.1013C13.9873 41.2642 13.9865 41.4271 13.9858 41.595C13.9837 42.1414 13.984 42.6878 13.9842 43.2342C13.9832 43.6258 13.9821 44.0173 13.9809 44.4089C13.978 45.473 13.9772 46.5371 13.977 47.6012C13.9769 48.266 13.9761 48.9307 13.9752 49.5955C13.9723 51.7946 13.9708 53.9936 13.9711 56.1927C13.9711 56.3112 13.9711 56.4298 13.9711 56.5519C13.9711 56.6705 13.9711 56.7892 13.9712 56.9114C13.9713 58.8341 13.9682 60.7567 13.9635 62.6793C13.9588 64.6544 13.9566 66.6295 13.9569 68.6046C13.957 69.7131 13.956 70.8215 13.9526 71.93C13.9494 72.9726 13.9494 74.0152 13.9517 75.0579C13.9521 75.4404 13.9513 75.8229 13.9493 76.2053C13.9468 76.7279 13.9483 77.2503 13.9509 77.7728C13.9492 77.9239 13.9475 78.0749 13.9458 78.2305C13.9572 79.3083 14.1783 80.2131 14.9172 81.0226C15.6835 81.7088 16.3854 81.971 17.3955 81.9725C17.6685 81.9741 17.6685 81.9741 17.9471 81.9757C18.1463 81.9752 18.3455 81.9747 18.5507 81.9742C18.7629 81.9749 18.9751 81.9757 19.1938 81.9765C19.7826 81.9785 20.3715 81.9785 20.9603 81.9781C21.5198 81.978 22.0793 81.9794 22.6387 81.9808C22.7144 81.981 22.7901 81.9812 22.8658 81.9814C24.1101 81.9842 25.3544 81.9851 26.5988 81.9852C27.6102 81.9854 28.6217 81.9861 29.6331 81.9871C32.5008 81.9901 35.3684 81.9916 38.2361 81.9913C38.468 81.9913 38.468 81.9913 38.7046 81.9913C38.8594 81.9913 39.0141 81.9913 39.1736 81.9912C41.6823 81.9911 44.1909 81.9943 46.6995 81.999C49.2753 82.0037 51.8511 82.006 54.4269 82.0057C55.873 82.0056 57.3192 82.0065 58.7653 82.0101C59.9966 82.0131 61.2278 82.0138 62.4591 82.0116C63.0872 82.0105 63.7153 82.0105 64.3434 82.0134C65.0246 82.0164 65.7058 82.0144 66.387 82.0118C66.6841 82.0144 66.6841 82.0144 66.9872 82.017C68.1931 82.007 69.1493 81.9028 70.0709 81.0328C70.9581 80.0242 71.0163 79.1233 71.012 77.836C71.0131 77.5916 71.0131 77.5916 71.0142 77.3423C71.0163 76.7959 71.016 76.2495 71.0158 75.7031C71.0168 75.3115 71.0179 74.92 71.0191 74.5284C71.022 73.4643 71.0228 72.4002 71.023 71.3361C71.0231 70.6713 71.0239 70.0066 71.0248 69.3418C71.0276 67.1428 71.0292 64.9437 71.0289 62.7446C71.0289 62.6261 71.0289 62.5076 71.0289 62.3855C71.0289 62.2075 71.0289 62.2075 71.0288 62.0259C71.0287 60.1033 71.0318 58.1806 71.0365 56.258C71.0412 54.2829 71.0434 52.3078 71.0431 50.3327C71.043 49.2242 71.044 48.1158 71.0474 47.0073C71.0506 45.9647 71.0506 44.9221 71.0483 43.8794C71.0479 43.4969 71.0487 43.1145 71.0507 42.732C71.0532 42.2094 71.0517 41.687 71.0491 41.1645C71.0517 40.9379 71.0517 40.9379 71.0542 40.7068C71.0428 39.631 70.826 38.7152 70.077 37.9148C69.3311 37.2585 68.7662 36.9664 67.7832 36.9643C67.6003 36.9632 67.4174 36.962 67.229 36.9608C67.0281 36.9612 66.8272 36.9616 66.6202 36.962C66.4068 36.9611 66.1933 36.9603 65.9734 36.9594C65.3805 36.957 64.7876 36.9567 64.1946 36.9568C63.6327 36.9566 63.0708 36.9549 62.5089 36.9532C62.4315 36.9529 62.3541 36.9527 62.2768 36.9525C60.8786 36.9487 59.4805 36.9474 58.0824 36.9465C57.2094 36.946 56.3364 36.9449 55.4635 36.9437C53.0466 36.9405 50.6297 36.9378 48.2129 36.9373C48.0582 36.9372 47.9035 36.9372 47.7441 36.9372C47.4305 36.9371 47.1169 36.9371 46.8033 36.937C46.6476 36.937 46.492 36.9369 46.3316 36.9369C46.1757 36.9369 46.0199 36.9369 45.8593 36.9368C43.3337 36.9362 40.8082 36.9318 38.2826 36.9256C35.6898 36.9192 33.097 36.916 30.5042 36.916C29.0483 36.9159 27.5925 36.9145 26.1367 36.9097C24.897 36.9056 23.6574 36.9044 22.4177 36.9069C21.7853 36.9081 21.153 36.908 20.5205 36.9042C19.8346 36.9001 19.1488 36.9025 18.4629 36.9056C18.2635 36.9034 18.064 36.9012 17.8585 36.8989C16.4449 36.9131 15.6009 37.2098 14.6248 38.2507Z" fill="url(#paint1_linear_35_131)"/>
<path d="M46.9175 49.4399C48.3913 50.5041 49.4988 52.1049 49.8625 53.9155C50.2039 56.1944 49.9038 58.2332 48.5434 60.111C48.3088 60.4174 48.0933 60.6858 47.8004 60.9359C47.5421 61.1905 47.5421 61.1905 47.5485 61.5294C47.5665 61.6481 47.5845 61.7668 47.6031 61.889C47.6323 62.0875 47.6323 62.0875 47.6621 62.2901C47.7798 62.9489 47.9117 63.6028 48.0551 64.2564C48.1166 64.5484 48.178 64.8405 48.2392 65.1325C48.3348 65.5865 48.4315 66.0401 48.5312 66.4932C48.628 66.935 48.7202 67.3775 48.8118 67.8204C48.8424 67.9548 48.8731 68.0891 48.9047 68.2276C49.0911 69.1544 49.0266 69.6678 48.5536 70.4921C47.9663 70.8887 47.6971 70.868 46.9987 70.8744C46.8915 70.8758 46.7842 70.8771 46.6737 70.8786C46.3191 70.8826 45.9645 70.884 45.6099 70.8851C45.3631 70.8866 45.1163 70.8881 44.8696 70.8896C44.3521 70.8924 43.8348 70.8936 43.3173 70.8941C42.6551 70.895 41.993 70.9013 41.3308 70.9088C40.821 70.9138 40.3112 70.915 39.8014 70.9151C39.5573 70.9158 39.3132 70.9179 39.0691 70.9213C38.7272 70.9258 38.3856 70.925 38.0436 70.9229C37.8493 70.9238 37.6549 70.9246 37.4547 70.9255C36.7863 70.7938 36.5451 70.5202 36.1192 69.9948C35.7894 69.202 36.0828 68.3616 36.2617 67.5549C36.3111 67.3223 36.3111 67.3223 36.3615 67.085C36.4666 66.5903 36.574 66.0961 36.6816 65.602C36.7884 65.1078 36.8947 64.6135 37 64.119C37.0655 63.8116 37.132 63.5044 37.1994 63.1974C37.427 62.2123 37.427 62.2123 37.4281 61.2092C37.1633 60.9251 36.8887 60.6504 36.61 60.3804C35.2871 58.6647 34.8784 56.8998 35.0033 54.7314C35.2489 52.7916 36.152 51.0749 37.5917 49.7714C40.434 47.6803 43.968 47.4584 46.9175 49.4399ZM38.737 53.0867C37.9945 54.2119 37.906 55.4109 38.0825 56.7335C38.4369 57.9982 39.1781 58.7194 40.1916 59.5017C40.6589 60.0181 40.6537 60.3469 40.7003 61.0434C40.6456 61.5435 40.5409 62.0271 40.4299 62.5172C40.4007 62.6542 40.3714 62.7912 40.3412 62.9323C40.248 63.3668 40.1522 63.8006 40.0561 64.2344C39.9611 64.6707 39.8666 65.1071 39.7727 65.5436C39.7142 65.8144 39.6551 66.0851 39.5952 66.3555C39.4848 66.8604 39.3914 67.321 39.3914 67.8398C41.4431 67.8398 43.4948 67.8398 45.6086 67.8398C45.347 66.2339 45.347 66.2339 45.0289 64.6456C44.985 64.4404 44.941 64.2351 44.8957 64.0236C44.8044 63.6012 44.7119 63.179 44.6183 62.7571C44.575 62.5529 44.5316 62.3487 44.487 62.1384C44.4471 61.9557 44.4072 61.7731 44.3661 61.5849C44.2913 60.9748 44.3345 60.4828 44.4633 59.8831C44.8084 59.5017 44.8084 59.5017 45.2405 59.1682C46.2334 58.3135 46.8011 57.5315 46.9942 56.2077C47.0626 54.7315 46.7353 53.6511 45.769 52.5415C44.7807 51.5769 43.8701 51.1794 42.5205 51.025C40.9383 51.1048 39.6841 51.8222 38.737 53.0867Z" fill="url(#paint2_linear_35_131)"/>
<path d="M28.2659 8.82734L27.8588 9.20809C23.9237 13.0028 22.1722 18.1906 21.8851 23.5805C21.8655 24.4056 21.8658 25.23 21.8691 26.0553L21.8698 26.7366C21.8704 27.3258 21.872 27.9149 21.8738 28.504C21.8754 29.0665 21.8762 29.629 21.8769 30.1915L21.8771 30.3179C21.8787 31.4452 21.8816 32.5725 21.8846 33.6998L21.8851 33.8579H26.7934L26.8177 31.4737C26.8235 30.9706 26.8294 30.4675 26.8356 29.9644C26.8454 29.1685 26.8549 28.3727 26.8624 27.5769C26.8685 26.9341 26.8761 26.2914 26.8847 25.6487C26.8877 25.4054 26.8902 25.1621 26.8921 24.9188C26.9093 22.8244 27.034 20.753 27.7239 18.7629L27.8527 18.3835C28.4744 16.6175 29.3528 15.0619 30.5564 13.6345L30.8753 13.2331C33.0428 10.619 36.1382 9.04064 39.3914 8.33005L39.7743 8.24247C43.7606 7.5262 47.9594 8.44064 51.3043 10.7026C54.6918 13.2206 57.0248 16.5484 57.8119 20.7824C58.0349 22.2831 58.0988 23.7638 58.1108 25.2783C58.1138 25.5277 58.117 25.7771 58.1204 26.0265C58.1287 26.6745 58.1352 27.3225 58.1413 27.9705C58.1491 28.7525 58.1591 29.5346 58.1688 30.3166C58.1831 31.497 58.1946 32.6774 58.2066 33.8579H63.1149C63.1219 32.5792 63.1284 31.3005 63.1319 30.0217C63.1336 29.4258 63.1358 28.8299 63.1396 28.2341C63.1862 20.6762 62.1755 14.4358 56.8057 8.82734C53.0168 4.98959 47.8084 3.0004 42.5 2.96339C37.0942 3.00108 32.1737 5.0295 28.2659 8.82734Z" fill="url(#paint3_linear_35_131)" fill-opacity="0.15"/>
<defs>
<linearGradient id="paint0_linear_35_131" x1="42.5" y1="37" x2="42.5" y2="82" gradientUnits="userSpaceOnUse">
<stop stop-color="#FED76C"/>
<stop offset="1" stop-color="#FFBD5E"/>
</linearGradient>
<linearGradient id="paint1_linear_35_131" x1="42.5" y1="0" x2="42.5" y2="85" gradientUnits="userSpaceOnUse">
<stop offset="0.26" stop-color="#FED76C"/>
<stop offset="1" stop-color="#FFBC5E"/>
</linearGradient>
<linearGradient id="paint2_linear_35_131" x1="42.5" y1="0" x2="42.5" y2="85" gradientUnits="userSpaceOnUse">
<stop offset="0.26" stop-color="#FED76C"/>
<stop offset="1" stop-color="#FFBC5E"/>
</linearGradient>
<linearGradient id="paint3_linear_35_131" x1="42.5" y1="0" x2="42.5" y2="85" gradientUnits="userSpaceOnUse">
<stop offset="0.26" stop-color="#FED76C"/>
<stop offset="1" stop-color="#FFBC5E"/>
</linearGradient>
</defs>
</svg>
