<svg width="35" height="35" viewBox="0 0 35 35" fill="none" xmlns="http://www.w3.org/2000/svg">
<path d="M1.60947 24.2063C5.87218 26.2485 8.6444 26.7398 14.0219 26.8601C14.1554 29.208 14.97 31.3734 16.2716 33.1618L16.335 33.3401C9.29116 33.6503 4.0784 32.6043 1.60947 30.0612V24.2063Z" fill="url(#paint0_linear_33_72)" fill-opacity="0.15"/>
<path d="M27.7072 13.8791C27.136 13.7919 26.5518 13.7466 25.9576 13.7466C22.2617 13.7466 18.9528 15.4934 16.7332 18.2466L13.7782 18.6651L8.64235 18.048L3.03967 16.3727L1.17208 14.521V7.29106C3.70604 8.76086 4.95599 9.32403 6.93037 9.9362C10.5078 10.2526 12.4427 10.4291 14.712 10.7297L20.237 10.2889L24.3612 9.05445L27.7072 7.29106V13.8791Z" fill="url(#paint1_linear_33_72)" fill-opacity="0.15"/>
<path d="M27.4156 5.17665C27.4156 7.63297 21.6387 9.6242 14.5125 9.6242C7.38637 9.6242 1.60947 7.63297 1.60947 5.17665C1.60947 2.72034 7.38637 0.729106 14.5125 0.729106C21.6387 0.729106 27.4156 2.72034 27.4156 5.17665Z" fill="url(#paint2_linear_33_72)" fill-opacity="0.15"/>
<path fill-rule="evenodd" clip-rule="evenodd" d="M31.9587 19.3497L33.2173 20.6086C33.3764 20.7687 33.4658 20.9853 33.4658 21.211C33.4658 21.4367 33.3764 21.6533 33.2173 21.8134L32.2036 22.8273C32.4857 23.3525 32.6974 23.9128 32.8329 24.4934H34.1456C34.3722 24.4934 34.5896 24.5834 34.7497 24.7437C34.9099 24.9039 35 25.1212 35 25.3478V27.1278C35 27.3545 34.9099 27.5719 34.7497 27.732C34.5896 27.8922 34.3722 27.9824 34.1456 27.9824H32.7219C32.5487 28.5559 32.2997 29.1037 31.9814 29.6113L32.9098 30.5399C33.0698 30.7 33.1596 30.9172 33.1596 31.1436C33.1596 31.3701 33.0698 31.5872 32.9098 31.7475L31.6512 33.0063C31.4911 33.1654 31.2746 33.2548 31.0489 33.2548C30.8232 33.2548 30.6067 33.1654 30.4466 33.0063L29.4329 31.9924C28.9029 32.275 28.3381 32.4868 27.7528 32.6218V33.9348C27.7528 34.1614 27.6627 34.3787 27.5025 34.5389C27.3424 34.6992 27.125 34.7891 26.8985 34.7891H25.1103C24.8837 34.7891 24.6663 34.6992 24.5061 34.5389C24.346 34.3787 24.2559 34.1614 24.2559 33.9348V32.5107C23.6828 32.3354 23.1351 32.0855 22.627 31.7674L21.696 32.6959C21.5359 32.855 21.3194 32.9444 21.0937 32.9444C20.868 32.9444 20.6515 32.855 20.4914 32.6959L19.2327 31.437C19.0737 31.2769 18.9843 31.0603 18.9843 30.8346C18.9843 30.6089 19.0737 30.3923 19.2327 30.2322L20.2465 29.2183C19.9626 28.6899 19.7509 28.1257 19.6172 27.5408H18.3044C18.0779 27.5408 17.8606 27.4508 17.7004 27.2906C17.5402 27.1303 17.4502 26.913 17.4502 26.6864V24.9064C17.4502 24.6798 17.5402 24.4624 17.7004 24.3023C17.8606 24.142 18.0779 24.0519 18.3044 24.0519H19.7281C19.9024 23.4774 20.1523 22.9285 20.4714 22.42L19.5402 21.4916C19.3812 21.3315 19.2919 21.1149 19.2919 20.8892C19.2919 20.6634 19.3812 20.4469 19.5402 20.2868L20.7989 19.0279C20.959 18.8688 21.1755 18.7794 21.4012 18.7794C21.6269 18.7794 21.8434 18.8688 22.0035 19.0279L23.0201 20.0418C23.5489 19.7589 24.1129 19.5472 24.6974 19.4124V18.1024C24.6974 17.8758 24.7873 17.6584 24.9476 17.4981C25.1078 17.338 25.325 17.2479 25.5516 17.2479H27.3427C27.5693 17.2479 27.7865 17.338 27.9468 17.4981C28.107 17.6584 28.1969 17.8758 28.1969 18.1024V19.5263C28.7717 19.7 29.3205 19.9499 29.8287 20.2697L30.7599 19.3497C30.92 19.1898 31.1371 19.0999 31.3635 19.0999C31.5899 19.0999 31.807 19.1898 31.9673 19.3497H31.9587ZM5.13139 7.74391C7.48351 8.52997 10.7583 9.01414 14.3947 9.01414C18.0311 9.01414 21.3143 8.54422 23.6664 7.74391C25.7309 7.05467 27.0067 6.22018 27.0067 5.40279C27.0067 4.58539 25.7309 3.75376 23.6664 3.06452C21.3143 2.27846 18.0395 1.79144 14.4032 1.79144C10.7668 1.79144 7.49205 2.27846 5.13139 3.06452C0.760312 4.52559 0.637864 6.24013 5.13139 7.74391ZM14.0102 27.0567C10.3454 27.0224 7.01935 26.5069 4.57326 25.6896C3.60041 25.3834 2.67324 24.9475 1.81677 24.3937V29.7624C1.97908 30.5227 3.21779 31.2889 5.13993 31.9297C7.49205 32.7157 10.7668 33.2028 14.4032 33.2028C15.0154 33.2028 15.6191 33.2028 16.2086 33.16C16.3725 33.4197 16.5633 33.6612 16.7781 33.8807L17.7605 34.8603C16.6785 34.9516 15.548 35 14.3861 35C10.5675 35 7.09054 34.4759 4.55617 33.63C3.22064 33.1857 0 31.719 0 29.9674V29.3978C0.0170857 21.3985 0.018984 13.403 0.00569521 5.41134C0.00569521 3.73097 1.75128 2.31264 4.56187 1.36992C7.10763 0.524045 10.5846 0 14.4032 0C18.2218 0 21.6987 0.524045 24.2331 1.36992C26.7675 2.2158 28.4818 3.48034 28.7666 4.95849C28.801 5.05539 28.8183 5.15753 28.8177 5.26038V14.0495C28.3452 13.8769 27.8459 13.7892 27.3427 13.7904H27.0039C27.0052 13.7685 27.0052 13.7467 27.0039 13.7249V8.12269C26.1392 8.68492 25.2023 9.12755 24.2189 9.43851C21.6987 10.2844 18.2304 10.8227 14.4032 10.8227C10.576 10.8227 7.10763 10.2844 4.56187 9.43851C3.58886 9.13144 2.66169 8.6946 1.80538 8.13978V13.8929C1.9677 14.6562 3.20641 15.4223 5.12854 16.0631C7.48067 16.8492 10.7554 17.3362 14.3918 17.3362C15.5564 17.3362 16.687 17.2849 17.7605 17.191L17.2964 17.6581C17.2309 17.7149 17.1682 17.772 17.1055 17.8347C16.7438 18.1951 16.4497 18.6177 16.237 19.082C15.6362 19.1077 15.0211 19.122 14.4003 19.122C10.5817 19.122 7.10478 18.5979 4.57042 17.752C3.59884 17.4474 2.67266 17.0134 1.81677 16.4619V21.8305C1.97908 22.5909 3.21779 23.3541 5.13139 23.9978C7.40947 24.7555 10.5134 25.2339 13.9846 25.268V26.6921C13.9846 26.8174 13.9846 26.9428 14.0017 27.0651L14.0102 27.0567ZM26.2265 22.5197C26.9186 22.5202 27.5948 22.7261 28.17 23.1109C28.7451 23.4959 29.1933 24.0429 29.4578 24.6824C29.7221 25.3221 29.7911 26.0257 29.6558 26.7045C29.5203 27.3833 29.1868 28.0069 28.6973 28.4961C28.2077 28.9853 27.5842 29.3184 26.9053 29.4533C26.2265 29.588 25.523 29.5186 24.8837 29.2535C24.2444 28.9885 23.6979 28.5398 23.3135 27.9643C22.9291 27.3887 22.7239 26.7121 22.7239 26.02C22.7239 25.5601 22.8145 25.1047 22.9905 24.6798C23.1666 24.255 23.4247 23.8689 23.75 23.5439C24.0752 23.2188 24.4613 22.961 24.8863 22.7853C25.3112 22.6096 25.7666 22.5193 26.2265 22.5197Z" fill="url(#paint3_linear_33_72)"/>
<path d="M1.31787 16.1862C6.76688 18.5684 10.1024 19.0104 16.2243 19.0092C14.9722 20.7444 14.2129 22.8588 14.152 25.1474C14.0861 25.2688 14.0183 25.3926 13.9477 25.5187C6.4424 25.0474 3.67765 24.3116 1.31787 22.1464V16.1862Z" fill="url(#paint4_linear_33_72)" fill-opacity="0.15"/>
<defs>
<linearGradient id="paint0_linear_33_72" x1="8.77113" y1="16.1862" x2="8.77113" y2="25.5187" gradientUnits="userSpaceOnUse">
<stop offset="0.26" stop-color="#FFDB6E"/>
<stop offset="1" stop-color="#FFBC5E"/>
</linearGradient>
<linearGradient id="paint1_linear_33_72" x1="8.77113" y1="16.1862" x2="8.77113" y2="25.5187" gradientUnits="userSpaceOnUse">
<stop offset="0.26" stop-color="#FFDB6E"/>
<stop offset="1" stop-color="#FFBC5E"/>
</linearGradient>
<linearGradient id="paint2_linear_33_72" x1="8.77113" y1="16.1862" x2="8.77113" y2="25.5187" gradientUnits="userSpaceOnUse">
<stop offset="0.26" stop-color="#FFDB6E"/>
<stop offset="1" stop-color="#FFBC5E"/>
</linearGradient>
<linearGradient id="paint3_linear_33_72" x1="-2.91025" y1="2.40605" x2="24.3587" y2="32.4408" gradientUnits="userSpaceOnUse">
<stop offset="0.26" stop-color="#FFDB6E"/>
<stop offset="1" stop-color="#FFBC5E"/>
</linearGradient>
<linearGradient id="paint4_linear_33_72" x1="8.77113" y1="16.1862" x2="8.77113" y2="25.5187" gradientUnits="userSpaceOnUse">
<stop offset="0.26" stop-color="#FFDB6E"/>
<stop offset="1" stop-color="#FFBC5E"/>
</linearGradient>
</defs>
</svg>
