<svg width="234" height="234" viewBox="0 0 234 234" fill="none" xmlns="http://www.w3.org/2000/svg">
<path d="M88.112 37C103.05 37.0115 117.691 41.1785 130.397 49.0351C143.103 56.8917 153.373 68.128 160.058 81.4874C168.01 80.3276 176.117 80.8188 183.871 82.9305C191.626 85.0422 198.862 88.7291 205.128 93.7612C211.395 98.7932 216.557 105.063 220.294 112.178C224.03 119.294 226.26 127.103 226.845 135.118C227.43 143.134 226.357 151.184 223.693 158.766C221.029 166.349 216.831 173.301 211.361 179.189C205.891 185.078 199.267 189.776 191.901 192.991C184.535 196.206 176.586 197.868 168.549 197.875H88.112C66.778 197.875 46.319 189.4 31.234 174.315C16.149 159.23 7.674 138.771 7.674 117.438C7.674 96.1041 16.149 75.6446 31.234 60.5596C46.319 45.4746 66.778 37 88.112 37ZM88.112 183.25H168.549C180.186 183.25 191.345 178.627 199.573 170.399C207.802 162.171 212.424 151.011 212.424 139.375C212.424 127.739 207.802 116.579 199.573 108.351C191.345 100.123 180.186 95.5 168.549 95.5C167.544 95.5 166.538 95.5 165.542 95.6005C167.542 102.707 168.554 110.055 168.549 117.438C168.549 119.377 167.779 121.237 166.407 122.608C165.036 123.98 163.176 124.75 161.237 124.75C159.297 124.75 157.437 123.98 156.066 122.608C154.695 121.237 153.924 119.377 153.924 117.438C153.924 104.421 150.064 91.6968 142.833 80.874C135.601 70.0512 125.323 61.6159 113.297 56.6347C101.271 51.6535 88.039 50.3502 75.272 52.8896C62.506 55.429 50.779 61.697 41.575 70.901C32.371 80.1051 26.103 91.8317 23.564 104.598C21.024 117.364 22.328 130.597 27.309 142.623C32.29 154.649 40.725 164.927 51.548 172.159C62.371 179.39 75.095 183.25 88.112 183.25Z" fill="url(#paint0_linear_5_2)"/>
<path d="M88.1117 183.25H168.549C180.185 183.25 191.345 178.627 199.573 170.399C207.801 162.171 212.424 151.011 212.424 139.375C212.424 127.739 207.801 116.579 199.573 108.351C191.345 100.123 180.185 95.5 168.549 95.5C167.543 95.5 166.538 95.5 165.542 95.6005C167.541 102.707 168.553 110.055 168.549 117.438C168.549 119.377 167.778 121.237 166.407 122.608C165.036 123.98 163.176 124.75 161.236 124.75C159.297 124.75 157.437 123.98 156.066 122.608C154.694 121.237 153.924 119.377 153.924 117.438C153.924 104.421 150.064 91.6968 142.832 80.874C135.601 70.0512 125.323 61.6159 113.297 56.6347C101.271 51.6535 88.0387 50.3502 75.2717 52.8896C62.5057 55.429 50.7787 61.697 41.5747 70.901C32.3707 80.1051 26.1027 91.8317 23.5637 104.598C21.0237 117.364 22.3277 130.597 27.3087 142.623C32.2897 154.649 40.7247 164.927 51.5477 172.159C62.3707 179.39 75.0947 183.25 88.1117 183.25Z" fill="url(#paint1_linear_5_2)" fill-opacity="0.15"/>
<defs>
<linearGradient id="paint0_linear_5_2" x1="117.337" y1="37" x2="117.337" y2="197.875" gradientUnits="userSpaceOnUse">
<stop offset="0.26" stop-color="#FED76C"/>
<stop offset="1" stop-color="#FFBC5E"/>
</linearGradient>
<linearGradient id="paint1_linear_5_2" x1="117.337" y1="37" x2="117.337" y2="197.875" gradientUnits="userSpaceOnUse">
<stop offset="0.26" stop-color="#FFDB6E"/>
<stop offset="1" stop-color="#FFBC5E"/>
</linearGradient>
</defs>
</svg>
