<svg width="75" height="120" viewBox="0 0 75 120" fill="none" xmlns="http://www.w3.org/2000/svg">
<path d="M20.9448 7.09365H33.9821V34.3259H20.9448V7.09365ZM20.9448 63.0324H33.9821V90.2636H20.9448V63.0324Z" fill="#130754"/>
<path d="M20.9448 42.2739H33.9821V55.1219H20.9448V42.2739Z" fill="#FFCA00"/>
<path d="M0 29.4805H13.0373V120H0V29.4805ZM41.4564 85.5006H54.4937V112.732H41.4564V85.5006ZM41.4564 29.5126H54.4937V56.7449H41.4564V29.5126Z" fill="#130754"/>
<path d="M41.4564 64.6982H54.4937V77.5462H41.4564V64.6982Z" fill="#E70488"/>
<path d="M61.9627 0H75V90.5195H61.9627V0Z" fill="#130754"/>
<path d="M12.0371 30.4805V119H1V30.4805H12.0371ZM53.4941 86.501V111.731H42.4561V86.501H53.4941ZM74 1V89.5195H62.9629V1H74ZM32.9824 64.0322V89.2637H21.9443V64.0322H32.9824ZM53.4941 65.6982V76.5459H42.4561V65.6982H53.4941ZM53.4941 30.5127V55.7451H42.4561V30.5127H53.4941ZM32.9824 43.2734V54.1221H21.9443V43.2734H32.9824ZM32.9824 8.09375V33.3262H21.9443V8.09375H32.9824Z" stroke="white" stroke-width="2"/>
</svg>
