<svg width="118" height="118" viewBox="0 0 118 118" fill="none" xmlns="http://www.w3.org/2000/svg">
<path d="M102.603 1.00488C106.059 1.42063 109.315 3.00998 111.786 5.58008L111.813 5.60742C114.403 8.09717 116.09 11.3698 116.499 14.9277C116.49 16.2499 116.153 17.1396 115.215 19.1201C114.759 20.0817 111.604 25.6331 108.082 31.7158C104.575 37.7735 100.759 44.2669 99.0156 47.0664L99.0117 47.0723C96.8932 50.5288 95.7832 54.6418 95.7832 58.6436C95.7832 62.7542 96.8946 66.7605 99.0117 70.2148L99.0156 70.2207C100.758 73.0191 104.574 79.5383 108.081 85.623C111.602 91.732 114.759 97.3124 115.215 98.2744C116.16 100.27 116.489 101.048 116.499 102.354C116.09 105.935 114.497 109.195 111.935 111.56L111.913 111.58L111.893 111.602C109.395 114.199 106.122 115.876 102.685 116.181C101.363 116.173 100.475 115.837 98.6123 114.905C96.7255 113.962 75.9294 102.504 70.3271 99.0156L70.2881 98.9912L70.2461 98.9697L69.9834 98.8252C69.8895 98.7701 69.7847 98.707 69.6553 98.6309C69.4388 98.5035 69.1769 98.3578 68.877 98.2305L41.0928 81.793L39.3486 80.7617L39.5908 82.7725C40.2527 88.2889 42.6812 93.6077 46.6855 97.501V97.5C47.0775 97.8914 47.4695 98.2547 47.875 98.6035C47.6362 98.7319 47.3968 98.8678 47.1729 99.0156C44.3744 100.758 37.8553 104.574 31.7705 108.081C25.6622 111.602 20.0829 114.759 19.1201 115.215C17.1305 116.157 16.3487 116.49 14.9316 116.499C11.3516 116.089 8.0922 114.496 5.72754 111.935L5.70801 111.913L5.68652 111.893L5.20898 111.414C2.89843 108.999 1.39517 105.93 1.00488 102.609C1.11167 101.173 1.49837 99.7749 2.23242 98.582L2.26172 98.5361L2.28516 98.4863C2.74119 97.5237 5.89793 91.9444 9.41895 85.8359C12.9263 79.7512 16.7419 73.2321 18.4844 70.4336L18.4883 70.4277C20.6056 66.9733 21.7168 62.967 21.7168 58.8564C21.7168 55.0024 20.7399 51.2402 18.873 47.9385L18.4883 47.2852C16.7378 44.3675 12.894 37.7931 9.37891 31.6914C7.62014 28.6384 5.94541 25.7069 4.6582 23.4141C3.35117 21.0859 2.48721 19.4918 2.30273 19.0537L2.27344 18.9824L2.23242 18.918L2.09668 18.6875C1.45077 17.5476 1.10614 16.2376 1.00586 14.8936C1.42211 11.3315 3.01186 8.07685 5.58008 5.60742L5.60742 5.58008C8.07685 3.01186 11.3315 1.42211 14.8936 1.00586C16.3236 1.11256 17.7367 1.49769 19.0518 2.24902L19.0986 2.27539L19.1475 2.29688C19.5145 2.45748 20.7139 3.10929 22.5059 4.11719C24.2691 5.10889 26.5462 6.41113 29.0215 7.83789C33.9715 10.6912 39.7061 14.0357 43.6885 16.3721V16.373L45.4785 17.4268C46.0979 17.8387 46.6417 18.1659 47.1016 18.3994L47.915 18.9082L47.9248 18.915L47.9355 18.9209L76.3008 35.707L78.002 36.7139L77.8057 34.7471C77.1925 28.6146 74.2241 22.9609 69.6035 18.9062C69.8492 18.7747 70.0967 18.6365 70.3271 18.4844C73.127 16.7411 79.6476 12.8975 85.7305 9.37793C88.7696 7.61948 91.6942 5.94523 93.9834 4.6582C96.3077 3.35142 97.9019 2.48718 98.3398 2.30273L98.4111 2.27344L98.4756 2.23242C99.6657 1.50014 101.062 1.11202 102.603 1.00488ZM60.9443 50.5C59.7039 49.2596 57.7961 49.2596 56.5557 50.5L50.5 56.5557C49.2596 57.7961 49.2596 59.7039 50.5 60.9443L56.5557 67C57.7137 68.158 59.6959 68.0952 60.8955 67.0459L60.9209 67.0234L67 60.9443C68.2404 59.7039 68.2404 57.7961 67 56.5557L60.9443 50.5Z" fill="#FF694A" stroke="white" stroke-width="2"/>
</svg>
