<svg width="110" height="126" viewBox="0 0 110 126" fill="none" xmlns="http://www.w3.org/2000/svg">
<path fill-rule="evenodd" clip-rule="evenodd" d="M72.0707 42.0932V81.8743L37.9073 61.9838V22.2027L72.0707 42.0932Z" fill="#FFDB6E"/>
<path fill-rule="evenodd" clip-rule="evenodd" d="M75.8193 81.8743L110 61.9838V22.2027L75.8193 42.0932V81.8743Z" fill="#FFBC5E"/>
<path fill-rule="evenodd" clip-rule="evenodd" d="M0 39.7821L34.1645 59.6705V19.8905L0 0V39.7821ZM72.0708 86.2362L37.9075 66.3457V106.109L72.0708 126V86.2362Z" fill="#FFDB6E"/>
<path d="M71.0713 86.8115V124.26L38.9072 105.534V68.085L71.0713 86.8115ZM109 61.4082L76.8193 80.1348V42.668L109 23.9414V61.4082ZM71.0703 42.667V80.1338L38.9072 61.4082V23.9424L71.0703 42.667ZM33.1641 20.4648V57.9307L1 39.207V1.73926L33.1641 20.4648Z" stroke="white" stroke-width="2"/>
</svg>
