<svg width="131" height="129" viewBox="0 0 131 129" fill="none" xmlns="http://www.w3.org/2000/svg">
<path d="M114.391 1.00391C118.28 1.46099 121.941 3.22116 124.718 6.06445L124.745 6.0918C127.65 8.84292 129.541 12.4574 129.998 16.3857C129.989 17.859 129.607 18.8502 128.56 21.0273C128.05 22.0866 124.529 28.1871 120.604 34.8633C116.694 41.5137 112.437 48.6437 110.493 51.7188L110.489 51.7246C108.137 55.5043 106.903 60.0048 106.903 64.3838C106.903 68.8823 108.138 73.2646 110.489 77.042L110.493 77.0479C112.437 80.1217 116.692 87.28 120.603 93.96C124.527 100.664 128.049 106.795 128.56 107.855C129.616 110.051 129.989 110.919 129.998 112.38C129.54 116.329 127.756 119.93 124.879 122.545L124.856 122.564L124.836 122.586C122.035 125.455 118.359 127.313 114.49 127.649C112.98 127.642 111.968 127.263 109.885 126.237C107.778 125.2 84.59 112.618 78.3408 108.786L78.3018 108.762L78.2598 108.741C78.0635 108.645 77.8789 108.53 77.5947 108.365C77.3519 108.225 77.0611 108.065 76.7295 107.928L45.749 89.8789L44.0098 88.8662L44.2529 90.8643C44.9657 96.7159 47.5227 102.359 51.7236 106.575L52.1348 106.979C52.6023 107.438 53.0705 107.862 53.5566 108.27C53.2516 108.427 52.9453 108.6 52.6592 108.786C49.5373 110.7 42.2678 114.891 35.4844 118.741C28.677 122.605 22.4495 126.074 21.3711 126.577C19.1471 127.614 18.2544 127.991 16.6348 127.999C12.6129 127.546 8.95226 125.784 6.29688 122.951L6.27637 122.93L6.25488 122.909L5.9834 122.647C3.23939 119.939 1.45436 116.44 1.00488 112.648C1.12444 111.06 1.55946 109.511 2.3877 108.186L2.41699 108.139L2.44141 108.089C2.95227 107.027 6.47359 100.897 10.3975 94.1934C14.3076 87.5133 18.5632 80.3552 20.5068 77.2812L20.5107 77.2754C22.862 73.4981 24.0967 69.115 24.0967 64.6162C24.0966 60.1179 22.8619 55.7355 20.5107 51.958C18.5588 48.7541 14.2728 41.5353 10.3535 34.8359C8.39262 31.4841 6.52517 28.2656 5.08984 25.748C3.63414 23.1947 2.66714 21.438 2.45898 20.9512L2.42871 20.8799L2.3877 20.8145C1.55932 19.4888 1.12429 17.9391 1.00488 16.3506C1.46949 12.4185 3.25219 8.82231 6.13574 6.0918L6.15039 6.07812L6.16406 6.06445C8.93794 3.22376 12.5964 1.46203 16.6025 1.00391C18.2183 1.12125 19.8167 1.55092 21.3037 2.3877L21.3496 2.41406L21.3984 2.43457C21.8146 2.61382 23.1583 3.33254 25.1533 4.4375C27.1198 5.52662 29.6589 6.95776 32.4189 8.52441C37.9383 11.6573 44.3322 15.3294 48.7725 17.8945L50.7617 19.0469C51.4564 19.5023 52.0626 19.8621 52.5723 20.1172L53.4873 20.6797L53.4971 20.6865L53.5078 20.6924L85.1318 39.1211L86.8291 40.1104L86.6309 38.1562C85.9448 31.4011 82.608 25.1797 77.4209 20.7402C77.7422 20.5746 78.0662 20.3942 78.3662 20.1973C81.5037 18.2748 88.7545 14.0682 95.5176 10.2148C98.9061 8.28416 102.167 6.44552 104.72 5.03223C107.307 3.59963 109.093 2.64622 109.589 2.44043L109.659 2.41113L109.725 2.37207C111.073 1.55467 112.653 1.12199 114.391 1.00391ZM67.8594 55.5059C66.5226 54.19 64.4774 54.19 63.1406 55.5059L56.3887 62.1543C55.0433 63.4791 55.043 65.5211 56.3887 66.8457L63.1406 73.4941C64.3827 74.717 66.5152 74.6549 67.8105 73.5391L67.8359 73.5176L67.8594 73.4941L74.6113 66.8457C75.957 65.5211 75.9567 63.4791 74.6113 62.1543L67.8594 55.5059Z" fill="#FFDB6E" stroke="white" stroke-width="2"/>
</svg>
