<svg width="130" height="130" viewBox="0 0 130 130" fill="none" xmlns="http://www.w3.org/2000/svg">
<path d="M4.03157 127.502L64.3602 65.6621C64.5464 65.4781 64.6619 65.2345 64.6866 64.9738C64.7112 64.7132 64.6434 64.4522 64.495 64.2366C60.8265 59.1148 54.0571 58.2266 51.5481 54.785C44.117 44.591 42.2314 38.8199 39.0377 39.1781C38.8149 39.2101 38.6099 39.3182 38.4577 39.4841L16.6652 61.8245C4.12708 74.6664 2.32542 102.972 2.00001 126.676C1.99893 126.912 2.06848 127.143 2.1997 127.339C2.33091 127.534 2.51779 127.687 2.73628 127.776C2.95476 127.864 3.19484 127.886 3.42561 127.837C3.65638 127.788 3.86771 127.672 4.03157 127.502Z" fill="#FFBC5E"/>
<path d="M127.494 125.975L65.6547 65.6412C65.4706 65.4545 65.2266 65.3386 64.9655 65.314C64.7044 65.2893 64.443 65.3574 64.2272 65.5064C59.1055 69.177 58.2173 75.9444 54.7757 78.4535C44.5819 85.8847 38.8108 87.7703 39.169 90.964C39.2015 91.1861 39.3096 91.3902 39.475 91.5419L61.8151 113.335C74.6569 125.873 102.962 127.675 126.666 128C126.9 128 127.13 127.93 127.325 127.8C127.52 127.669 127.671 127.483 127.76 127.266C127.849 127.049 127.871 126.81 127.824 126.58C127.776 126.35 127.662 126.139 127.494 125.975Z" fill="#FFBC5E"/>
<path d="M61.8193 113.335C54.7992 106.486 51.5461 92.9382 64.9998 65.0003C43.1279 74.7751 35.464 87.6235 39.2329 91.3022L61.8193 113.335Z" fill="#FFDB6E"/>
<path d="M125.966 2.50752L65.6399 64.3478C65.4533 64.5316 65.3375 64.7753 65.3128 65.036C65.2881 65.2967 65.3562 65.5578 65.505 65.7733C69.1756 70.8951 75.9409 71.7833 78.4519 75.2249C85.8831 85.4189 87.7707 91.19 90.9623 90.8318C91.1853 90.8001 91.3903 90.6919 91.5423 90.5258L113.335 68.1854C125.873 55.3435 127.675 27.0376 128 3.33405C128 3.09821 127.93 2.86761 127.799 2.67183C127.667 2.47606 127.48 2.32403 127.262 2.23526C127.043 2.14648 126.803 2.125 126.573 2.17358C126.342 2.22215 126.131 2.3382 125.966 2.50752Z" fill="#FFBC5E"/>
<path d="M113.347 68.185C106.498 75.2052 92.9504 78.4583 65.0109 65.0045C74.7855 86.8766 87.6337 94.5407 91.3124 90.7716L113.347 68.185Z" fill="#FFDB6E"/>
<path d="M2.50136 4.03359L64.3409 64.3609C64.5249 64.5471 64.7685 64.6627 65.0291 64.6873C65.2897 64.712 65.5507 64.6442 65.7664 64.4958C70.8881 60.8251 71.7763 54.0577 75.2179 51.5487C85.4117 44.1175 91.1828 42.2319 90.8246 39.0382C90.792 38.8155 90.684 38.6107 90.5185 38.4581L68.1784 16.6654C55.3367 4.12711 27.0311 2.32544 3.32788 2.00003C3.09155 1.99849 2.8602 2.06786 2.66372 2.19919C2.46723 2.33051 2.31465 2.51775 2.22569 2.7367C2.13673 2.95565 2.11548 3.19624 2.16469 3.4274C2.2139 3.65855 2.33094 3.86986 2.50136 4.03359Z" fill="#FFBC5E"/>
<path d="M68.1886 16.6676C75.2087 23.5167 78.4618 37.0645 65.0081 65.0043C86.8799 55.2295 94.5439 42.3792 90.7749 38.7024L68.1886 16.6676Z" fill="#FFDB6E"/>
<path d="M16.6652 61.8245C23.5142 54.8043 37.0624 51.5513 65.0019 65.0051C55.2273 43.133 42.3791 35.4689 38.7004 39.238L16.6652 61.8245Z" fill="#FFDB6E"/>
<path d="M65.0109 67.6911C66.5002 67.6911 67.7076 66.4838 67.7076 64.9944C67.7076 63.505 66.5002 62.2976 65.0109 62.2976C63.5215 62.2976 62.3141 63.505 62.3141 64.9944C62.3141 66.4838 63.5215 67.6911 65.0109 67.6911Z" fill="#4A4848"/>
<path d="M3.3418 1C15.203 1.16284 28.2721 1.69545 40 3.76855C51.6955 5.83595 62.2327 9.46349 68.876 15.9492L68.8828 15.9551L68.8867 15.9521L90.6973 37.2285L125.248 1.8125V1.81152C125.552 1.49834 125.942 1.28472 126.366 1.19531C126.792 1.1057 127.236 1.14481 127.639 1.30859C128.042 1.47237 128.386 1.75315 128.629 2.11426C128.872 2.47544 129.001 2.90085 129 3.33594V3.34766C128.837 15.2091 128.305 28.2787 126.231 40.0068C124.165 51.6993 120.538 62.2333 114.056 68.877L114.062 68.8838L92.7744 90.7041L128.192 125.259L128.194 125.261C128.505 125.566 128.716 125.956 128.803 126.378C128.89 126.802 128.85 127.243 128.686 127.645C128.522 128.046 128.242 128.388 127.882 128.63C127.522 128.871 127.098 129 126.665 129H126.652C114.791 128.837 101.721 128.305 89.9932 126.231C78.2976 124.164 67.7604 120.537 61.1172 114.051L39.3066 92.7744L4.75 128.196C4.44644 128.511 4.05716 128.726 3.63281 128.815C3.20669 128.905 2.76279 128.866 2.35938 128.702C1.95597 128.538 1.61143 128.256 1.36914 127.895C1.12686 127.533 0.998007 127.106 1 126.671V126.662C1.16284 114.801 1.69543 101.731 3.76855 90.0029C5.83599 78.307 9.46322 67.7693 15.9492 61.126C15.955 61.1201 15.961 61.1143 15.9668 61.1084L16.6299 60.4287L37.2295 39.3105L1.80273 4.74902L1.80371 4.74805C1.49131 4.44567 1.27657 4.05861 1.18652 3.63574C1.09568 3.20901 1.13464 2.76457 1.29883 2.36035C1.46309 1.95608 1.7456 1.61065 2.1084 1.36816C2.47107 1.12579 2.89779 0.997242 3.33398 1H3.3418Z" stroke="white" stroke-width="2"/>
</svg>
