<svg width="102" height="117" viewBox="0 0 102 117" fill="none" xmlns="http://www.w3.org/2000/svg">
<path fill-rule="evenodd" clip-rule="evenodd" d="M66.699 38.977V75.813L35.082 57.395V20.559L66.699 38.977Z" fill="#5C4EE5"/>
<path fill-rule="evenodd" clip-rule="evenodd" d="M70.168 75.813L101.801 57.395V20.559L70.168 38.977V75.813Z" fill="#4040B2"/>
<path fill-rule="evenodd" clip-rule="evenodd" d="M0 36.837L31.618 55.253V18.418L0 0V36.837ZM66.699 79.852L35.082 61.434V98.254L66.699 116.672V79.852Z" fill="#5C4EE5"/>
<path d="M65.6992 80.4268V114.932L36.082 97.6787V63.1729L65.6992 80.4268ZM65.6992 39.5518V74.0732L36.082 56.8203V22.2979L65.6992 39.5518ZM100.801 56.8203L71.168 74.0732V39.5508L100.801 22.2979V56.8203ZM30.6182 18.9932V53.5127L1 36.2617V1.73926L30.6182 18.9932Z" stroke="white" stroke-width="2"/>
</svg>
