<svg width="128" height="127" viewBox="0 0 128 127" fill="none" xmlns="http://www.w3.org/2000/svg">
<mask id="path-1-inside-1_8_57" fill="white">
<path fill-rule="evenodd" clip-rule="evenodd" d="M124.01 54.8504L108.85 63.5059L124.01 72.1378C125.22 72.8195 126.227 73.8108 126.928 75.0102C127.63 76.2097 127.999 77.5741 128 78.9636C128 80.3527 127.631 81.7218 126.929 82.9203C124.7 86.6626 119.817 87.9526 116.029 85.7976L88.8791 70.3202C87.1386 69.3389 85.841 67.7265 85.2541 65.8158C84.988 64.9881 84.8659 64.1208 84.8931 63.2518C84.9128 62.6288 85.0039 62.0097 85.1706 61.3868C85.7139 59.4618 86.9831 57.7357 88.8673 56.6481L116.01 41.1903C119.801 39.0274 124.696 40.3253 126.913 44.0873C129.138 47.8578 127.837 52.6678 124.01 54.8504ZM109.655 96.7946L82.5248 81.3453C81.1238 80.5389 79.5105 80.1789 77.8998 80.3133C73.7827 80.5873 70.5343 84.04 70.5143 88.1711V119.111C70.5143 123.476 74.0723 127 78.4948 127C82.9134 127 86.4831 123.468 86.4831 119.111V101.807L101.674 110.462C105.458 112.637 110.361 111.347 112.578 107.585C114.78 103.815 113.482 98.9734 109.655 96.7905L109.655 96.7946ZM78.3442 66.5343L67.0639 77.6545C66.6765 78.0132 66.1751 78.224 65.6479 78.2497H62.336C61.8113 78.2177 61.3132 78.0078 60.9238 77.6545L49.6432 66.5343C49.2941 66.1527 49.0881 65.6618 49.0603 65.1452V61.8671C49.088 61.3458 49.2938 60.8499 49.6432 60.4624L60.9159 49.3384C61.3063 48.9884 61.8046 48.7825 62.328 48.7549H65.6479C66.1732 48.7789 66.6738 48.9853 67.0636 49.3384L78.3442 60.4624C78.6937 60.8499 78.8996 61.3458 78.9274 61.8671V65.1452C78.9274 65.5817 78.6696 66.2167 78.3442 66.5343ZM69.3288 63.4467C69.2934 62.9242 69.0822 62.429 68.7297 62.0418L65.4654 58.8271C65.073 58.4778 64.5738 58.2722 64.0494 58.2439H63.9186C63.3977 58.2723 62.9023 58.4781 62.5144 58.8271L59.2501 62.0418C58.9046 62.4309 58.703 62.9268 58.6789 63.4467V63.5738C58.6789 64.022 58.9288 64.6452 59.2498 64.9626L62.5144 68.1852C62.8395 68.5028 63.4662 68.7725 63.9186 68.7725H64.0492C64.5736 68.741 65.0724 68.5341 65.4654 68.1852L68.7297 64.9629C69.0825 64.5822 69.294 64.0918 69.3288 63.5738V63.4467ZM18.3325 30.1855L45.4706 45.6552C46.8758 46.4583 48.4906 46.8179 50.1035 46.687C54.2244 46.4052 57.4691 42.9485 57.4929 38.8171V7.88166C57.4929 3.53227 53.9152 0 49.5124 0C45.0938 0 41.524 3.53227 41.524 7.88166V25.1929L26.3209 16.5174C22.5328 14.3504 17.6382 15.6445 15.4171 19.4027C14.7141 20.6042 14.3431 21.9712 14.3422 23.3635C14.3422 26.1888 15.8731 28.8043 18.3325 30.1893V30.1855ZM77.9001 46.687C79.5106 46.8196 81.1234 46.4598 82.525 45.6552L109.655 30.1893C110.865 29.5056 111.872 28.5126 112.574 27.3119C113.275 26.1113 113.645 24.7459 113.646 23.3553C113.646 21.9664 113.277 20.6012 112.579 19.4027C110.353 15.6483 105.463 14.3545 101.675 16.5174L86.4834 25.1929V7.88166C86.4834 3.53227 82.9137 0 78.495 0C74.0725 0 70.5146 3.53227 70.5146 7.88166V38.8133C70.5028 42.9682 73.7592 46.3814 77.9003 46.6829L77.9001 46.687ZM50.1035 80.3089C48.4902 80.1727 46.8737 80.5328 45.4706 81.3412L18.3325 96.7905C17.122 97.4759 16.1149 98.4703 15.4139 99.6723C14.7129 100.874 14.3431 102.241 14.3422 103.632C14.3422 105.022 14.7111 106.387 15.4092 107.585C17.6382 111.336 22.5287 112.625 26.313 110.459L41.5161 101.803V119.106C41.5161 123.472 45.0858 126.996 49.5045 126.996C53.9073 126.996 57.4849 123.464 57.4849 119.106V88.1706C57.4732 84.0394 54.2244 80.5827 50.1074 80.3089H50.1035ZM42.7459 65.8158C43.0069 64.987 43.1275 64.1204 43.1028 63.2518C43.0574 61.8997 42.665 60.582 41.9634 59.4255C41.2618 58.269 40.2745 57.3126 39.0966 56.6483L11.9826 41.1944C8.15479 39.0197 3.27226 40.3094 1.07881 44.0914C-1.1382 47.8617 0.174339 52.6716 4.00213 54.8543L19.1576 63.51L3.99419 72.1417C1.53091 73.5266 0 76.1422 0 78.9677C0 80.3607 0.368647 81.7259 1.07087 82.9244C3.29991 86.6747 8.18653 87.9647 11.9746 85.8017L39.0969 70.324C40.9375 69.2923 42.1748 67.657 42.7459 65.8197V65.8158Z"/>
</mask>
<path fill-rule="evenodd" clip-rule="evenodd" d="M124.01 54.8504L108.85 63.5059L124.01 72.1378C125.22 72.8195 126.227 73.8108 126.928 75.0102C127.63 76.2097 127.999 77.5741 128 78.9636C128 80.3527 127.631 81.7218 126.929 82.9203C124.7 86.6626 119.817 87.9526 116.029 85.7976L88.8791 70.3202C87.1386 69.3389 85.841 67.7265 85.2541 65.8158C84.988 64.9881 84.8659 64.1208 84.8931 63.2518C84.9128 62.6288 85.0039 62.0097 85.1706 61.3868C85.7139 59.4618 86.9831 57.7357 88.8673 56.6481L116.01 41.1903C119.801 39.0274 124.696 40.3253 126.913 44.0873C129.138 47.8578 127.837 52.6678 124.01 54.8504ZM109.655 96.7946L82.5248 81.3453C81.1238 80.5389 79.5105 80.1789 77.8998 80.3133C73.7827 80.5873 70.5343 84.04 70.5143 88.1711V119.111C70.5143 123.476 74.0723 127 78.4948 127C82.9134 127 86.4831 123.468 86.4831 119.111V101.807L101.674 110.462C105.458 112.637 110.361 111.347 112.578 107.585C114.78 103.815 113.482 98.9734 109.655 96.7905L109.655 96.7946ZM78.3442 66.5343L67.0639 77.6545C66.6765 78.0132 66.1751 78.224 65.6479 78.2497H62.336C61.8113 78.2177 61.3132 78.0078 60.9238 77.6545L49.6432 66.5343C49.2941 66.1527 49.0881 65.6618 49.0603 65.1452V61.8671C49.088 61.3458 49.2938 60.8499 49.6432 60.4624L60.9159 49.3384C61.3063 48.9884 61.8046 48.7825 62.328 48.7549H65.6479C66.1732 48.7789 66.6738 48.9853 67.0636 49.3384L78.3442 60.4624C78.6937 60.8499 78.8996 61.3458 78.9274 61.8671V65.1452C78.9274 65.5817 78.6696 66.2167 78.3442 66.5343ZM69.3288 63.4467C69.2934 62.9242 69.0822 62.429 68.7297 62.0418L65.4654 58.8271C65.073 58.4778 64.5738 58.2722 64.0494 58.2439H63.9186C63.3977 58.2723 62.9023 58.4781 62.5144 58.8271L59.2501 62.0418C58.9046 62.4309 58.703 62.9268 58.6789 63.4467V63.5738C58.6789 64.022 58.9288 64.6452 59.2498 64.9626L62.5144 68.1852C62.8395 68.5028 63.4662 68.7725 63.9186 68.7725H64.0492C64.5736 68.741 65.0724 68.5341 65.4654 68.1852L68.7297 64.9629C69.0825 64.5822 69.294 64.0918 69.3288 63.5738V63.4467ZM18.3325 30.1855L45.4706 45.6552C46.8758 46.4583 48.4906 46.8179 50.1035 46.687C54.2244 46.4052 57.4691 42.9485 57.4929 38.8171V7.88166C57.4929 3.53227 53.9152 0 49.5124 0C45.0938 0 41.524 3.53227 41.524 7.88166V25.1929L26.3209 16.5174C22.5328 14.3504 17.6382 15.6445 15.4171 19.4027C14.7141 20.6042 14.3431 21.9712 14.3422 23.3635C14.3422 26.1888 15.8731 28.8043 18.3325 30.1893V30.1855ZM77.9001 46.687C79.5106 46.8196 81.1234 46.4598 82.525 45.6552L109.655 30.1893C110.865 29.5056 111.872 28.5126 112.574 27.3119C113.275 26.1113 113.645 24.7459 113.646 23.3553C113.646 21.9664 113.277 20.6012 112.579 19.4027C110.353 15.6483 105.463 14.3545 101.675 16.5174L86.4834 25.1929V7.88166C86.4834 3.53227 82.9137 0 78.495 0C74.0725 0 70.5146 3.53227 70.5146 7.88166V38.8133C70.5028 42.9682 73.7592 46.3814 77.9003 46.6829L77.9001 46.687ZM50.1035 80.3089C48.4902 80.1727 46.8737 80.5328 45.4706 81.3412L18.3325 96.7905C17.122 97.4759 16.1149 98.4703 15.4139 99.6723C14.7129 100.874 14.3431 102.241 14.3422 103.632C14.3422 105.022 14.7111 106.387 15.4092 107.585C17.6382 111.336 22.5287 112.625 26.313 110.459L41.5161 101.803V119.106C41.5161 123.472 45.0858 126.996 49.5045 126.996C53.9073 126.996 57.4849 123.464 57.4849 119.106V88.1706C57.4732 84.0394 54.2244 80.5827 50.1074 80.3089H50.1035ZM42.7459 65.8158C43.0069 64.987 43.1275 64.1204 43.1028 63.2518C43.0574 61.8997 42.665 60.582 41.9634 59.4255C41.2618 58.269 40.2745 57.3126 39.0966 56.6483L11.9826 41.1944C8.15479 39.0197 3.27226 40.3094 1.07881 44.0914C-1.1382 47.8617 0.174339 52.6716 4.00213 54.8543L19.1576 63.51L3.99419 72.1417C1.53091 73.5266 0 76.1422 0 78.9677C0 80.3607 0.368647 81.7259 1.07087 82.9244C3.29991 86.6747 8.18653 87.9647 11.9746 85.8017L39.0969 70.324C40.9375 69.2923 42.1748 67.657 42.7459 65.8197V65.8158Z" fill="#FFDB6E" stroke="white" stroke-width="4" mask="url(#path-1-inside-1_8_57)"/>
</svg>
