<svg width="126" height="127" viewBox="0 0 126 127" fill="none" xmlns="http://www.w3.org/2000/svg">
<path d="M62.249 0.000975866C57.0528 0.0255153 52.093 0.465998 47.7263 1.23654C34.8651 3.50153 32.5317 8.24255 32.5317 16.9872V28.5342H62.9222V32.3832H21.1252C12.2934 32.3832 4.55951 37.6752 2.13988 47.7462C-0.651425 59.2859 -0.774499 66.4882 2.13988 78.5383C4.29982 87.5087 9.45906 93.8988 18.2921 93.8988H28.7422V80.0561C28.7422 70.055 37.4201 61.2343 47.7276 61.2343H78.0836C86.5339 61.2343 93.2783 54.297 93.2783 45.8382V16.9884C93.2783 8.77629 86.3296 2.60829 78.0836 1.23776C72.8604 0.371522 67.4439 -0.0223366 62.249 0.000975866ZM45.8138 9.28793C48.9521 9.28793 51.517 11.8854 51.517 15.0805C51.517 18.262 48.9534 20.835 45.8138 20.835C42.6631 20.835 40.1118 18.262 40.1118 15.0805C40.1105 11.8854 42.6631 9.28793 45.8138 9.28793Z" fill="url(#paint0_linear_8_40)"/>
<path d="M97.0677 32.3832V45.8382C97.0677 56.2675 88.1966 65.0465 78.0824 65.0465H47.7263C39.4115 65.0465 32.5317 72.1421 32.5317 80.4438V109.296C32.5317 117.506 39.6921 122.336 47.7263 124.691C57.3458 127.509 66.5713 128.02 78.0824 124.691C85.7327 122.481 93.2771 118.037 93.2771 109.296V97.7478H62.9222V93.8975H108.474C117.306 93.8975 120.599 87.7565 123.671 78.5371C126.844 69.0464 126.708 59.919 123.671 47.745C121.488 38.9782 117.319 32.382 108.474 32.382L97.0677 32.3832ZM79.9937 105.446C83.1457 105.446 85.697 108.019 85.697 111.203C85.697 114.395 83.1444 116.993 79.9937 116.993C76.8554 116.993 74.2918 114.395 74.2918 111.203C74.2918 108.019 76.8554 105.446 79.9937 105.446Z" fill="url(#paint1_linear_8_40)"/>
<path d="M108.475 33.3818C112.609 33.3819 115.59 34.9068 117.821 37.4375C120.089 40.0086 121.626 43.6704 122.701 47.9863V47.9873C125.707 60.0379 125.818 68.9616 122.723 78.2197V78.2207C121.188 82.8258 119.646 86.4971 117.475 89.0225C115.36 91.4812 112.61 92.8974 108.475 92.8975H61.9219V98.748H92.2773V109.296C92.2773 113.334 90.5511 116.369 87.8916 118.689C85.3714 120.888 82.0116 122.441 78.5078 123.521L77.8047 123.73C66.491 127.002 57.4598 126.501 48.0078 123.731C40.0543 121.401 33.5312 116.784 33.5312 109.296V80.4434C33.5315 72.6763 39.9818 66.0469 47.7266 66.0469H78.082C88.7529 66.0469 98.0674 56.815 98.0674 45.8379V33.3818H108.475ZM79.9941 104.446C76.2962 104.446 73.292 107.474 73.292 111.203C73.2922 114.934 76.2898 117.993 79.9941 117.993C83.7117 117.993 86.6971 114.933 86.6973 111.203C86.6973 107.476 83.7067 104.447 79.9941 104.446ZM62.2539 1.00098C67.0754 0.979361 72.0873 1.32105 76.9492 2.06934L77.9199 2.22461C85.8416 3.54137 92.2782 9.41009 92.2783 16.9883V45.8379C92.2783 53.7611 85.9651 60.2342 78.084 60.2344H47.7275C36.8687 60.2344 27.7424 69.5018 27.7422 80.0557V92.8984H18.292C14.1442 92.8984 10.9035 91.4095 8.42773 88.8828C5.92963 86.3332 4.16541 82.6773 3.1123 78.3037V78.3027L2.84961 77.1973C1.58366 71.7356 0.985903 67.3071 1 62.9541C1.01504 58.3107 1.72708 53.7082 3.1123 47.9814V47.9795C5.42028 38.3737 12.7396 33.3829 21.125 33.3828H63.9219V27.5342H33.5312V16.9873C33.5312 12.6684 34.1186 9.60917 36.0664 7.33203C38.0268 5.0403 41.537 3.34222 47.8994 2.22168H47.9004C52.2062 1.4619 57.1092 1.02527 62.2539 1.00098ZM45.8135 8.28809C42.0958 8.28824 39.1103 11.3481 39.1113 15.0801C39.1113 18.8054 42.1022 21.8348 45.8135 21.835C49.5122 21.835 52.5166 18.807 52.5166 15.0801C52.5164 11.3468 49.5178 8.28809 45.8135 8.28809Z" stroke="white" stroke-width="2"/>
<defs>
<linearGradient id="paint0_linear_8_40" x1="93.4202" y1="100.25" x2="68.385" y2="65.0344" gradientUnits="userSpaceOnUse">
<stop stop-color="#FFDB6E"/>
</linearGradient>
<linearGradient id="paint1_linear_8_40" x1="93.4202" y1="100.25" x2="68.385" y2="65.0344" gradientUnits="userSpaceOnUse">
<stop stop-color="#FFBC5E"/>
</linearGradient>
</defs>
</svg>
