<svg width="137" height="107" viewBox="0 0 137 107" fill="none" xmlns="http://www.w3.org/2000/svg">
<path d="M108.444 32.29C109.446 32.9333 116.474 37.2426 117.735 45.7461L117.885 46.75L118.887 46.5859C120.748 46.2809 122.667 46.1035 124.512 46.1035C131.632 46.1035 134.851 48.5329 135.072 48.709L135.097 48.7275L135.121 48.7451L135.802 49.2227L135.503 50.0625C134.593 52.1513 133.349 53.9897 131.695 55.4678L131.68 55.4814L131.665 55.4961C129.167 57.92 124.582 60.8057 117.052 60.8057H115.105L114.854 61.4326C111.762 69.1206 107.557 77.7121 100.494 85.3857L100.491 85.3887C96.3044 89.9751 91.3713 93.8949 85.8672 96.9785C79.1758 100.662 71.912 103.211 64.3281 104.539H64.3262C58.8529 105.509 53.3141 106 47.7871 106C35.4823 106 24.6944 103.736 18.1797 99.8789H18.1787C12.6115 96.5657 8.20475 91.1647 5.16406 83.834L4.87402 83.1191C2.19056 76.0541 0.887334 68.577 1.00781 61.0898V61.0732C1.00783 59.3838 2.4347 57.957 4.26758 57.957H94.5342L94.5625 57.9551C95.1635 57.9212 96.8592 57.7938 98.8408 57.4385C100.804 57.0864 103.139 56.4957 104.966 55.4961L105.913 54.9775L105.324 54.0732C102.684 50.0179 101.896 45.273 103.17 40.1846C103.831 37.5469 104.996 34.952 106.515 32.6533L107.252 31.6191L108.444 32.29ZM12.6748 42.9033H24.75C24.7773 42.9033 24.7934 42.908 24.8008 42.9111C24.8088 42.9145 24.8148 42.9192 24.8193 42.9238C24.83 42.9347 24.832 42.945 24.832 42.9482V53.3896C24.832 53.3965 24.8315 53.4007 24.8311 53.4023C24.8311 53.4024 24.8296 53.405 24.8252 53.4092C24.812 53.4214 24.7841 53.4355 24.75 53.4355H12.6748C12.6612 53.4355 12.6544 53.4334 12.6523 53.4326C12.6504 53.4318 12.6464 53.4294 12.6406 53.4238C12.6317 53.4152 12.6059 53.3833 12.5928 53.3115V42.9482C12.5928 42.9407 12.5934 42.9369 12.5938 42.9355C12.5941 42.935 12.5956 42.9324 12.5996 42.9287C12.6129 42.9165 12.6408 42.9033 12.6748 42.9033ZM29.3223 42.9033H41.3975C41.4243 42.9033 41.4397 42.908 41.4473 42.9111C41.4555 42.9146 41.4622 42.9192 41.4668 42.9238C41.4775 42.9347 41.4795 42.945 41.4795 42.9482V53.3896C41.4795 53.3968 41.4779 53.4008 41.4775 53.4023C41.4778 53.4018 41.4775 53.4046 41.4727 53.4092C41.4594 53.4214 41.4315 53.4355 41.3975 53.4355H29.3223C29.3089 53.4355 29.302 53.4335 29.2998 53.4326C29.2978 53.4318 29.2938 53.4294 29.2881 53.4238C29.2792 53.4153 29.2535 53.3842 29.2402 53.3145V42.9482C29.2402 42.9407 29.2408 42.9368 29.2412 42.9355C29.2416 42.9349 29.2432 42.9323 29.2471 42.9287C29.2604 42.9165 29.2883 42.9033 29.3223 42.9033ZM46.293 42.9033H58.3682C58.395 42.9033 58.4104 42.908 58.418 42.9111C58.4262 42.9146 58.4329 42.9192 58.4375 42.9238C58.4482 42.9347 58.4502 42.945 58.4502 42.9482V53.3896C58.4502 53.3968 58.4486 53.4008 58.4482 53.4023C58.4485 53.4018 58.4482 53.4046 58.4434 53.4092C58.4301 53.4214 58.4023 53.4355 58.3682 53.4355H46.293C46.2501 53.4355 46.2249 53.4278 46.2139 53.4238L46.2109 53.3896V42.9482C46.2109 42.9407 46.2115 42.9368 46.2119 42.9355C46.2123 42.9349 46.2139 42.9323 46.2178 42.9287C46.2311 42.9165 46.259 42.9033 46.293 42.9033ZM63.0068 42.9033H75.083C75.1101 42.9034 75.1254 42.908 75.1328 42.9111C75.141 42.9146 75.1468 42.9192 75.1514 42.9238C75.1622 42.9348 75.1641 42.945 75.1641 42.9482V53.3896C75.1641 53.3966 75.1635 53.4008 75.1631 53.4023C75.1631 53.4023 75.1618 53.4049 75.1572 53.4092C75.144 53.4214 75.1169 53.4354 75.083 53.4355H63.0068C62.9644 53.4355 62.9393 53.42 62.9307 53.4121C62.9289 53.4105 62.9281 53.4087 62.9277 53.4082H62.9268C62.9267 53.4079 62.927 53.4064 62.9268 53.4053C62.9263 53.4032 62.9248 53.398 62.9248 53.3896V42.9482C62.9248 42.9368 62.9273 42.9341 62.9268 42.9355C62.9273 42.9347 62.9291 42.932 62.9326 42.9287C62.946 42.9165 62.9731 42.9033 63.0068 42.9033ZM79.8438 42.9033H91.9199C91.947 42.9034 91.9623 42.908 91.9697 42.9111C91.9779 42.9146 91.9837 42.9192 91.9883 42.9238C91.9991 42.9348 92.001 42.945 92.001 42.9482V53.3896C92.001 53.3966 92.0004 53.4008 92 53.4023C92 53.4023 91.9987 53.4049 91.9941 53.4092C91.981 53.4214 91.9538 53.4354 91.9199 53.4355H79.8438C79.8296 53.4355 79.8231 53.4333 79.8213 53.4326C79.8193 53.4318 79.8154 53.4294 79.8096 53.4238C79.8005 53.415 79.7748 53.383 79.7617 53.3115V42.9482C79.7617 42.9368 79.7642 42.9341 79.7637 42.9355C79.7642 42.9347 79.766 42.932 79.7695 42.9287C79.7829 42.9166 79.81 42.9033 79.8438 42.9033ZM29.3223 27.9785H41.3975C41.4242 27.9785 41.4397 27.9832 41.4473 27.9863C41.4555 27.9898 41.4622 27.9944 41.4668 27.999C41.4773 28.0097 41.4794 28.02 41.4795 28.0234V38.4443C41.4763 38.4504 41.4703 38.4627 41.457 38.4756C41.4418 38.4903 41.4246 38.5001 41.4111 38.5059C41.3986 38.5112 41.394 38.5108 41.3975 38.5107H29.3252C29.3219 38.5091 29.3129 38.5043 29.3008 38.4922C29.2733 38.4647 29.251 38.4193 29.2402 38.3691V28.0234C29.2403 28.0156 29.2409 28.0118 29.2412 28.0107C29.2417 28.0099 29.2436 28.0081 29.2471 28.0049C29.2603 27.9926 29.2882 27.9785 29.3223 27.9785ZM46.293 27.9785H58.3682C58.3949 27.9785 58.4104 27.9832 58.418 27.9863C58.4262 27.9898 58.4329 27.9944 58.4375 27.999C58.448 28.0097 58.4501 28.02 58.4502 28.0234V38.4443C58.447 38.4504 58.441 38.4627 58.4277 38.4756C58.4125 38.4903 58.3953 38.5001 58.3818 38.5059C58.3693 38.5112 58.3648 38.5108 58.3682 38.5107H46.293C46.2626 38.5107 46.2451 38.5052 46.2373 38.502C46.229 38.4985 46.2237 38.4952 46.2207 38.4922C46.2146 38.4861 46.211 38.4776 46.2109 38.4658V28.0234C46.211 28.0156 46.2116 28.0118 46.2119 28.0107C46.2124 28.0099 46.2143 28.0081 46.2178 28.0049C46.231 27.9926 46.2589 27.9785 46.293 27.9785ZM63.0068 27.9785H75.083C75.0852 27.979 75.0899 27.9805 75.0967 27.9834C75.11 27.9892 75.1265 27.9992 75.1416 28.0137C75.1538 28.0254 75.1604 28.0366 75.1641 28.043V38.4453C75.1606 38.4516 75.1543 38.4634 75.1416 38.4756C75.1265 38.4901 75.11 38.5001 75.0967 38.5059C75.0899 38.5088 75.0852 38.5103 75.083 38.5107H63.0068C62.9972 38.5107 62.9705 38.5057 62.9434 38.4795C62.9313 38.4679 62.9266 38.459 62.9248 38.4551V28.0234C62.9248 28.0128 62.9271 28.0098 62.9268 28.0107C62.9274 28.0098 62.9293 28.0079 62.9326 28.0049C62.9459 27.9926 62.9728 27.9785 63.0068 27.9785ZM63.0068 13H75.083C75.0852 13.0004 75.0899 13.002 75.0967 13.0049C75.11 13.0107 75.1265 13.0207 75.1416 13.0352C75.1537 13.0469 75.1604 13.0581 75.1641 13.0645V23.4873C75.164 23.4952 75.1634 23.499 75.1631 23.5C75.1626 23.5008 75.1607 23.5026 75.1572 23.5059C75.144 23.5181 75.1169 23.5321 75.083 23.5322H63.0068C63.0053 23.5322 62.9988 23.5322 62.9873 23.5273C62.9748 23.522 62.9598 23.5121 62.9463 23.499C62.934 23.4871 62.9276 23.4763 62.9248 23.4707V13.0449C62.9248 13.0346 62.927 13.0315 62.9268 13.0322C62.9274 13.0312 62.9294 13.0294 62.9326 13.0264C62.9459 13.0141 62.9728 13 63.0068 13Z" fill="#0091E2" stroke="white" stroke-width="2"/>
</svg>
