<svg width="119" height="119" viewBox="0 0 119 119" fill="none" xmlns="http://www.w3.org/2000/svg">
<mask id="mask0_11_115" style="mask-type:alpha" maskUnits="userSpaceOnUse" x="0" y="0" width="119" height="119">
<path d="M86 1.09082C87.31 0.867807 88.657 1.05772 89.8545 1.63379L114.354 13.4209C115.447 13.9467 116.369 14.7705 117.014 15.7969C117.658 16.8231 118 18.0107 118 19.2227V99.1602C118 100.372 117.658 101.56 117.014 102.586C116.369 103.612 115.447 104.435 114.354 104.961L89.8545 116.751C89.0625 117.132 88.2005 117.346 87.3223 117.38C86.4438 117.414 85.5672 117.267 84.748 116.947C83.9212 116.625 83.1714 116.133 82.5439 115.505L82.5273 115.488L82.5098 115.473L35.6074 72.6846L34.9922 72.123L34.3291 72.626L13.8994 88.1338C13.164 88.6921 12.2564 88.9756 11.334 88.9346C10.4114 88.8935 9.5316 88.5308 8.84863 87.9092V87.9082L2.29688 81.9482C1.88945 81.5774 1.56375 81.1259 1.34082 80.6221C1.11788 80.1182 1.00238 79.5734 1.00195 79.0225C1.00153 78.4715 1.11571 77.9261 1.33789 77.4219C1.56 76.9179 1.8853 76.4661 2.29199 76.0947L20.0078 59.9297L20.8174 59.1914L20.0078 58.4521L2.29102 42.2891C1.88391 41.9177 1.55922 41.4652 1.33691 40.9609C1.11461 40.4567 0.999581 39.9114 1 39.3604C1.00046 38.8094 1.11584 38.2646 1.33887 37.7607C1.56194 37.2568 1.88822 36.8054 2.2959 36.4346L8.84766 30.4736C9.53081 29.8523 10.4104 29.4901 11.333 29.4492C12.2555 29.4083 13.163 29.6916 13.8984 30.25L34.3281 45.7578L34.9912 46.2617L35.6064 45.7002L82.5088 2.91016L82.5264 2.89551L82.542 2.87891C83.4814 1.93893 84.6899 1.31388 86 1.09082ZM88.6631 31.3809L53.0762 58.3945L52.0264 59.1914L53.0762 59.9883L88.6641 87.0029L90.2686 88.2207V86.2061L90.2676 32.1777V30.1631L88.6631 31.3809Z" fill="white" stroke="white" stroke-width="2"/>
</mask>
<g mask="url(#mask0_11_115)">
<path d="M85.9805 1.09021C87.2093 0.881131 88.4703 1.0355 89.6104 1.53064L89.8369 1.63416L114.356 13.4408C114.48 13.5001 114.6 13.5636 114.719 13.6302C113.303 13.4681 111.804 13.8119 110.496 14.8041L13.8359 88.1332C13.0997 88.6917 12.1908 88.975 11.2676 88.934C10.3443 88.8929 9.46405 88.5303 8.78027 87.9086L2.22461 81.9486C1.81696 81.578 1.49069 81.1261 1.26758 80.6224C1.04452 80.1188 0.929188 79.5737 0.928711 79.0228C0.928292 78.4718 1.04328 77.9264 1.26562 77.4222C1.48791 76.9183 1.81276 76.4663 2.21973 76.0951L82.4873 2.91052L82.5039 2.8949L82.5205 2.8783C83.4604 1.93796 84.6698 1.31325 85.9805 1.09021Z" fill="#0065A9" stroke="white" stroke-width="2"/>
<g filter="url(#filter0_d_11_115)">
<path d="M11.2676 29.4485C12.1908 29.4074 13.0997 29.6907 13.8359 30.2493L110.496 103.577C111.805 104.57 113.305 104.914 114.721 104.751C114.601 104.818 114.48 104.883 114.356 104.943L89.8369 116.748C88.639 117.325 87.2913 117.515 85.9805 117.292C84.6698 117.069 83.4606 116.445 82.5205 115.505L82.5039 115.489L82.4873 115.473L2.21973 42.2883C1.81257 41.9171 1.48797 41.4644 1.26562 40.9602C1.04334 40.4562 0.928339 39.9115 0.928711 39.3606C0.92913 38.8097 1.04457 38.2647 1.26758 37.761C1.49068 37.2572 1.8169 36.8054 2.22461 36.4348L8.78027 30.4739C9.46405 29.8521 10.3443 29.4896 11.2676 29.4485Z" fill="#007ACC" stroke="white" stroke-width="2"/>
</g>
<g filter="url(#filter1_d_11_115)">
<path d="M88.3154 1.12427C88.8392 1.22897 89.351 1.39798 89.8379 1.63208L114.354 13.4221C115.446 13.9475 116.368 14.7708 117.014 15.7971C117.659 16.8235 118.001 18.0115 118.001 19.2239V99.1604C118.001 100.373 117.659 101.561 117.014 102.587C116.368 103.614 115.446 104.437 114.354 104.962L89.8389 116.75C89.3518 116.984 88.8393 117.153 88.3154 117.258C89.4693 116.316 90.2508 114.885 90.251 113.131V5.25122C90.251 3.49695 89.4692 2.06672 88.3154 1.12427Z" fill="#1F9CF0" stroke="white" stroke-width="2"/>
</g>
<g opacity="0.25" style="mix-blend-mode:overlay">
<path d="M85.9287 1.09082C87.2388 0.867851 88.5857 1.05762 89.7832 1.63379L114.283 13.4209C115.375 13.9467 116.297 14.7705 116.941 15.7969C117.586 16.8232 117.929 18.0106 117.929 19.2227V99.1592C117.929 100.371 117.586 101.56 116.941 102.586C116.297 103.612 115.375 104.435 114.283 104.961L89.7832 116.751C88.9912 117.132 88.1292 117.346 87.251 117.38C86.3728 117.414 85.4966 117.266 84.6777 116.947C83.8508 116.625 83.0996 116.133 82.4727 115.505L82.4561 115.488L82.4395 115.473L35.5361 72.6836L34.9209 72.1221L34.2578 72.625L13.8281 88.1338C13.0925 88.6921 12.1843 88.9747 11.2617 88.9336C10.3392 88.8925 9.46035 88.5296 8.77734 87.9082L2.22461 81.9482C1.81707 81.5776 1.49161 81.1258 1.26855 80.6221C1.04548 80.1182 0.92913 79.5726 0.928711 79.0215C0.928354 78.4707 1.04348 77.9259 1.26562 77.4219C1.48793 76.9176 1.81359 76.4652 2.2207 76.0938L19.9365 59.9297L20.7461 59.1914L19.9365 58.4521L2.21973 42.29C1.8127 41.9185 1.4869 41.4662 1.26465 40.9619C1.04247 40.4577 0.928292 39.9123 0.928711 39.3613C0.929162 38.8104 1.04461 38.2656 1.26758 37.7617C1.49051 37.258 1.81528 36.8054 2.22266 36.4346L2.22363 36.4355L8.77637 30.4746C9.45941 29.8534 10.3384 29.4912 11.2607 29.4502C12.1833 29.4093 13.0916 29.6925 13.8271 30.251L34.2559 45.7578L34.9189 46.2617L35.5342 45.7002L82.4375 2.91016L82.4541 2.89551L82.4707 2.87891C83.4101 1.9389 84.6186 1.31386 85.9287 1.09082ZM88.5928 31.3799L53.0039 58.3945L51.9551 59.1914L53.0039 59.9883L88.5928 87.002L90.1973 88.2197V30.1621L88.5928 31.3799Z" fill="url(#paint0_linear_11_115)" style="mix-blend-mode:overlay"/>
<path d="M85.9287 1.09082C87.2388 0.867851 88.5857 1.05762 89.7832 1.63379L114.283 13.4209C115.375 13.9467 116.297 14.7705 116.941 15.7969C117.586 16.8232 117.929 18.0106 117.929 19.2227V99.1592C117.929 100.371 117.586 101.56 116.941 102.586C116.297 103.612 115.375 104.435 114.283 104.961L89.7832 116.751C88.9912 117.132 88.1292 117.346 87.251 117.38C86.3728 117.414 85.4966 117.266 84.6777 116.947C83.8508 116.625 83.0996 116.133 82.4727 115.505L82.4561 115.488L82.4395 115.473L35.5361 72.6836L34.9209 72.1221L34.2578 72.625L13.8281 88.1338C13.0925 88.6921 12.1843 88.9747 11.2617 88.9336C10.3392 88.8925 9.46035 88.5296 8.77734 87.9082L2.22461 81.9482C1.81707 81.5776 1.49161 81.1258 1.26855 80.6221C1.04548 80.1182 0.92913 79.5726 0.928711 79.0215C0.928354 78.4707 1.04348 77.9259 1.26562 77.4219C1.48793 76.9176 1.81359 76.4652 2.2207 76.0938L19.9365 59.9297L20.7461 59.1914L19.9365 58.4521L2.21973 42.29C1.8127 41.9185 1.4869 41.4662 1.26465 40.9619C1.04247 40.4577 0.928292 39.9123 0.928711 39.3613C0.929162 38.8104 1.04461 38.2656 1.26758 37.7617C1.49051 37.258 1.81528 36.8054 2.22266 36.4346L2.22363 36.4355L8.77637 30.4746C9.45941 29.8534 10.3384 29.4912 11.2607 29.4502C12.1833 29.4093 13.0916 29.6925 13.8271 30.251L34.2559 45.7578L34.9189 46.2617L35.5342 45.7002L82.4375 2.91016L82.4541 2.89551L82.4707 2.87891C83.4101 1.9389 84.6186 1.31386 85.9287 1.09082ZM88.5928 31.3799L53.0039 58.3945L51.9551 59.1914L53.0039 59.9883L88.5928 87.002L90.1973 88.2197V30.1621L88.5928 31.3799Z" stroke="white" stroke-width="2"/>
</g>
</g>
<defs>
<filter id="filter0_d_11_115" x="-8.40463" y="20.1112" width="135.739" height="106.605" filterUnits="userSpaceOnUse" color-interpolation-filters="sRGB">
<feFlood flood-opacity="0" result="BackgroundImageFix"/>
<feColorMatrix in="SourceAlpha" type="matrix" values="0 0 0 0 0 0 0 0 0 0 0 0 0 0 0 0 0 0 127 0" result="hardAlpha"/>
<feOffset/>
<feGaussianBlur stdDeviation="4.16667"/>
<feColorMatrix type="matrix" values="0 0 0 0 0 0 0 0 0 0 0 0 0 0 0 0 0 0 0.25 0"/>
<feBlend mode="overlay" in2="BackgroundImageFix" result="effect1_dropShadow_11_115"/>
<feBlend mode="normal" in="SourceGraphic" in2="effect1_dropShadow_11_115" result="shape"/>
</filter>
<filter id="filter1_d_11_115" x="73.4801" y="-8.33505" width="53.8542" height="135.053" filterUnits="userSpaceOnUse" color-interpolation-filters="sRGB">
<feFlood flood-opacity="0" result="BackgroundImageFix"/>
<feColorMatrix in="SourceAlpha" type="matrix" values="0 0 0 0 0 0 0 0 0 0 0 0 0 0 0 0 0 0 127 0" result="hardAlpha"/>
<feOffset/>
<feGaussianBlur stdDeviation="4.16667"/>
<feColorMatrix type="matrix" values="0 0 0 0 0 0 0 0 0 0 0 0 0 0 0 0 0 0 0.25 0"/>
<feBlend mode="overlay" in2="BackgroundImageFix" result="effect1_dropShadow_11_115"/>
<feBlend mode="normal" in="SourceGraphic" in2="effect1_dropShadow_11_115" result="shape"/>
</filter>
<linearGradient id="paint0_linear_11_115" x1="59.4286" y1="-0.00184723" x2="59.4286" y2="118.384" gradientUnits="userSpaceOnUse">
<stop stop-color="white"/>
<stop offset="1" stop-color="white" stop-opacity="0"/>
</linearGradient>
</defs>
</svg>
