<svg width="81" height="125" viewBox="0 0 81 125" fill="none" xmlns="http://www.w3.org/2000/svg">
<path d="M22.1465 99.8057C17.0563 99.8057 12.832 103.749 12.832 108.705C12.8322 113.661 17.0564 117.604 22.1465 117.604C27.2325 117.604 31.4568 113.661 31.457 108.705C31.457 103.749 27.2326 99.8058 22.1465 99.8057ZM63.8574 76.6299C58.7674 76.6299 54.5421 80.5733 54.542 85.5303C54.542 90.4865 58.7674 94.4297 63.8574 94.4297C68.9439 94.4296 73.167 90.4859 73.167 85.5293C73.1668 80.5737 68.9437 76.63 63.8574 76.6299ZM22.1416 50.1875C15.2477 50.1877 9.55176 55.5325 9.55176 62.21C9.5519 68.8835 15.2479 74.2283 22.1416 74.2285C29.0405 74.2285 34.7362 68.8838 34.7363 62.21C34.7363 55.5321 29.0396 50.1875 22.1416 50.1875ZM63.8574 30.1309C58.7668 30.1309 54.5422 34.0787 54.542 39.0342C54.542 43.9862 58.767 47.9336 63.8574 47.9336C68.9441 47.9335 73.167 43.9856 73.167 39.0342C73.1668 34.0803 68.9444 30.131 63.8574 30.1309ZM22.1465 7.39551C17.0565 7.39551 12.8322 11.3389 12.832 16.2939C12.832 21.2499 17.0561 25.1943 22.1465 25.1943C27.2326 25.1942 31.457 21.2507 31.457 16.2949C31.4568 11.3393 27.2325 7.39568 22.1465 7.39551ZM19.3096 31.3613L18.5225 31.1895C11.3271 29.619 5.99902 23.5106 5.99902 16.2949C5.99921 7.90676 13.1976 1 22.1465 1C31.092 1.00017 38.2889 7.90573 38.2891 16.2949C38.2891 23.6109 32.8178 29.7919 25.4736 31.2578L24.6699 31.4189V42.3145L25.5186 42.4443C30.6823 43.2354 35.3466 45.8143 38.6191 49.6729L39.1943 50.3525L39.9355 49.8584L47.9824 44.4941L48.6064 44.0791L48.3818 43.3633C47.9495 41.9831 47.71 40.5344 47.71 39.0342C47.7102 30.6469 54.9076 23.7393 63.8574 23.7393C72.8029 23.7394 79.9998 30.6468 80 39.0342C80 47.4189 72.8029 54.33 63.8574 54.3301C59.0332 54.3301 54.7184 52.304 51.7607 49.124L51.1807 48.502L50.4736 48.9736L42.4297 54.3379L41.7686 54.7783L42.0488 55.5225C42.7911 57.4886 43.2312 59.5848 43.2832 61.7715L43.2881 62.21C43.2838 64.5273 42.8509 66.8273 42.0088 69.0039L41.7207 69.748L42.3838 70.1943L50.4414 75.6152L51.1514 76.0938L51.7334 75.4658C54.692 72.272 59.0187 70.2344 63.8574 70.2344C72.8029 70.2345 79.9998 77.1419 80 85.5303C80 93.9177 72.8031 100.825 63.8574 100.825C54.9076 100.825 47.7104 93.9183 47.71 85.5312C47.7115 84.0811 47.9343 82.6379 48.3701 81.2471L48.5928 80.5352L47.9736 80.1191L39.8643 74.6592L39.126 74.1621L38.5469 74.8369C35.3085 78.6086 30.7338 81.1424 25.668 81.9541L24.8262 82.0889V93.6123L25.6221 93.7783C32.8892 95.295 38.2891 101.44 38.2891 108.705C38.2889 117.093 31.092 124 22.1465 124C13.1967 124 6.00019 117.093 6 108.705C6 101.44 11.399 95.2941 18.6699 93.7783L19.4658 93.6123V82.0889L18.624 81.9541C8.59815 80.3517 1.00013 72.083 1 62.21C1 52.3838 8.52593 44.1448 18.4746 42.4844L19.3096 42.3447V31.3613Z" fill="#FFDB6E" stroke="white" stroke-width="2"/>
</svg>
