<svg width="120" height="123" viewBox="0 0 120 123" fill="none" xmlns="http://www.w3.org/2000/svg">
<path d="M53.9316 1.00195C55.7933 0.950278 57.7411 1.7256 59.4756 3.46289L59.4766 3.46387C60.6876 4.67332 61.757 6.1204 62.6611 7.62012V7.62109L75.0361 28.2139V28.2148C75.3178 28.688 75.6912 29.1613 76.2773 29.3975C76.8628 29.6333 77.4559 29.5492 77.9727 29.4102L108.282 21.3438L108.283 21.3447C110.262 20.822 112.217 20.6415 114.176 20.9902V20.9912C116.285 21.3864 117.668 22.362 118.384 23.6123C119.1 24.8638 119.246 26.5623 118.53 28.6016C117.872 30.4669 116.725 32.1117 115.387 33.7109L94.2295 58.6201C93.8728 59.0387 93.5827 59.5227 93.5332 60.1162C93.4849 60.6967 93.6821 61.2115 93.917 61.6553V61.6562L106.513 85.582L106.514 85.583C107.49 87.4317 108.174 89.2437 108.191 91.2021V91.2031C108.234 95.5302 105.183 99.1114 100.924 99.9277L100.508 99.998C97.9658 100.37 95.5713 99.8386 93.0068 99.0459L93.0029 99.0449L73.9844 93.249L73.9785 93.2471L73.8555 93.2041C73.8307 93.1936 73.816 93.1861 73.8086 93.1816L73.6357 92.9404L73.3408 92.8369L69.3467 91.4287L68.7266 91.2109L68.2803 91.6934L51.2188 110.142C50.6807 110.677 50.1291 111.198 49.5645 111.705L49.543 111.725L49.5234 111.745C41.6483 119.677 37.2884 121.544 35.1582 121.82L35.1572 121.821L35.0986 121.829C34.3389 121.919 33.882 121.805 33.6504 121.714C33.5476 121.673 33.4813 121.634 33.4463 121.61L33.4902 121.459C33.0476 121.278 32.5082 120.695 31.9922 119.42C31.4943 118.189 31.1008 116.518 30.8037 114.516C30.2107 110.52 30.0285 105.406 30.0557 100.333C30.0828 95.2695 30.3179 90.286 30.5459 86.5654C30.6599 84.7059 30.7718 83.1636 30.8555 82.0869C30.8973 81.5486 30.9319 81.1267 30.9561 80.8398C30.9681 80.6967 30.9779 80.5872 30.9844 80.5137C30.9876 80.4771 30.9896 80.4491 30.9912 80.4307C30.992 80.4214 30.9928 80.4137 30.9932 80.4092C30.9933 80.4072 30.9941 80.4053 30.9941 80.4043V80.4033L31.0449 79.8359L30.584 79.5029L27.0176 76.9258L26.8369 76.7949L26.6172 76.7539L26.5322 76.7314C26.507 76.7227 26.4848 76.7125 26.4658 76.7021L26.4316 76.6836L26.3955 76.667L9.50684 69.1309L9.50098 69.1279L9.0498 68.9238C6.81462 67.8837 4.84205 66.5008 3.30176 64.6113V64.6104L2.96582 64.1816C1.35673 62.0363 0.779842 59.8523 1.07324 57.8877C1.38559 55.7966 2.70949 53.7845 5.18164 52.2119L5.18066 52.2109C6.83561 51.1584 8.73352 50.3541 10.6602 49.7236L37.7734 41.0977H37.7754C38.2209 40.9553 38.6816 40.7427 39.0498 40.3467C39.4252 39.9427 39.6104 39.4489 39.7021 38.9189L39.7031 38.9199L43.3975 17.9609C44.0901 14.1116 44.4209 10.4977 46.1357 7.27832C46.8088 6.02768 47.6043 4.78984 48.5215 3.76758L48.5225 3.76855C50.0645 2.05435 51.8335 1.16979 53.582 1.02246L53.9316 1.00195ZM33.4463 121.619C33.4474 121.62 33.4481 121.622 33.4492 121.623L33.4521 121.626C33.4523 121.626 33.4515 121.625 33.4395 121.637L33.4443 121.617L33.4463 121.619ZM53.8252 18.79L52.75 24.7227L52.749 24.7266L49.0312 45.6816L49.0303 45.6885L48.6436 47.9512L48.6367 47.9941L48.6328 48.0371C48.6237 48.1467 48.6059 48.1974 48.5996 48.2129L48.5361 48.251C48.4768 48.2806 48.3889 48.3161 48.2529 48.3584L48.248 48.3594L20.6436 57.0986C20.1463 57.2534 19.6109 57.4784 19.0342 58.0039L17.8525 59.0811L19.3389 59.6719L41.7783 68.5967L42.0146 68.6992L45.3418 70.1484L40.9619 105.106L40.5654 108.266L42.6973 105.9L66.7393 79.208L69.7539 80.0547L69.7607 80.0752L70.2754 80.2178L92.0801 86.2363L92.7373 86.418L93.1465 85.8721L93.1611 85.8535L93.5225 85.3711L93.2646 84.8262L92.7041 83.6377L92.6846 83.5986L80.458 60.3828L80.457 60.3789L80.3623 60.1816C80.2953 60.021 80.301 59.9632 80.3018 59.9561C80.3024 59.9494 80.3079 59.8945 80.4023 59.7559L80.5303 59.5869L99.8633 36.8496L99.8652 36.8467C100.14 36.5217 100.474 36.0741 100.602 35.3486L100.872 33.8125L99.3633 34.208L93.7168 35.6885L93.7129 35.6895L70.2627 41.9326C70.183 41.9538 70.1285 41.9613 70.0947 41.9648C70.0632 41.9284 70.0162 41.8668 69.9521 41.7617H69.9531L56.6357 19.5352L56.6328 19.5303C56.3676 19.0935 56.0347 18.6074 55.3848 18.1504L54.1045 17.25L53.8252 18.79Z" fill="#FFDB6E" stroke="white" stroke-width="2"/>
</svg>
