<svg width="124" height="93" viewBox="0 0 124 93" fill="none" xmlns="http://www.w3.org/2000/svg">
<mask id="path-1-outside-1_11_55" maskUnits="userSpaceOnUse" x="-0.998047" y="17" width="125" height="76" fill="black">
<rect fill="white" x="-0.998047" y="17" width="125" height="76"/>
<path d="M35.7129 44.9767C35.7129 46.4507 35.8716 47.646 36.1522 48.52C36.4697 49.395 36.8684 50.3512 37.425 51.3849C37.6206 51.7024 37.7018 52.0198 37.7018 52.3005C37.7018 52.6954 37.4618 53.0942 36.9459 53.492L34.4392 55.1644C34.081 55.4006 33.7229 55.5225 33.4064 55.5225C33.0077 55.5225 32.6089 55.3231 32.2102 54.965C31.6751 54.3877 31.1955 53.7613 30.7777 53.0942C30.335 52.3287 29.924 51.5454 29.5456 50.7461C26.4445 54.4076 22.544 56.2387 17.848 56.2387C14.5078 56.2387 11.8432 55.2825 9.89112 53.3739C7.94183 51.4624 6.94876 48.9159 6.94876 45.7335C6.94876 42.3528 8.1412 39.6069 10.5705 37.5405C12.9951 35.4693 16.2171 34.4356 20.3179 34.4356C21.6691 34.4356 23.0599 34.5537 24.5321 34.7531C26.0061 34.9524 27.5188 35.2699 29.11 35.628V32.7235C29.11 29.6998 28.4713 27.5928 27.2392 26.3606C25.9636 25.1276 23.8158 24.5294 20.7525 24.5294C19.3607 24.5294 17.9292 24.6882 16.4562 25.0463C14.9936 25.3948 13.5578 25.8473 12.1598 26.4003C11.521 26.6772 11.0448 26.8359 10.768 26.9172C10.4883 26.9946 10.2889 27.0353 10.1302 27.0353C9.5727 27.0353 9.29585 26.6365 9.29585 25.8031V23.8539C9.29585 23.2151 9.37333 22.7389 9.5727 22.4592C9.77112 22.1824 10.1302 21.9055 10.6877 21.6249C12.0785 20.9087 13.751 20.3115 15.6993 19.8343C17.6486 19.3175 19.7188 19.0784 21.9072 19.0784C26.6392 19.0784 30.1012 20.1518 32.3311 22.3005C34.5195 24.4482 35.6307 27.7109 35.6307 32.0885V44.9767H35.7129ZM19.561 51.0268C20.8716 51.0268 22.2256 50.7868 23.6581 50.3106C25.0905 49.8306 26.3633 48.9565 27.4376 47.7641C28.0725 47.0082 28.5525 46.1729 28.7888 45.2176C29.0288 44.2614 29.1875 43.1106 29.1875 41.7546V40.0869C27.9823 39.7908 26.761 39.564 25.5299 39.4076C24.2884 39.251 23.0384 39.1721 21.7872 39.1713C19.1226 39.1713 17.1733 39.6882 15.859 40.7625C14.5484 41.8359 13.9107 43.3458 13.9107 45.3357C13.9107 47.2066 14.3869 48.5984 15.3828 49.5537C16.339 50.5468 17.7308 51.0268 19.561 51.0268ZM51.5066 55.3231C50.7903 55.3231 50.3141 55.205 49.9966 54.9244C49.6754 54.6844 49.3985 54.1307 49.1585 53.3748L39.8099 22.6208C39.5736 21.8243 39.4508 21.3074 39.4508 21.0268C39.4508 20.3918 39.7692 20.0346 40.408 20.0346H44.3056C45.0615 20.0346 45.5784 20.1518 45.859 20.4324C46.1765 20.6687 46.4165 21.2261 46.6527 21.982L53.3368 48.3216L59.5447 21.983C59.7412 21.1893 59.9812 20.6696 60.2977 20.4334C60.619 20.1924 61.1765 20.0337 61.8927 20.0337H65.0741C65.83 20.0337 66.3478 20.1518 66.6653 20.4324C66.9828 20.6687 67.2634 21.2261 67.4212 21.982L73.7075 48.6391L80.591 21.983C80.8272 21.1893 81.1078 20.6696 81.3847 20.4334C81.7022 20.1924 82.2228 20.0337 82.9381 20.0337H86.6363C87.2751 20.0337 87.6332 20.3512 87.6332 21.0268C87.6332 21.2252 87.5925 21.4255 87.5519 21.6655C87.5113 21.9055 87.4338 22.223 87.2751 22.6576L77.6864 53.4145C77.4464 54.2082 77.1696 54.725 76.8483 54.9641C76.5308 55.205 76.014 55.3638 75.3384 55.3638H71.9179C71.1611 55.3638 70.6442 55.2409 70.3267 54.965C70.0055 54.6844 69.7286 54.1676 69.5699 53.3739L63.4026 27.7109L57.2751 53.3332C57.0766 54.1307 56.8404 54.6476 56.5192 54.9244C56.2007 55.205 55.6442 55.3231 54.928 55.3231H51.5066ZM102.629 56.3975C100.563 56.3975 98.4918 56.1575 96.5028 55.6813C94.5129 55.205 92.9633 54.6844 91.9296 54.0901C91.2908 53.732 90.8552 53.3342 90.6965 52.9751C90.5397 52.6242 90.4579 52.2445 90.4565 51.8602V49.8305C90.4565 48.9972 90.774 48.5984 91.373 48.5984C91.6092 48.5984 91.8483 48.6391 92.0883 48.7203C92.3245 48.7978 92.6826 48.9565 93.0804 49.1153C94.4868 49.7329 95.9545 50.2004 97.459 50.5099C99.0492 50.8274 100.6 50.9861 102.194 50.9861C104.701 50.9861 106.649 50.5468 108 49.6728C109.354 48.7978 110.07 47.5241 110.07 45.8932C110.07 44.7783 109.712 43.8665 108.997 43.1096C108.281 42.3537 106.926 41.6772 104.977 41.0394L99.208 39.2488C96.3034 38.3332 94.1548 36.983 92.8451 35.1924C91.5318 33.4397 90.8552 31.4904 90.8552 29.4239C90.8552 27.7515 91.2143 26.2794 91.9296 25.0057C92.6398 23.7258 93.6165 22.6132 94.7935 21.743C95.9859 20.8312 97.3409 20.1518 98.9321 19.6756C100.522 19.1994 102.194 19 103.944 19C104.819 19 105.733 19.0406 106.608 19.1587C107.524 19.2768 108.358 19.4356 109.195 19.5943C109.989 19.7937 110.746 19.9931 111.462 20.2331C112.178 20.4731 112.736 20.7093 113.135 20.9493C113.692 21.2668 114.09 21.5843 114.326 21.9414C114.566 22.2627 114.684 22.6992 114.684 23.2557V25.1266C114.684 25.9619 114.367 26.4003 113.769 26.4003C113.451 26.4003 112.934 26.2387 112.26 25.9213C109.989 24.8876 107.443 24.3707 104.619 24.3707C102.353 24.3707 100.563 24.7288 99.3299 25.4857C98.093 26.2387 97.459 27.3943 97.459 29.0252C97.459 30.1402 97.8568 31.0954 98.6505 31.8485C99.448 32.6044 100.921 33.3622 103.028 34.0369L108.679 35.8274C111.543 36.743 113.611 38.0157 114.843 39.6476C116.076 41.2794 116.674 43.1502 116.674 45.2176C116.674 46.9298 116.315 48.4803 115.64 49.8305C114.924 51.1855 113.968 52.378 112.736 53.3332C111.503 54.3263 110.03 55.0425 108.321 55.5631C106.531 56.1169 104.66 56.3975 102.629 56.3975Z"/>
<path d="M112.835 63.5984C108.647 63.658 103.704 64.5924 99.9648 67.2192C98.8092 68.0535 99.0086 69.1676 100.282 69.0088C104.542 68.492 113.926 67.378 115.599 69.5257C117.271 71.6328 113.732 80.5052 112.138 84.4454C111.662 85.6359 112.695 86.1169 113.769 85.2013C120.77 79.3137 122.601 67.0198 121.169 65.2293C120.454 64.3553 117.023 63.538 112.835 63.5984ZM2.87916 65.971C2.00325 66.0806 1.6064 67.1389 2.53144 67.9751C18.1295 82.0558 38.7762 90.5313 61.6933 90.5313C78.0445 90.5313 97.0603 85.4006 110.148 75.7345C112.296 74.1395 110.428 71.715 108.239 72.7071C93.5614 78.915 77.6051 81.9386 63.0851 81.9386C41.5626 81.9386 20.7544 76.0113 3.88545 66.2224C3.51695 66.0041 3.17207 65.9351 2.8801 65.971H2.87916Z"/>
</mask>
<path d="M35.7129 44.9767C35.7129 46.4507 35.8716 47.646 36.1522 48.52C36.4697 49.395 36.8684 50.3512 37.425 51.3849C37.6206 51.7024 37.7018 52.0198 37.7018 52.3005C37.7018 52.6954 37.4618 53.0942 36.9459 53.492L34.4392 55.1644C34.081 55.4006 33.7229 55.5225 33.4064 55.5225C33.0077 55.5225 32.6089 55.3231 32.2102 54.965C31.6751 54.3877 31.1955 53.7613 30.7777 53.0942C30.335 52.3287 29.924 51.5454 29.5456 50.7461C26.4445 54.4076 22.544 56.2387 17.848 56.2387C14.5078 56.2387 11.8432 55.2825 9.89112 53.3739C7.94183 51.4624 6.94876 48.9159 6.94876 45.7335C6.94876 42.3528 8.1412 39.6069 10.5705 37.5405C12.9951 35.4693 16.2171 34.4356 20.3179 34.4356C21.6691 34.4356 23.0599 34.5537 24.5321 34.7531C26.0061 34.9524 27.5188 35.2699 29.11 35.628V32.7235C29.11 29.6998 28.4713 27.5928 27.2392 26.3606C25.9636 25.1276 23.8158 24.5294 20.7525 24.5294C19.3607 24.5294 17.9292 24.6882 16.4562 25.0463C14.9936 25.3948 13.5578 25.8473 12.1598 26.4003C11.521 26.6772 11.0448 26.8359 10.768 26.9172C10.4883 26.9946 10.2889 27.0353 10.1302 27.0353C9.5727 27.0353 9.29585 26.6365 9.29585 25.8031V23.8539C9.29585 23.2151 9.37333 22.7389 9.5727 22.4592C9.77112 22.1824 10.1302 21.9055 10.6877 21.6249C12.0785 20.9087 13.751 20.3115 15.6993 19.8343C17.6486 19.3175 19.7188 19.0784 21.9072 19.0784C26.6392 19.0784 30.1012 20.1518 32.3311 22.3005C34.5195 24.4482 35.6307 27.7109 35.6307 32.0885V44.9767H35.7129ZM19.561 51.0268C20.8716 51.0268 22.2256 50.7868 23.6581 50.3106C25.0905 49.8306 26.3633 48.9565 27.4376 47.7641C28.0725 47.0082 28.5525 46.1729 28.7888 45.2176C29.0288 44.2614 29.1875 43.1106 29.1875 41.7546V40.0869C27.9823 39.7908 26.761 39.564 25.5299 39.4076C24.2884 39.251 23.0384 39.1721 21.7872 39.1713C19.1226 39.1713 17.1733 39.6882 15.859 40.7625C14.5484 41.8359 13.9107 43.3458 13.9107 45.3357C13.9107 47.2066 14.3869 48.5984 15.3828 49.5537C16.339 50.5468 17.7308 51.0268 19.561 51.0268ZM51.5066 55.3231C50.7903 55.3231 50.3141 55.205 49.9966 54.9244C49.6754 54.6844 49.3985 54.1307 49.1585 53.3748L39.8099 22.6208C39.5736 21.8243 39.4508 21.3074 39.4508 21.0268C39.4508 20.3918 39.7692 20.0346 40.408 20.0346H44.3056C45.0615 20.0346 45.5784 20.1518 45.859 20.4324C46.1765 20.6687 46.4165 21.2261 46.6527 21.982L53.3368 48.3216L59.5447 21.983C59.7412 21.1893 59.9812 20.6696 60.2977 20.4334C60.619 20.1924 61.1765 20.0337 61.8927 20.0337H65.0741C65.83 20.0337 66.3478 20.1518 66.6653 20.4324C66.9828 20.6687 67.2634 21.2261 67.4212 21.982L73.7075 48.6391L80.591 21.983C80.8272 21.1893 81.1078 20.6696 81.3847 20.4334C81.7022 20.1924 82.2228 20.0337 82.9381 20.0337H86.6363C87.2751 20.0337 87.6332 20.3512 87.6332 21.0268C87.6332 21.2252 87.5925 21.4255 87.5519 21.6655C87.5113 21.9055 87.4338 22.223 87.2751 22.6576L77.6864 53.4145C77.4464 54.2082 77.1696 54.725 76.8483 54.9641C76.5308 55.205 76.014 55.3638 75.3384 55.3638H71.9179C71.1611 55.3638 70.6442 55.2409 70.3267 54.965C70.0055 54.6844 69.7286 54.1676 69.5699 53.3739L63.4026 27.7109L57.2751 53.3332C57.0766 54.1307 56.8404 54.6476 56.5192 54.9244C56.2007 55.205 55.6442 55.3231 54.928 55.3231H51.5066ZM102.629 56.3975C100.563 56.3975 98.4918 56.1575 96.5028 55.6813C94.5129 55.205 92.9633 54.6844 91.9296 54.0901C91.2908 53.732 90.8552 53.3342 90.6965 52.9751C90.5397 52.6242 90.4579 52.2445 90.4565 51.8602V49.8305C90.4565 48.9972 90.774 48.5984 91.373 48.5984C91.6092 48.5984 91.8483 48.6391 92.0883 48.7203C92.3245 48.7978 92.6826 48.9565 93.0804 49.1153C94.4868 49.7329 95.9545 50.2004 97.459 50.5099C99.0492 50.8274 100.6 50.9861 102.194 50.9861C104.701 50.9861 106.649 50.5468 108 49.6728C109.354 48.7978 110.07 47.5241 110.07 45.8932C110.07 44.7783 109.712 43.8665 108.997 43.1096C108.281 42.3537 106.926 41.6772 104.977 41.0394L99.208 39.2488C96.3034 38.3332 94.1548 36.983 92.8451 35.1924C91.5318 33.4397 90.8552 31.4904 90.8552 29.4239C90.8552 27.7515 91.2143 26.2794 91.9296 25.0057C92.6398 23.7258 93.6165 22.6132 94.7935 21.743C95.9859 20.8312 97.3409 20.1518 98.9321 19.6756C100.522 19.1994 102.194 19 103.944 19C104.819 19 105.733 19.0406 106.608 19.1587C107.524 19.2768 108.358 19.4356 109.195 19.5943C109.989 19.7937 110.746 19.9931 111.462 20.2331C112.178 20.4731 112.736 20.7093 113.135 20.9493C113.692 21.2668 114.09 21.5843 114.326 21.9414C114.566 22.2627 114.684 22.6992 114.684 23.2557V25.1266C114.684 25.9619 114.367 26.4003 113.769 26.4003C113.451 26.4003 112.934 26.2387 112.26 25.9213C109.989 24.8876 107.443 24.3707 104.619 24.3707C102.353 24.3707 100.563 24.7288 99.3299 25.4857C98.093 26.2387 97.459 27.3943 97.459 29.0252C97.459 30.1402 97.8568 31.0954 98.6505 31.8485C99.448 32.6044 100.921 33.3622 103.028 34.0369L108.679 35.8274C111.543 36.743 113.611 38.0157 114.843 39.6476C116.076 41.2794 116.674 43.1502 116.674 45.2176C116.674 46.9298 116.315 48.4803 115.64 49.8305C114.924 51.1855 113.968 52.378 112.736 53.3332C111.503 54.3263 110.03 55.0425 108.321 55.5631C106.531 56.1169 104.66 56.3975 102.629 56.3975Z" fill="#252F3E"/>
<path d="M112.835 63.5984C108.647 63.658 103.704 64.5924 99.9648 67.2192C98.8092 68.0535 99.0086 69.1676 100.282 69.0088C104.542 68.492 113.926 67.378 115.599 69.5257C117.271 71.6328 113.732 80.5052 112.138 84.4454C111.662 85.6359 112.695 86.1169 113.769 85.2013C120.77 79.3137 122.601 67.0198 121.169 65.2293C120.454 64.3553 117.023 63.538 112.835 63.5984ZM2.87916 65.971C2.00325 66.0806 1.6064 67.1389 2.53144 67.9751C18.1295 82.0558 38.7762 90.5313 61.6933 90.5313C78.0445 90.5313 97.0603 85.4006 110.148 75.7345C112.296 74.1395 110.428 71.715 108.239 72.7071C93.5614 78.915 77.6051 81.9386 63.0851 81.9386C41.5626 81.9386 20.7544 76.0113 3.88545 66.2224C3.51695 66.0041 3.17207 65.9351 2.8801 65.971H2.87916Z" fill="#FF9900"/>
<path d="M35.7129 44.9767C35.7129 46.4507 35.8716 47.646 36.1522 48.52C36.4697 49.395 36.8684 50.3512 37.425 51.3849C37.6206 51.7024 37.7018 52.0198 37.7018 52.3005C37.7018 52.6954 37.4618 53.0942 36.9459 53.492L34.4392 55.1644C34.081 55.4006 33.7229 55.5225 33.4064 55.5225C33.0077 55.5225 32.6089 55.3231 32.2102 54.965C31.6751 54.3877 31.1955 53.7613 30.7777 53.0942C30.335 52.3287 29.924 51.5454 29.5456 50.7461C26.4445 54.4076 22.544 56.2387 17.848 56.2387C14.5078 56.2387 11.8432 55.2825 9.89112 53.3739C7.94183 51.4624 6.94876 48.9159 6.94876 45.7335C6.94876 42.3528 8.1412 39.6069 10.5705 37.5405C12.9951 35.4693 16.2171 34.4356 20.3179 34.4356C21.6691 34.4356 23.0599 34.5537 24.5321 34.7531C26.0061 34.9524 27.5188 35.2699 29.11 35.628V32.7235C29.11 29.6998 28.4713 27.5928 27.2392 26.3606C25.9636 25.1276 23.8158 24.5294 20.7525 24.5294C19.3607 24.5294 17.9292 24.6882 16.4562 25.0463C14.9936 25.3948 13.5578 25.8473 12.1598 26.4003C11.521 26.6772 11.0448 26.8359 10.768 26.9172C10.4883 26.9946 10.2889 27.0353 10.1302 27.0353C9.5727 27.0353 9.29585 26.6365 9.29585 25.8031V23.8539C9.29585 23.2151 9.37333 22.7389 9.5727 22.4592C9.77112 22.1824 10.1302 21.9055 10.6877 21.6249C12.0785 20.9087 13.751 20.3115 15.6993 19.8343C17.6486 19.3175 19.7188 19.0784 21.9072 19.0784C26.6392 19.0784 30.1012 20.1518 32.3311 22.3005C34.5195 24.4482 35.6307 27.7109 35.6307 32.0885V44.9767H35.7129ZM19.561 51.0268C20.8716 51.0268 22.2256 50.7868 23.6581 50.3106C25.0905 49.8306 26.3633 48.9565 27.4376 47.7641C28.0725 47.0082 28.5525 46.1729 28.7888 45.2176C29.0288 44.2614 29.1875 43.1106 29.1875 41.7546V40.0869C27.9823 39.7908 26.761 39.564 25.5299 39.4076C24.2884 39.251 23.0384 39.1721 21.7872 39.1713C19.1226 39.1713 17.1733 39.6882 15.859 40.7625C14.5484 41.8359 13.9107 43.3458 13.9107 45.3357C13.9107 47.2066 14.3869 48.5984 15.3828 49.5537C16.339 50.5468 17.7308 51.0268 19.561 51.0268ZM51.5066 55.3231C50.7903 55.3231 50.3141 55.205 49.9966 54.9244C49.6754 54.6844 49.3985 54.1307 49.1585 53.3748L39.8099 22.6208C39.5736 21.8243 39.4508 21.3074 39.4508 21.0268C39.4508 20.3918 39.7692 20.0346 40.408 20.0346H44.3056C45.0615 20.0346 45.5784 20.1518 45.859 20.4324C46.1765 20.6687 46.4165 21.2261 46.6527 21.982L53.3368 48.3216L59.5447 21.983C59.7412 21.1893 59.9812 20.6696 60.2977 20.4334C60.619 20.1924 61.1765 20.0337 61.8927 20.0337H65.0741C65.83 20.0337 66.3478 20.1518 66.6653 20.4324C66.9828 20.6687 67.2634 21.2261 67.4212 21.982L73.7075 48.6391L80.591 21.983C80.8272 21.1893 81.1078 20.6696 81.3847 20.4334C81.7022 20.1924 82.2228 20.0337 82.9381 20.0337H86.6363C87.2751 20.0337 87.6332 20.3512 87.6332 21.0268C87.6332 21.2252 87.5925 21.4255 87.5519 21.6655C87.5113 21.9055 87.4338 22.223 87.2751 22.6576L77.6864 53.4145C77.4464 54.2082 77.1696 54.725 76.8483 54.9641C76.5308 55.205 76.014 55.3638 75.3384 55.3638H71.9179C71.1611 55.3638 70.6442 55.2409 70.3267 54.965C70.0055 54.6844 69.7286 54.1676 69.5699 53.3739L63.4026 27.7109L57.2751 53.3332C57.0766 54.1307 56.8404 54.6476 56.5192 54.9244C56.2007 55.205 55.6442 55.3231 54.928 55.3231H51.5066ZM102.629 56.3975C100.563 56.3975 98.4918 56.1575 96.5028 55.6813C94.5129 55.205 92.9633 54.6844 91.9296 54.0901C91.2908 53.732 90.8552 53.3342 90.6965 52.9751C90.5397 52.6242 90.4579 52.2445 90.4565 51.8602V49.8305C90.4565 48.9972 90.774 48.5984 91.373 48.5984C91.6092 48.5984 91.8483 48.6391 92.0883 48.7203C92.3245 48.7978 92.6826 48.9565 93.0804 49.1153C94.4868 49.7329 95.9545 50.2004 97.459 50.5099C99.0492 50.8274 100.6 50.9861 102.194 50.9861C104.701 50.9861 106.649 50.5468 108 49.6728C109.354 48.7978 110.07 47.5241 110.07 45.8932C110.07 44.7783 109.712 43.8665 108.997 43.1096C108.281 42.3537 106.926 41.6772 104.977 41.0394L99.208 39.2488C96.3034 38.3332 94.1548 36.983 92.8451 35.1924C91.5318 33.4397 90.8552 31.4904 90.8552 29.4239C90.8552 27.7515 91.2143 26.2794 91.9296 25.0057C92.6398 23.7258 93.6165 22.6132 94.7935 21.743C95.9859 20.8312 97.3409 20.1518 98.9321 19.6756C100.522 19.1994 102.194 19 103.944 19C104.819 19 105.733 19.0406 106.608 19.1587C107.524 19.2768 108.358 19.4356 109.195 19.5943C109.989 19.7937 110.746 19.9931 111.462 20.2331C112.178 20.4731 112.736 20.7093 113.135 20.9493C113.692 21.2668 114.09 21.5843 114.326 21.9414C114.566 22.2627 114.684 22.6992 114.684 23.2557V25.1266C114.684 25.9619 114.367 26.4003 113.769 26.4003C113.451 26.4003 112.934 26.2387 112.26 25.9213C109.989 24.8876 107.443 24.3707 104.619 24.3707C102.353 24.3707 100.563 24.7288 99.3299 25.4857C98.093 26.2387 97.459 27.3943 97.459 29.0252C97.459 30.1402 97.8568 31.0954 98.6505 31.8485C99.448 32.6044 100.921 33.3622 103.028 34.0369L108.679 35.8274C111.543 36.743 113.611 38.0157 114.843 39.6476C116.076 41.2794 116.674 43.1502 116.674 45.2176C116.674 46.9298 116.315 48.4803 115.64 49.8305C114.924 51.1855 113.968 52.378 112.736 53.3332C111.503 54.3263 110.03 55.0425 108.321 55.5631C106.531 56.1169 104.66 56.3975 102.629 56.3975Z" stroke="white" stroke-width="4" mask="url(#path-1-outside-1_11_55)"/>
<path d="M112.835 63.5984C108.647 63.658 103.704 64.5924 99.9648 67.2192C98.8092 68.0535 99.0086 69.1676 100.282 69.0088C104.542 68.492 113.926 67.378 115.599 69.5257C117.271 71.6328 113.732 80.5052 112.138 84.4454C111.662 85.6359 112.695 86.1169 113.769 85.2013C120.77 79.3137 122.601 67.0198 121.169 65.2293C120.454 64.3553 117.023 63.538 112.835 63.5984ZM2.87916 65.971C2.00325 66.0806 1.6064 67.1389 2.53144 67.9751C18.1295 82.0558 38.7762 90.5313 61.6933 90.5313C78.0445 90.5313 97.0603 85.4006 110.148 75.7345C112.296 74.1395 110.428 71.715 108.239 72.7071C93.5614 78.915 77.6051 81.9386 63.0851 81.9386C41.5626 81.9386 20.7544 76.0113 3.88545 66.2224C3.51695 66.0041 3.17207 65.9351 2.8801 65.971H2.87916Z" stroke="white" stroke-width="4" mask="url(#path-1-outside-1_11_55)"/>
</svg>
