<svg width="120" height="120" viewBox="0 0 120 120" fill="none" xmlns="http://www.w3.org/2000/svg">
<path d="M59.2848 0.000922078C54.336 0.024109 49.6124 0.440313 45.4536 1.16838C33.2049 3.30853 30.9825 7.78824 30.9825 16.0509V26.9615H59.9259V30.5983H20.1192C11.708 30.5983 4.34239 35.5986 2.03798 45.1145C-0.620405 56.0181 -0.737618 62.8235 2.03798 74.2094C4.09507 82.6854 9.00863 88.7232 17.421 88.7232H27.3736V75.6435C27.3736 66.1937 35.6382 57.8592 45.4548 57.8592H74.3654C82.4132 57.8592 88.8365 51.3042 88.8365 43.3117V16.052C88.8365 8.29255 82.2187 2.46453 74.3654 1.16954C69.3909 0.351044 64.2323 -0.0211055 59.2848 0.000922078ZM43.6322 8.776C46.6211 8.776 49.0638 11.2303 49.0638 14.2493C49.0638 17.2554 46.6223 19.6866 43.6322 19.6866C40.6315 19.6866 38.2017 17.2554 38.2017 14.2493C38.2005 11.2303 40.6315 8.776 43.6322 8.776Z" fill="url(#paint0_linear_11_10)"/>
<path d="M92.4455 30.5983V43.3117C92.4455 53.1661 83.9968 61.4612 74.3642 61.4612H45.4536C37.5347 61.4612 30.9825 68.1657 30.9825 76.0099V103.272C30.9825 111.029 37.802 115.593 45.4536 117.818C54.615 120.481 63.4013 120.963 74.3642 117.818C81.6502 115.73 88.8353 111.531 88.8353 103.272V92.3601H59.9259V88.7221H103.309C111.72 88.7221 114.857 82.9196 117.782 74.2082C120.804 65.2407 120.674 56.6163 117.782 45.1133C115.703 36.8298 111.733 30.5972 103.309 30.5972L92.4455 30.5983ZM76.1845 99.6338C79.1863 99.6338 81.6162 102.065 81.6162 105.073C81.6162 108.09 79.1852 110.544 76.1845 110.544C73.1956 110.544 70.7541 108.09 70.7541 105.073C70.7541 102.065 73.1956 99.6338 76.1845 99.6338Z" fill="url(#paint1_linear_11_10)"/>
<path d="M103.309 31.5977C107.235 31.5977 110.062 33.033 112.178 35.4131C114.329 37.833 115.79 41.2828 116.812 45.3564V45.3574C119.673 56.7361 119.778 65.1553 116.835 73.8887L116.834 73.8896C115.373 78.2404 113.907 81.6999 111.847 84.0771C109.843 86.3884 107.236 87.7217 103.309 87.7217H58.9258V93.3604H87.835V103.271C87.835 107.066 86.2017 109.919 83.6777 112.104C81.125 114.313 77.6621 115.832 74.0889 116.856C63.3218 119.946 54.7276 119.472 45.7324 116.857C38.1567 114.655 31.9824 110.302 31.9824 103.271V76.0098C31.9825 68.7077 38.0977 62.4609 45.4541 62.4609H74.3643C84.546 62.4609 93.4453 53.7213 93.4453 43.3115V31.5977H103.309ZM76.1846 98.6338C72.6436 98.6338 69.754 101.512 69.7539 105.073C69.7539 108.636 72.637 111.544 76.1846 111.544C79.7449 111.544 82.6162 108.635 82.6162 105.073C82.6161 101.514 79.7397 98.6338 76.1846 98.6338ZM59.2891 1.00098C63.8793 0.98054 68.6509 1.30301 73.2793 2.00977L74.2031 2.15625C81.7379 3.39889 87.8367 8.93205 87.8369 16.0518V43.3115C87.8369 50.7611 81.8515 56.8594 74.3652 56.8594H45.4551C35.0944 56.8594 26.374 65.6333 26.374 75.6436V87.7236H17.4209C13.4809 87.7236 10.4059 86.3201 8.05762 83.9424C5.68735 81.5423 4.01097 78.0989 3.00977 73.9736V73.9727L2.75977 72.9277C1.55487 67.7703 0.986594 63.591 1 59.4844C1.0143 55.1036 1.69116 50.76 3.00977 45.3516V45.3496C5.20068 36.3027 12.1486 31.5987 20.1191 31.5986H60.9258V25.9619H31.9824V16.0508C31.9824 11.9743 32.5408 9.10237 34.3818 6.9668C36.1214 4.94917 39.1572 3.41451 44.5215 2.3584L45.626 2.15332C49.7242 1.43584 54.3914 1.02394 59.2891 1.00098ZM43.6318 7.77637C40.0716 7.77654 37.2011 10.6856 37.2021 14.249C37.2021 17.8064 40.0781 20.6863 43.6318 20.6865C47.1737 20.6865 50.0635 17.8081 50.0635 14.249C50.0633 10.6843 47.1793 7.77637 43.6318 7.77637Z" stroke="white" stroke-width="2"/>
<defs>
<linearGradient id="paint0_linear_11_10" x1="88.9722" y1="94.7245" x2="65.3789" y2="61.2737" gradientUnits="userSpaceOnUse">
<stop stop-color="#5A9FD4"/>
<stop offset="1" stop-color="#306998"/>
</linearGradient>
<linearGradient id="paint1_linear_11_10" x1="88.9722" y1="94.7245" x2="65.3789" y2="61.2737" gradientUnits="userSpaceOnUse">
<stop stop-color="#FFD43B"/>
<stop offset="1" stop-color="#FFE873"/>
</linearGradient>
</defs>
</svg>
