<svg width="94" height="70" viewBox="0 0 94 70" fill="none" xmlns="http://www.w3.org/2000/svg">
<mask id="path-1-outside-1_11_55" maskUnits="userSpaceOnUse" x="-0.998047" y="12.25" width="95" height="58" fill="black">
<rect fill="white" x="-0.998047" y="12.25" width="95" height="58"/>
<path d="M27.2851 33.7325C27.2851 34.838 27.4042 35.7345 27.6147 36.39C27.8528 37.0462 28.1518 37.7634 28.5692 38.5386C28.7159 38.7768 28.7769 39.0149 28.7769 39.2253C28.7769 39.5216 28.5969 39.8206 28.2099 40.119L26.3299 41.3733C26.0613 41.5505 25.7927 41.6419 25.5553 41.6419C25.2562 41.6419 24.9572 41.4923 24.6581 41.2238C24.2568 40.7908 23.8971 40.321 23.5838 39.8206C23.2518 39.2465 22.9435 38.659 22.6597 38.0596C20.3339 40.8057 17.4085 42.179 13.8865 42.179C11.3814 42.179 9.38293 41.4619 7.91883 40.0304C6.45686 38.5968 5.71206 36.6869 5.71206 34.3001C5.71206 31.7646 6.60639 29.7052 8.42836 28.1553C10.2468 26.602 12.6633 25.8267 15.7389 25.8267C16.7523 25.8267 17.7954 25.9153 18.8995 26.0648C20.0051 26.2143 21.1396 26.4524 22.333 26.721V24.5426C22.333 22.2749 21.8539 20.6946 20.9299 19.7705C19.9732 18.8457 18.3624 18.3971 16.0649 18.3971C15.021 18.3971 13.9474 18.5161 12.8426 18.7847C11.7457 19.0461 10.6689 19.3854 9.62033 19.8002C9.14127 20.0079 8.78411 20.1269 8.57647 20.1879C8.36671 20.246 8.21718 20.2765 8.09812 20.2765C7.68001 20.2765 7.47237 19.9774 7.47237 19.3524V17.8904C7.47237 17.4113 7.53048 17.0542 7.68001 16.8444C7.82883 16.6368 8.09812 16.4291 8.51623 16.2187C9.55938 15.6815 10.8137 15.2336 12.275 14.8757C13.7369 14.4881 15.2896 14.3088 16.9309 14.3088C20.4799 14.3088 23.0764 15.1139 24.7488 16.7254C26.3901 18.3361 27.2235 20.7831 27.2235 24.0664V33.7325H27.2851ZM15.1713 38.2701C16.1542 38.2701 17.1697 38.0901 18.244 37.7329C19.3184 37.3729 20.2729 36.7174 21.0787 35.8231C21.5549 35.2561 21.9149 34.6297 22.0921 33.9132C22.2721 33.1961 22.3911 32.3329 22.3911 31.316V30.0652C21.4872 29.8431 20.5713 29.673 19.6479 29.5557C18.7168 29.4382 17.7793 29.3791 16.8409 29.3785C14.8425 29.3785 13.3805 29.7661 12.3947 30.5719C11.4118 31.3769 10.9335 32.5094 10.9335 34.0018C10.9335 35.4049 11.2906 36.4488 12.0376 37.1653C12.7547 37.9101 13.7986 38.2701 15.1713 38.2701ZM39.1304 41.4923C38.5932 41.4923 38.2361 41.4038 37.998 41.1933C37.757 41.0133 37.5494 40.598 37.3694 40.0311L30.3579 16.9656C30.1807 16.3682 30.0886 15.9805 30.0886 15.7701C30.0886 15.2939 30.3274 15.026 30.8065 15.026H33.7297C34.2966 15.026 34.6843 15.1139 34.8947 15.3243C35.1328 15.5015 35.3128 15.9196 35.49 16.4865L40.5031 36.2412L45.159 16.4872C45.3064 15.892 45.4864 15.5022 45.7238 15.325C45.9647 15.1443 46.3828 15.0253 46.92 15.0253H49.3061C49.873 15.0253 50.2614 15.1139 50.4995 15.3243C50.7376 15.5015 50.948 15.9196 51.0664 16.4865L55.7811 36.4793L60.9437 16.4872C61.1209 15.892 61.3314 15.5022 61.539 15.325C61.7771 15.1443 62.1676 15.0253 62.704 15.0253H65.4777C65.9568 15.0253 66.2254 15.2634 66.2254 15.7701C66.2254 15.9189 66.1949 16.0691 66.1644 16.2491C66.134 16.4291 66.0758 16.6672 65.9568 16.9932L58.7653 40.0608C58.5853 40.6561 58.3777 41.0438 58.1367 41.2231C57.8986 41.4038 57.511 41.5228 57.0043 41.5228H54.4389C53.8713 41.5228 53.4836 41.4307 53.2455 41.2238C53.0046 41.0133 52.7969 40.6257 52.6779 40.0304L48.0525 20.7831L43.4568 39.9999C43.308 40.598 43.1308 40.9857 42.8899 41.1933C42.651 41.4038 42.2336 41.4923 41.6965 41.4923H39.1304ZM77.4725 42.2981C75.9227 42.2981 74.3693 42.1181 72.8776 41.7609C71.3851 41.4038 70.2229 41.0133 69.4477 40.5675C68.9686 40.299 68.6419 40.0006 68.5229 39.7313C68.4052 39.4682 68.3439 39.1833 68.3429 38.8951V37.3729C68.3429 36.7479 68.581 36.4488 69.0303 36.4488C69.2074 36.4488 69.3867 36.4793 69.5667 36.5402C69.7439 36.5983 70.0125 36.7174 70.3108 36.8364C71.3656 37.2997 72.4663 37.6503 73.5947 37.8824C74.7874 38.1205 75.9503 38.2396 77.1458 38.2396C79.0259 38.2396 80.4872 37.9101 81.5006 37.2546C82.5161 36.5983 83.0532 35.6431 83.0532 34.4199C83.0532 33.5837 82.7847 32.8998 82.2482 32.3322C81.711 31.7653 80.6948 31.2579 79.2336 30.7795L74.9065 29.4366C72.7281 28.7499 71.1166 27.7372 70.1344 26.3943C69.1493 25.0798 68.6419 23.6178 68.6419 22.0679C68.6419 20.8136 68.9112 19.7095 69.4477 18.7543C69.9804 17.7943 70.7128 16.9599 71.5956 16.3072C72.4899 15.6234 73.5062 15.1139 74.6995 14.7567C75.8922 14.3995 77.1458 14.25 78.4583 14.25C79.1145 14.25 79.8005 14.2805 80.4567 14.3691C81.1434 14.4576 81.7692 14.5767 82.397 14.6957C82.9923 14.8453 83.5599 14.9948 84.0971 15.1748C84.6343 15.3548 85.0524 15.532 85.3514 15.712C85.7695 15.9501 86.0679 16.1882 86.2451 16.4561C86.4251 16.697 86.5136 17.0244 86.5136 17.4418V18.845C86.5136 19.4714 86.2755 19.8002 85.8269 19.8002C85.5888 19.8002 85.2012 19.6791 84.6952 19.4409C82.9923 18.6657 81.0825 18.278 78.965 18.278C77.2649 18.278 75.9227 18.5466 74.9979 19.1142C74.0703 19.6791 73.5947 20.5457 73.5947 21.7689C73.5947 22.6051 73.8931 23.3216 74.4884 23.8864C75.0865 24.4533 76.1913 25.0216 77.7716 25.5276L82.0094 26.8705C84.158 27.5572 85.7086 28.5118 86.6327 29.7357C87.5575 30.9595 88.0061 32.3627 88.0061 33.9132C88.0061 35.1973 87.7368 36.3602 87.2308 37.3729C86.6936 38.3891 85.9765 39.2834 85.0524 39.9999C84.1276 40.7447 83.0228 41.2819 81.7415 41.6723C80.3986 42.0876 78.9954 42.2981 77.4725 42.2981Z"/>
<path d="M85.1268 47.6988C81.986 47.7434 78.2783 48.4443 75.4741 50.4144C74.6074 51.0401 74.7569 51.8756 75.7122 51.7566C78.9069 51.369 85.9453 50.5334 87.1996 52.1442C88.454 53.7245 85.7993 60.3789 84.6038 63.334C84.2466 64.2269 85.0219 64.5876 85.8269 63.9009C91.0781 59.4853 92.4515 50.2649 91.3772 48.9219C90.8407 48.2664 88.2676 47.6534 85.1268 47.6988ZM2.65985 49.4782C2.00293 49.5605 1.70529 50.3542 2.39907 50.9813C14.0977 61.5418 29.5826 67.8985 46.7705 67.8985C59.0339 67.8985 73.2957 64.0504 83.1114 56.8008C84.7221 55.6046 83.3218 53.7862 81.6799 54.5303C70.6715 59.1862 58.7043 61.4539 47.8143 61.4539C31.6725 61.4539 16.0663 57.0085 3.41458 49.6668C3.1382 49.5031 2.87954 49.4513 2.66056 49.4782H2.65985Z"/>
</mask>
<path d="M27.2851 33.7325C27.2851 34.838 27.4042 35.7345 27.6147 36.39C27.8528 37.0462 28.1518 37.7634 28.5692 38.5386C28.7159 38.7768 28.7769 39.0149 28.7769 39.2253C28.7769 39.5216 28.5969 39.8206 28.2099 40.119L26.3299 41.3733C26.0613 41.5505 25.7927 41.6419 25.5553 41.6419C25.2562 41.6419 24.9572 41.4923 24.6581 41.2238C24.2568 40.7908 23.8971 40.321 23.5838 39.8206C23.2518 39.2465 22.9435 38.659 22.6597 38.0596C20.3339 40.8057 17.4085 42.179 13.8865 42.179C11.3814 42.179 9.38293 41.4619 7.91883 40.0304C6.45686 38.5968 5.71206 36.6869 5.71206 34.3001C5.71206 31.7646 6.60639 29.7052 8.42836 28.1553C10.2468 26.602 12.6633 25.8267 15.7389 25.8267C16.7523 25.8267 17.7954 25.9153 18.8995 26.0648C20.0051 26.2143 21.1396 26.4524 22.333 26.721V24.5426C22.333 22.2749 21.8539 20.6946 20.9299 19.7705C19.9732 18.8457 18.3624 18.3971 16.0649 18.3971C15.021 18.3971 13.9474 18.5161 12.8426 18.7847C11.7457 19.0461 10.6689 19.3854 9.62033 19.8002C9.14127 20.0079 8.78411 20.1269 8.57647 20.1879C8.36671 20.246 8.21718 20.2765 8.09812 20.2765C7.68001 20.2765 7.47237 19.9774 7.47237 19.3524V17.8904C7.47237 17.4113 7.53048 17.0542 7.68001 16.8444C7.82883 16.6368 8.09812 16.4291 8.51623 16.2187C9.55938 15.6815 10.8137 15.2336 12.275 14.8757C13.7369 14.4881 15.2896 14.3088 16.9309 14.3088C20.4799 14.3088 23.0764 15.1139 24.7488 16.7254C26.3901 18.3361 27.2235 20.7831 27.2235 24.0664V33.7325H27.2851ZM15.1713 38.2701C16.1542 38.2701 17.1697 38.0901 18.244 37.7329C19.3184 37.3729 20.2729 36.7174 21.0787 35.8231C21.5549 35.2561 21.9149 34.6297 22.0921 33.9132C22.2721 33.1961 22.3911 32.3329 22.3911 31.316V30.0652C21.4872 29.8431 20.5713 29.673 19.6479 29.5557C18.7168 29.4382 17.7793 29.3791 16.8409 29.3785C14.8425 29.3785 13.3805 29.7661 12.3947 30.5719C11.4118 31.3769 10.9335 32.5094 10.9335 34.0018C10.9335 35.4049 11.2906 36.4488 12.0376 37.1653C12.7547 37.9101 13.7986 38.2701 15.1713 38.2701ZM39.1304 41.4923C38.5932 41.4923 38.2361 41.4038 37.998 41.1933C37.757 41.0133 37.5494 40.598 37.3694 40.0311L30.3579 16.9656C30.1807 16.3682 30.0886 15.9805 30.0886 15.7701C30.0886 15.2939 30.3274 15.026 30.8065 15.026H33.7297C34.2966 15.026 34.6843 15.1139 34.8947 15.3243C35.1328 15.5015 35.3128 15.9196 35.49 16.4865L40.5031 36.2412L45.159 16.4872C45.3064 15.892 45.4864 15.5022 45.7238 15.325C45.9647 15.1443 46.3828 15.0253 46.92 15.0253H49.3061C49.873 15.0253 50.2614 15.1139 50.4995 15.3243C50.7376 15.5015 50.948 15.9196 51.0664 16.4865L55.7811 36.4793L60.9437 16.4872C61.1209 15.892 61.3314 15.5022 61.539 15.325C61.7771 15.1443 62.1676 15.0253 62.704 15.0253H65.4777C65.9568 15.0253 66.2254 15.2634 66.2254 15.7701C66.2254 15.9189 66.1949 16.0691 66.1644 16.2491C66.134 16.4291 66.0758 16.6672 65.9568 16.9932L58.7653 40.0608C58.5853 40.6561 58.3777 41.0438 58.1367 41.2231C57.8986 41.4038 57.511 41.5228 57.0043 41.5228H54.4389C53.8713 41.5228 53.4836 41.4307 53.2455 41.2238C53.0046 41.0133 52.7969 40.6257 52.6779 40.0304L48.0525 20.7831L43.4568 39.9999C43.308 40.598 43.1308 40.9857 42.8899 41.1933C42.651 41.4038 42.2336 41.4923 41.6965 41.4923H39.1304ZM77.4725 42.2981C75.9227 42.2981 74.3693 42.1181 72.8776 41.7609C71.3851 41.4038 70.2229 41.0133 69.4477 40.5675C68.9686 40.299 68.6419 40.0006 68.5229 39.7313C68.4052 39.4682 68.3439 39.1833 68.3429 38.8951V37.3729C68.3429 36.7479 68.581 36.4488 69.0303 36.4488C69.2074 36.4488 69.3867 36.4793 69.5667 36.5402C69.7439 36.5983 70.0125 36.7174 70.3108 36.8364C71.3656 37.2997 72.4663 37.6503 73.5947 37.8824C74.7874 38.1205 75.9503 38.2396 77.1458 38.2396C79.0259 38.2396 80.4872 37.9101 81.5006 37.2546C82.5161 36.5983 83.0532 35.6431 83.0532 34.4199C83.0532 33.5837 82.7847 32.8998 82.2482 32.3322C81.711 31.7653 80.6948 31.2579 79.2336 30.7795L74.9065 29.4366C72.7281 28.7499 71.1166 27.7372 70.1344 26.3943C69.1493 25.0798 68.6419 23.6178 68.6419 22.0679C68.6419 20.8136 68.9112 19.7095 69.4477 18.7543C69.9804 17.7943 70.7128 16.9599 71.5956 16.3072C72.4899 15.6234 73.5062 15.1139 74.6995 14.7567C75.8922 14.3995 77.1458 14.25 78.4583 14.25C79.1145 14.25 79.8005 14.2805 80.4567 14.3691C81.1434 14.4576 81.7692 14.5767 82.397 14.6957C82.9923 14.8453 83.5599 14.9948 84.0971 15.1748C84.6343 15.3548 85.0524 15.532 85.3514 15.712C85.7695 15.9501 86.0679 16.1882 86.2451 16.4561C86.4251 16.697 86.5136 17.0244 86.5136 17.4418V18.845C86.5136 19.4714 86.2755 19.8002 85.8269 19.8002C85.5888 19.8002 85.2012 19.6791 84.6952 19.4409C82.9923 18.6657 81.0825 18.278 78.965 18.278C77.2649 18.278 75.9227 18.5466 74.9979 19.1142C74.0703 19.6791 73.5947 20.5457 73.5947 21.7689C73.5947 22.6051 73.8931 23.3216 74.4884 23.8864C75.0865 24.4533 76.1913 25.0216 77.7716 25.5276L82.0094 26.8705C84.158 27.5572 85.7086 28.5118 86.6327 29.7357C87.5575 30.9595 88.0061 32.3627 88.0061 33.9132C88.0061 35.1973 87.7368 36.3602 87.2308 37.3729C86.6936 38.3891 85.9765 39.2834 85.0524 39.9999C84.1276 40.7447 83.0228 41.2819 81.7415 41.6723C80.3986 42.0876 78.9954 42.2981 77.4725 42.2981Z" fill="#252F3E"/>
<path d="M85.1268 47.6988C81.986 47.7434 78.2783 48.4443 75.4741 50.4144C74.6074 51.0401 74.7569 51.8756 75.7122 51.7566C78.9069 51.369 85.9453 50.5334 87.1996 52.1442C88.454 53.7245 85.7993 60.3789 84.6038 63.334C84.2466 64.2269 85.0219 64.5876 85.8269 63.9009C91.0781 59.4853 92.4515 50.2649 91.3772 48.9219C90.8407 48.2664 88.2676 47.6534 85.1268 47.6988ZM2.65985 49.4782C2.00293 49.5605 1.70529 50.3542 2.39907 50.9813C14.0977 61.5418 29.5826 67.8985 46.7705 67.8985C59.0339 67.8985 73.2957 64.0504 83.1114 56.8008C84.7221 55.6046 83.3218 53.7862 81.6799 54.5303C70.6715 59.1862 58.7043 61.4539 47.8143 61.4539C31.6725 61.4539 16.0663 57.0085 3.41458 49.6668C3.1382 49.5031 2.87954 49.4513 2.66056 49.4782H2.65985Z" fill="#FF9900"/>
<path d="M27.2851 33.7325C27.2851 34.838 27.4042 35.7345 27.6147 36.39C27.8528 37.0462 28.1518 37.7634 28.5692 38.5386C28.7159 38.7768 28.7769 39.0149 28.7769 39.2253C28.7769 39.5216 28.5969 39.8206 28.2099 40.119L26.3299 41.3733C26.0613 41.5505 25.7927 41.6419 25.5553 41.6419C25.2562 41.6419 24.9572 41.4923 24.6581 41.2238C24.2568 40.7908 23.8971 40.321 23.5838 39.8206C23.2518 39.2465 22.9435 38.659 22.6597 38.0596C20.3339 40.8057 17.4085 42.179 13.8865 42.179C11.3814 42.179 9.38293 41.4619 7.91883 40.0304C6.45686 38.5968 5.71206 36.6869 5.71206 34.3001C5.71206 31.7646 6.60639 29.7052 8.42836 28.1553C10.2468 26.602 12.6633 25.8267 15.7389 25.8267C16.7523 25.8267 17.7954 25.9153 18.8995 26.0648C20.0051 26.2143 21.1396 26.4524 22.333 26.721V24.5426C22.333 22.2749 21.8539 20.6946 20.9299 19.7705C19.9732 18.8457 18.3624 18.3971 16.0649 18.3971C15.021 18.3971 13.9474 18.5161 12.8426 18.7847C11.7457 19.0461 10.6689 19.3854 9.62033 19.8002C9.14127 20.0079 8.78411 20.1269 8.57647 20.1879C8.36671 20.246 8.21718 20.2765 8.09812 20.2765C7.68001 20.2765 7.47237 19.9774 7.47237 19.3524V17.8904C7.47237 17.4113 7.53048 17.0542 7.68001 16.8444C7.82883 16.6368 8.09812 16.4291 8.51623 16.2187C9.55938 15.6815 10.8137 15.2336 12.275 14.8757C13.7369 14.4881 15.2896 14.3088 16.9309 14.3088C20.4799 14.3088 23.0764 15.1139 24.7488 16.7254C26.3901 18.3361 27.2235 20.7831 27.2235 24.0664V33.7325H27.2851ZM15.1713 38.2701C16.1542 38.2701 17.1697 38.0901 18.244 37.7329C19.3184 37.3729 20.2729 36.7174 21.0787 35.8231C21.5549 35.2561 21.9149 34.6297 22.0921 33.9132C22.2721 33.1961 22.3911 32.3329 22.3911 31.316V30.0652C21.4872 29.8431 20.5713 29.673 19.6479 29.5557C18.7168 29.4382 17.7793 29.3791 16.8409 29.3785C14.8425 29.3785 13.3805 29.7661 12.3947 30.5719C11.4118 31.3769 10.9335 32.5094 10.9335 34.0018C10.9335 35.4049 11.2906 36.4488 12.0376 37.1653C12.7547 37.9101 13.7986 38.2701 15.1713 38.2701ZM39.1304 41.4923C38.5932 41.4923 38.2361 41.4038 37.998 41.1933C37.757 41.0133 37.5494 40.598 37.3694 40.0311L30.3579 16.9656C30.1807 16.3682 30.0886 15.9805 30.0886 15.7701C30.0886 15.2939 30.3274 15.026 30.8065 15.026H33.7297C34.2966 15.026 34.6843 15.1139 34.8947 15.3243C35.1328 15.5015 35.3128 15.9196 35.49 16.4865L40.5031 36.2412L45.159 16.4872C45.3064 15.892 45.4864 15.5022 45.7238 15.325C45.9647 15.1443 46.3828 15.0253 46.92 15.0253H49.3061C49.873 15.0253 50.2614 15.1139 50.4995 15.3243C50.7376 15.5015 50.948 15.9196 51.0664 16.4865L55.7811 36.4793L60.9437 16.4872C61.1209 15.892 61.3314 15.5022 61.539 15.325C61.7771 15.1443 62.1676 15.0253 62.704 15.0253H65.4777C65.9568 15.0253 66.2254 15.2634 66.2254 15.7701C66.2254 15.9189 66.1949 16.0691 66.1644 16.2491C66.134 16.4291 66.0758 16.6672 65.9568 16.9932L58.7653 40.0608C58.5853 40.6561 58.3777 41.0438 58.1367 41.2231C57.8986 41.4038 57.511 41.5228 57.0043 41.5228H54.4389C53.8713 41.5228 53.4836 41.4307 53.2455 41.2238C53.0046 41.0133 52.7969 40.6257 52.6779 40.0304L48.0525 20.7831L43.4568 39.9999C43.308 40.598 43.1308 40.9857 42.8899 41.1933C42.651 41.4038 42.2336 41.4923 41.6965 41.4923H39.1304ZM77.4725 42.2981C75.9227 42.2981 74.3693 42.1181 72.8776 41.7609C71.3851 41.4038 70.2229 41.0133 69.4477 40.5675C68.9686 40.299 68.6419 40.0006 68.5229 39.7313C68.4052 39.4682 68.3439 39.1833 68.3429 38.8951V37.3729C68.3429 36.7479 68.581 36.4488 69.0303 36.4488C69.2074 36.4488 69.3867 36.4793 69.5667 36.5402C69.7439 36.5983 70.0125 36.7174 70.3108 36.8364C71.3656 37.2997 72.4663 37.6503 73.5947 37.8824C74.7874 38.1205 75.9503 38.2396 77.1458 38.2396C79.0259 38.2396 80.4872 37.9101 81.5006 37.2546C82.5161 36.5983 83.0532 35.6431 83.0532 34.4199C83.0532 33.5837 82.7847 32.8998 82.2482 32.3322C81.711 31.7653 80.6948 31.2579 79.2336 30.7795L74.9065 29.4366C72.7281 28.7499 71.1166 27.7372 70.1344 26.3943C69.1493 25.0798 68.6419 23.6178 68.6419 22.0679C68.6419 20.8136 68.9112 19.7095 69.4477 18.7543C69.9804 17.7943 70.7128 16.9599 71.5956 16.3072C72.4899 15.6234 73.5062 15.1139 74.6995 14.7567C75.8922 14.3995 77.1458 14.25 78.4583 14.25C79.1145 14.25 79.8005 14.2805 80.4567 14.3691C81.1434 14.4576 81.7692 14.5767 82.397 14.6957C82.9923 14.8453 83.5599 14.9948 84.0971 15.1748C84.6343 15.3548 85.0524 15.532 85.3514 15.712C85.7695 15.9501 86.0679 16.1882 86.2451 16.4561C86.4251 16.697 86.5136 17.0244 86.5136 17.4418V18.845C86.5136 19.4714 86.2755 19.8002 85.8269 19.8002C85.5888 19.8002 85.2012 19.6791 84.6952 19.4409C82.9923 18.6657 81.0825 18.278 78.965 18.278C77.2649 18.278 75.9227 18.5466 74.9979 19.1142C74.0703 19.6791 73.5947 20.5457 73.5947 21.7689C73.5947 22.6051 73.8931 23.3216 74.4884 23.8864C75.0865 24.4533 76.1913 25.0216 77.7716 25.5276L82.0094 26.8705C84.158 27.5572 85.7086 28.5118 86.6327 29.7357C87.5575 30.9595 88.0061 32.3627 88.0061 33.9132C88.0061 35.1973 87.7368 36.3602 87.2308 37.3729C86.6936 38.3891 85.9765 39.2834 85.0524 39.9999C84.1276 40.7447 83.0228 41.2819 81.7415 41.6723C80.3986 42.0876 78.9954 42.2981 77.4725 42.2981Z" stroke="white" stroke-width="4" mask="url(#path-1-outside-1_11_55)"/>
<path d="M85.1268 47.6988C81.986 47.7434 78.2783 48.4443 75.4741 50.4144C74.6074 51.0401 74.7569 51.8756 75.7122 51.7566C78.9069 51.369 85.9453 50.5334 87.1996 52.1442C88.454 53.7245 85.7993 60.3789 84.6038 63.334C84.2466 64.2269 85.0219 64.5876 85.8269 63.9009C91.0781 59.4853 92.4515 50.2649 91.3772 48.9219C90.8407 48.2664 88.2676 47.6534 85.1268 47.6988ZM2.65985 49.4782C2.00293 49.5605 1.70529 50.3542 2.39907 50.9813C14.0977 61.5418 29.5826 67.8985 46.7705 67.8985C59.0339 67.8985 73.2957 64.0504 83.1114 56.8008C84.7221 55.6046 83.3218 53.7862 81.6799 54.5303C70.6715 59.1862 58.7043 61.4539 47.8143 61.4539C31.6725 61.4539 16.0663 57.0085 3.41458 49.6668C3.1382 49.5031 2.87954 49.4513 2.66056 49.4782H2.65985Z" stroke="white" stroke-width="4" mask="url(#path-1-outside-1_11_55)"/>
</svg>
