<svg width="159" height="127" viewBox="0 0 159 127" fill="none" xmlns="http://www.w3.org/2000/svg">
<path d="M126.667 28.4961C132.515 33.7462 135.696 39.4933 136.494 46.0742L136.627 47.166L137.701 46.9307C140.762 46.2589 144.295 46.166 147.503 46.5703C150.725 46.9765 153.479 47.8659 155.092 49.0479V49.0488L157.776 51.126L157.501 51.7734L157.495 51.7861C156.48 54.256 156.131 55.0053 156.006 55.2549L155.997 55.2715L155.989 55.2891C153.153 61.5156 149.014 64.597 144.973 66.1338C140.893 67.6852 136.858 67.6834 134.214 67.6221L133.494 67.6055L133.25 68.2832C126.517 86.9646 116.008 101.381 102.385 111.13C88.763 120.877 71.9684 126 52.5928 126C34.8188 126 21.3433 119.732 12.3271 107.482C6.38151 99.3977 3.39236 90.0567 2.01953 81.8584C0.645835 73.6548 0.901706 66.6626 1.39258 63.3369L1.48145 62.752L108.549 62.751C114.41 62.8742 118.831 60.9986 121.109 59.5508L121.915 59.04L121.441 58.2119C119.537 54.8752 118.829 50.9818 118.572 48.585L118.527 48.126C118.073 41.4285 119.529 34.4851 122.38 29.5469L124.125 26.54L126.667 28.4961ZM105.34 42.2227V57.3779H90.9336V42.2227H105.34ZM85.9277 42.2227V57.3779H71.5205V42.2227H85.9277ZM66.5146 42.2227V57.3779H52.1084V42.2227H66.5146ZM47.1387 42.2227V57.3779H32.7314V42.2227H47.1387ZM27.7256 42.2227V57.3779H13.3193V42.2227H27.7256ZM85.9277 21.6113V36.7666H71.5205V21.6113H85.9277ZM66.5146 21.6113V36.7666H52.1084V21.6113H66.5146ZM47.1387 21.6113V36.7666H32.7314V21.6113H47.1387ZM85.9277 1V16.1553H71.5205V1H85.9277Z" fill="#FFDB6E" stroke="white" stroke-width="2"/>
</svg>
