<svg width="121" height="118" viewBox="0 0 121 118" fill="none" xmlns="http://www.w3.org/2000/svg">
<path d="M21.959 86.2979L22.083 86.3535L22.0898 86.3564L22.1836 86.3975M21.959 86.2979C21.8953 86.4529 21.9156 86.5825 21.9395 86.6572C22.011 86.627 22.121 86.5569 22.1963 86.4062L22.1836 86.3975M21.959 86.2979C21.9617 86.2913 21.9648 86.2849 21.9678 86.2783M21.959 86.2979H21.958C21.961 86.2911 21.9647 86.2848 21.9678 86.2783M22.1836 86.3975L22.1973 86.4033C22.1998 86.3983 22.2036 86.3939 22.2061 86.3887C22.261 86.2614 22.2575 86.1524 22.2422 86.0752L22.2295 86.0625M22.1836 86.3975L22.0996 86.3359M22.0996 86.3359L22.1055 86.3223M22.0996 86.3359L22.1055 86.3223M22.082 86.3242L22.0859 86.3271L22.0928 86.332L22.0996 86.3359M22.1094 86.3154L22.2061 86.3643L22.1055 86.3223M22.1055 86.3223L22.2061 86.3643M22.1055 86.3223L22.1094 86.3154M22.0908 86.3164L22.0986 86.3193L22.1055 86.3223M22.1055 86.3223L22.2295 86.0625M22.1055 86.3223L22.0908 86.3164M22.2061 86.3643L22.1094 86.3154M22.1094 86.3154L22.2295 86.0625M22.2295 86.0625L22.2012 86.0342C22.1361 86.0669 22.0486 86.1298 21.9824 86.251M22.0928 86.332L22.0986 86.3193M22.0928 86.332L22.0986 86.3193M22.0859 86.3271L22.0908 86.3164M22.0859 86.3271L22.0947 86.3076M22.0908 86.3057L22.1797 86.1201L22.0908 86.3164M21.9824 86.251L22.0947 86.3076M21.9824 86.251L22.0469 86.2979M22.0947 86.3076L22.0908 86.3057L21.9824 86.251M21.9824 86.251C21.9776 86.2599 21.9724 86.2688 21.9678 86.2783M21.9824 86.251L21.9805 86.25C21.9757 86.2594 21.9719 86.2691 21.9678 86.2783M22.0947 86.3076L22.1797 86.1201M22.0469 86.2979L22.0869 86.3145L22.082 86.3242M22.082 86.3242L22.0869 86.3145M22.082 86.3242L22.0469 86.2979M22.0869 86.3145L22.0469 86.2979M22.1797 86.1201L22.0908 86.3057M22.2197 86.0332L22.2246 86.0371L22.2344 86.0439C22.2326 86.0372 22.2324 86.0304 22.2305 86.0244M22.2246 86.0371L22.2305 86.0244M22.2246 86.0371L22.2305 86.0244M22.2217 86.0234C22.223 86.0228 22.2243 86.022 22.2256 86.0215C22.2267 86.021 22.2275 86.02 22.2285 86.0195C22.2291 86.0212 22.2299 86.0227 22.2305 86.0244M22.2197 86.0332L22.2256 86.0215M22.2217 86.0234C22.2184 86.0249 22.2153 86.0267 22.2119 86.0283L22.2178 86.0322L22.2197 86.0332M22.2197 86.0332L22.2256 86.0215M22.2178 86.0322L22.2217 86.0234M22.2178 86.0322L22.2217 86.0234M60.3877 1C93.1853 1 119.776 27.5891 119.777 60.3877C119.777 86.5924 102.812 108.829 79.2627 116.71C77.9967 116.942 77.3243 116.647 76.9668 116.32C76.572 115.96 76.3662 115.387 76.3662 114.785C76.3662 113.795 76.3838 111.679 76.4014 108.789C76.4189 105.904 76.4355 102.256 76.4355 98.2129C76.4355 93.5384 75.1543 90.0608 73.4004 87.7773C79.5775 86.9193 85.8871 85.1559 90.8105 81.0352C96.3032 76.4379 99.913 69.0498 99.9131 57.2344C99.9131 50.6183 97.6349 45.146 93.8467 40.8096C94.6623 38.5045 96.1261 32.4979 93.0352 24.6768L92.8613 24.2363L92.4102 24.0918L92.123 24.9893C92.4106 24.0918 92.4092 24.0911 92.4082 24.0908H92.4062C92.4048 24.0904 92.403 24.0894 92.4014 24.0889C92.3982 24.0879 92.3944 24.0871 92.3906 24.0859C92.3831 24.0837 92.3743 24.081 92.3643 24.0781C92.3439 24.0723 92.3186 24.0652 92.2881 24.0576C92.2269 24.0423 92.1452 24.0244 92.043 24.0059C91.8383 23.9688 91.5513 23.9302 91.1797 23.9131C90.4357 23.8789 89.3575 23.9285 87.9258 24.2305C85.1266 24.8208 80.985 26.377 75.3369 30.1514C70.5463 28.8677 65.4476 28.2238 60.3926 28.2012H60.3838C55.3255 28.2238 50.2287 28.8685 45.4463 30.1523C39.7919 26.3785 35.6458 24.8227 32.8438 24.2324C31.4106 23.9305 30.3316 23.8819 29.5869 23.916C29.2149 23.9331 28.9275 23.9708 28.7227 24.0078C28.6203 24.0263 28.5387 24.0443 28.4775 24.0596C28.4471 24.0672 28.4217 24.0743 28.4014 24.0801C28.3912 24.083 28.3817 24.0856 28.374 24.0879C28.3703 24.089 28.3664 24.0899 28.3633 24.0908C28.3618 24.0913 28.3607 24.0924 28.3594 24.0928H28.3574C28.3564 24.0931 28.3553 24.0936 28.6602 25.0459L28.3555 24.0938L27.9033 24.2383L27.7295 24.6797C24.6463 32.5013 26.1092 38.5074 26.9258 40.8125C23.1468 45.1471 20.8525 50.619 20.8525 57.2363C20.8526 69.0247 24.4566 76.4166 29.9365 81.0283C34.8523 85.1651 41.1525 86.9506 47.3193 87.8232C46.0904 89.4378 45.1024 91.6481 44.6318 94.4502C42.935 95.1503 40.3242 95.9351 37.5635 95.6885C34.593 95.423 31.3583 93.9633 28.834 89.6484C28.8331 89.6469 28.8323 89.6448 28.8311 89.6426C28.8285 89.638 28.8244 89.6323 28.8203 89.625C28.812 89.6104 28.8007 89.5904 28.7861 89.5654C28.7568 89.5152 28.7149 89.4444 28.6602 89.3564C28.5508 89.1806 28.3897 88.9341 28.1787 88.6396C27.7577 88.0521 27.1304 87.2658 26.2998 86.4639C24.6448 84.866 22.1204 83.1487 18.7725 82.9141L18.7441 82.9121H18.6299C18.5803 82.9125 18.5106 82.9141 18.4258 82.917C18.257 82.9228 18.0226 82.9349 17.7588 82.9639C17.2706 83.0175 16.5295 83.1404 15.9463 83.4727C15.6441 83.6449 15.291 83.9258 15.0957 84.374C14.8869 84.8535 14.9289 85.3588 15.1201 85.8145C15.461 86.6266 16.3471 87.4645 17.7256 88.4072L17.792 88.4531L17.8604 88.4844V88.4854C17.8626 88.4865 17.8684 88.4888 17.877 88.4932C17.8952 88.5026 17.9277 88.5194 17.9727 88.5449C18.0628 88.596 18.2039 88.6816 18.3867 88.8066C18.7524 89.0567 19.2846 89.4675 19.9043 90.0889C21.1382 91.3261 22.7336 93.4124 24.0547 96.7598C24.0571 96.7668 24.0602 96.7749 24.0635 96.7842C24.0735 96.8122 24.0873 96.8503 24.1055 96.8975C24.1419 96.9919 24.1956 97.1234 24.2686 97.2852C24.4145 97.6086 24.6392 98.0554 24.9629 98.5742C25.6101 99.6115 26.6577 100.944 28.2676 102.15C31.3686 104.474 36.4109 106.223 44.3486 104.76C44.3765 109.349 44.4219 113.462 44.4219 114.786C44.4218 115.374 44.2151 115.944 43.8164 116.308C43.4542 116.638 42.7836 116.933 41.5449 116.718C17.9827 108.843 1 86.6009 1 60.3877C1.00016 27.5873 27.5932 1.00016 60.3877 1Z" fill="#181616" stroke="white" stroke-width="2"/>
</svg>
