<svg width="93" height="70" viewBox="0 0 93 70" fill="none" xmlns="http://www.w3.org/2000/svg">
<mask id="path-1-outside-1_11_55" maskUnits="userSpaceOnUse" x="-0.499023" y="12.25" width="94" height="58" fill="black">
<rect fill="white" x="-0.499023" y="12.25" width="94" height="58"/>
<path d="M26.7842 33.7325C26.7842 34.838 26.9032 35.7345 27.1137 36.39C27.3518 37.0462 27.6508 37.7634 28.0682 38.5386C28.2149 38.7768 28.2759 39.0149 28.2759 39.2253C28.2759 39.5216 28.0959 39.8206 27.709 40.119L25.8289 41.3733C25.5603 41.5505 25.2917 41.6419 25.0543 41.6419C24.7553 41.6419 24.4562 41.4923 24.1571 41.2238C23.7558 40.7908 23.3961 40.321 23.0828 39.8206C22.7508 39.2465 22.4425 38.659 22.1587 38.0596C19.8329 40.8057 16.9075 42.179 13.3855 42.179C10.8804 42.179 8.88195 41.4619 7.41785 40.0304C5.95589 38.5968 5.21108 36.6869 5.21108 34.3001C5.21108 31.7646 6.10541 29.7052 7.92738 28.1553C9.74581 26.602 12.1623 25.8267 15.2379 25.8267C16.2513 25.8267 17.2945 25.9153 18.3986 26.0648C19.5041 26.2143 20.6386 26.4524 21.832 26.721V24.5426C21.832 22.2749 21.353 20.6946 20.4289 19.7705C19.4722 18.8457 17.8614 18.3971 15.5639 18.3971C14.5201 18.3971 13.4464 18.5161 12.3416 18.7847C11.2447 19.0461 10.1679 19.3854 9.11935 19.8002C8.6403 20.0079 8.28313 20.1269 8.07549 20.1879C7.86573 20.246 7.7162 20.2765 7.59715 20.2765C7.17904 20.2765 6.9714 19.9774 6.9714 19.3524V17.8904C6.9714 17.4113 7.02951 17.0542 7.17904 16.8444C7.32785 16.6368 7.59715 16.4291 8.01526 16.2187C9.05841 15.6815 10.3127 15.2336 11.774 14.8757C13.236 14.4881 14.7886 14.3088 16.4299 14.3088C19.9789 14.3088 22.5754 15.1139 24.2479 16.7254C25.8891 18.3361 26.7225 20.7831 26.7225 24.0664V33.7325H26.7842ZM14.6703 38.2701C15.6532 38.2701 16.6687 38.0901 17.7431 37.7329C18.8174 37.3729 19.7719 36.7174 20.5777 35.8231C21.0539 35.2561 21.4139 34.6297 21.5911 33.9132C21.7711 33.1961 21.8901 32.3329 21.8901 31.316V30.0652C20.9862 29.8431 20.0703 29.673 19.1469 29.5557C18.2158 29.4382 17.2783 29.3791 16.3399 29.3785C14.3415 29.3785 12.8795 29.7661 11.8938 30.5719C10.9108 31.3769 10.4325 32.5094 10.4325 34.0018C10.4325 35.4049 10.7897 36.4488 11.5366 37.1653C12.2538 37.9101 13.2976 38.2701 14.6703 38.2701ZM38.6294 41.4923C38.0923 41.4923 37.7351 41.4038 37.497 41.1933C37.256 41.0133 37.0484 40.598 36.8684 40.0311L29.8569 16.9656C29.6797 16.3682 29.5876 15.9805 29.5876 15.7701C29.5876 15.2939 29.8264 15.026 30.3055 15.026H33.2287C33.7956 15.026 34.1833 15.1139 34.3938 15.3243C34.6319 15.5015 34.8119 15.9196 34.989 16.4865L40.0021 36.2412L44.658 16.4872C44.8054 15.892 44.9854 15.5022 45.2228 15.325C45.4638 15.1443 45.8819 15.0253 46.419 15.0253H48.8051C49.372 15.0253 49.7604 15.1139 49.9985 15.3243C50.2366 15.5015 50.4471 15.9196 50.5654 16.4865L55.2801 36.4793L60.4427 16.4872C60.6199 15.892 60.8304 15.5022 61.038 15.325C61.2761 15.1443 61.6666 15.0253 62.2031 15.0253H64.9768C65.4558 15.0253 65.7244 15.2634 65.7244 15.7701C65.7244 15.9189 65.6939 16.0691 65.6634 16.2491C65.633 16.4291 65.5749 16.6672 65.4558 16.9932L58.2643 40.0608C58.0843 40.6561 57.8767 41.0438 57.6357 41.2231C57.3976 41.4038 57.01 41.5228 56.5033 41.5228H53.9379C53.3703 41.5228 52.9827 41.4307 52.7446 41.2238C52.5036 41.0133 52.296 40.6257 52.1769 40.0304L47.5515 20.7831L42.9558 39.9999C42.807 40.598 42.6298 40.9857 42.3889 41.1933C42.1501 41.4038 41.7327 41.4923 41.1955 41.4923H38.6294ZM76.9716 42.2981C75.4217 42.2981 73.8683 42.1181 72.3766 41.7609C70.8842 41.4038 69.722 41.0133 68.9467 40.5675C68.4676 40.299 68.1409 40.0006 68.0219 39.7313C67.9043 39.4682 67.843 39.1833 67.8419 38.8951V37.3729C67.8419 36.7479 68.08 36.4488 68.5293 36.4488C68.7064 36.4488 68.8857 36.4793 69.0657 36.5402C69.2429 36.5983 69.5115 36.7174 69.8098 36.8364C70.8646 37.2997 71.9654 37.6503 73.0938 37.8824C74.2864 38.1205 75.4494 38.2396 76.6449 38.2396C78.5249 38.2396 79.9862 37.9101 80.9996 37.2546C82.0151 36.5983 82.5523 35.6431 82.5523 34.4199C82.5523 33.5837 82.2837 32.8998 81.7472 32.3322C81.2101 31.7653 80.1938 31.2579 78.7326 30.7795L74.4055 29.4366C72.2271 28.7499 70.6156 27.7372 69.6334 26.3943C68.6483 25.0798 68.1409 23.6178 68.1409 22.0679C68.1409 20.8136 68.4102 19.7095 68.9467 18.7543C69.4794 17.7943 70.2119 16.9599 71.0946 16.3072C71.989 15.6234 73.0052 15.1139 74.1986 14.7567C75.3912 14.3995 76.6449 14.25 77.9573 14.25C78.6135 14.25 79.2995 14.2805 79.9557 14.3691C80.6424 14.4576 81.2682 14.5767 81.8961 14.6957C82.4913 14.8453 83.059 14.9948 83.5961 15.1748C84.1333 15.3548 84.5514 15.532 84.8505 15.712C85.2686 15.9501 85.5669 16.1882 85.7441 16.4561C85.9241 16.697 86.0127 17.0244 86.0127 17.4418V18.845C86.0127 19.4714 85.7746 19.8002 85.326 19.8002C85.0879 19.8002 84.7002 19.6791 84.1942 19.4409C82.4913 18.6657 80.5815 18.278 78.464 18.278C76.7639 18.278 75.4217 18.5466 74.4969 19.1142C73.5693 19.6791 73.0938 20.5457 73.0938 21.7689C73.0938 22.6051 73.3921 23.3216 73.9874 23.8864C74.5855 24.4533 75.6903 25.0216 77.2706 25.5276L81.5084 26.8705C83.6571 27.5572 85.2076 28.5118 86.1317 29.7357C87.0565 30.9595 87.5051 32.3627 87.5051 33.9132C87.5051 35.1973 87.2358 36.3602 86.7298 37.3729C86.1927 38.3891 85.4755 39.2834 84.5514 39.9999C83.6266 40.7447 82.5218 41.2819 81.2405 41.6723C79.8976 42.0876 78.4945 42.2981 76.9716 42.2981Z"/>
<path d="M84.6258 47.6988C81.485 47.7434 77.7773 48.4443 74.9731 50.4144C74.1064 51.0401 74.256 51.8756 75.2112 51.7566C78.4059 51.369 85.4443 50.5334 86.6986 52.1442C87.953 53.7245 85.2983 60.3789 84.1028 63.334C83.7457 64.2269 84.5209 64.5876 85.326 63.9009C90.5771 59.4853 91.9505 50.2649 90.8762 48.9219C90.3397 48.2664 87.7666 47.6534 84.6258 47.6988ZM2.15888 49.4782C1.50195 49.5605 1.20431 50.3542 1.89809 50.9813C13.5967 61.5418 29.0816 67.8985 46.2695 67.8985C58.5329 67.8985 72.7947 64.0504 82.6104 56.8008C84.2212 55.6046 82.8208 53.7862 81.1789 54.5303C70.1705 59.1862 58.2034 61.4539 47.3134 61.4539C31.1715 61.4539 15.5653 57.0085 2.9136 49.6668C2.63722 49.5031 2.37856 49.4513 2.15959 49.4782H2.15888Z"/>
</mask>
<path d="M26.7842 33.7325C26.7842 34.838 26.9032 35.7345 27.1137 36.39C27.3518 37.0462 27.6508 37.7634 28.0682 38.5386C28.2149 38.7768 28.2759 39.0149 28.2759 39.2253C28.2759 39.5216 28.0959 39.8206 27.709 40.119L25.8289 41.3733C25.5603 41.5505 25.2917 41.6419 25.0543 41.6419C24.7553 41.6419 24.4562 41.4923 24.1571 41.2238C23.7558 40.7908 23.3961 40.321 23.0828 39.8206C22.7508 39.2465 22.4425 38.659 22.1587 38.0596C19.8329 40.8057 16.9075 42.179 13.3855 42.179C10.8804 42.179 8.88195 41.4619 7.41785 40.0304C5.95589 38.5968 5.21108 36.6869 5.21108 34.3001C5.21108 31.7646 6.10541 29.7052 7.92738 28.1553C9.74581 26.602 12.1623 25.8267 15.2379 25.8267C16.2513 25.8267 17.2945 25.9153 18.3986 26.0648C19.5041 26.2143 20.6386 26.4524 21.832 26.721V24.5426C21.832 22.2749 21.353 20.6946 20.4289 19.7705C19.4722 18.8457 17.8614 18.3971 15.5639 18.3971C14.5201 18.3971 13.4464 18.5161 12.3416 18.7847C11.2447 19.0461 10.1679 19.3854 9.11935 19.8002C8.6403 20.0079 8.28313 20.1269 8.07549 20.1879C7.86573 20.246 7.7162 20.2765 7.59715 20.2765C7.17904 20.2765 6.9714 19.9774 6.9714 19.3524V17.8904C6.9714 17.4113 7.02951 17.0542 7.17904 16.8444C7.32785 16.6368 7.59715 16.4291 8.01526 16.2187C9.05841 15.6815 10.3127 15.2336 11.774 14.8757C13.236 14.4881 14.7886 14.3088 16.4299 14.3088C19.9789 14.3088 22.5754 15.1139 24.2479 16.7254C25.8891 18.3361 26.7225 20.7831 26.7225 24.0664V33.7325H26.7842ZM14.6703 38.2701C15.6532 38.2701 16.6687 38.0901 17.7431 37.7329C18.8174 37.3729 19.7719 36.7174 20.5777 35.8231C21.0539 35.2561 21.4139 34.6297 21.5911 33.9132C21.7711 33.1961 21.8901 32.3329 21.8901 31.316V30.0652C20.9862 29.8431 20.0703 29.673 19.1469 29.5557C18.2158 29.4382 17.2783 29.3791 16.3399 29.3785C14.3415 29.3785 12.8795 29.7661 11.8938 30.5719C10.9108 31.3769 10.4325 32.5094 10.4325 34.0018C10.4325 35.4049 10.7897 36.4488 11.5366 37.1653C12.2538 37.9101 13.2976 38.2701 14.6703 38.2701ZM38.6294 41.4923C38.0923 41.4923 37.7351 41.4038 37.497 41.1933C37.256 41.0133 37.0484 40.598 36.8684 40.0311L29.8569 16.9656C29.6797 16.3682 29.5876 15.9805 29.5876 15.7701C29.5876 15.2939 29.8264 15.026 30.3055 15.026H33.2287C33.7956 15.026 34.1833 15.1139 34.3938 15.3243C34.6319 15.5015 34.8119 15.9196 34.989 16.4865L40.0021 36.2412L44.658 16.4872C44.8054 15.892 44.9854 15.5022 45.2228 15.325C45.4638 15.1443 45.8819 15.0253 46.419 15.0253H48.8051C49.372 15.0253 49.7604 15.1139 49.9985 15.3243C50.2366 15.5015 50.4471 15.9196 50.5654 16.4865L55.2801 36.4793L60.4427 16.4872C60.6199 15.892 60.8304 15.5022 61.038 15.325C61.2761 15.1443 61.6666 15.0253 62.2031 15.0253H64.9768C65.4558 15.0253 65.7244 15.2634 65.7244 15.7701C65.7244 15.9189 65.6939 16.0691 65.6634 16.2491C65.633 16.4291 65.5749 16.6672 65.4558 16.9932L58.2643 40.0608C58.0843 40.6561 57.8767 41.0438 57.6357 41.2231C57.3976 41.4038 57.01 41.5228 56.5033 41.5228H53.9379C53.3703 41.5228 52.9827 41.4307 52.7446 41.2238C52.5036 41.0133 52.296 40.6257 52.1769 40.0304L47.5515 20.7831L42.9558 39.9999C42.807 40.598 42.6298 40.9857 42.3889 41.1933C42.1501 41.4038 41.7327 41.4923 41.1955 41.4923H38.6294ZM76.9716 42.2981C75.4217 42.2981 73.8683 42.1181 72.3766 41.7609C70.8842 41.4038 69.722 41.0133 68.9467 40.5675C68.4676 40.299 68.1409 40.0006 68.0219 39.7313C67.9043 39.4682 67.843 39.1833 67.8419 38.8951V37.3729C67.8419 36.7479 68.08 36.4488 68.5293 36.4488C68.7064 36.4488 68.8857 36.4793 69.0657 36.5402C69.2429 36.5983 69.5115 36.7174 69.8098 36.8364C70.8646 37.2997 71.9654 37.6503 73.0938 37.8824C74.2864 38.1205 75.4494 38.2396 76.6449 38.2396C78.5249 38.2396 79.9862 37.9101 80.9996 37.2546C82.0151 36.5983 82.5523 35.6431 82.5523 34.4199C82.5523 33.5837 82.2837 32.8998 81.7472 32.3322C81.2101 31.7653 80.1938 31.2579 78.7326 30.7795L74.4055 29.4366C72.2271 28.7499 70.6156 27.7372 69.6334 26.3943C68.6483 25.0798 68.1409 23.6178 68.1409 22.0679C68.1409 20.8136 68.4102 19.7095 68.9467 18.7543C69.4794 17.7943 70.2119 16.9599 71.0946 16.3072C71.989 15.6234 73.0052 15.1139 74.1986 14.7567C75.3912 14.3995 76.6449 14.25 77.9573 14.25C78.6135 14.25 79.2995 14.2805 79.9557 14.3691C80.6424 14.4576 81.2682 14.5767 81.8961 14.6957C82.4913 14.8453 83.059 14.9948 83.5961 15.1748C84.1333 15.3548 84.5514 15.532 84.8505 15.712C85.2686 15.9501 85.5669 16.1882 85.7441 16.4561C85.9241 16.697 86.0127 17.0244 86.0127 17.4418V18.845C86.0127 19.4714 85.7746 19.8002 85.326 19.8002C85.0879 19.8002 84.7002 19.6791 84.1942 19.4409C82.4913 18.6657 80.5815 18.278 78.464 18.278C76.7639 18.278 75.4217 18.5466 74.4969 19.1142C73.5693 19.6791 73.0938 20.5457 73.0938 21.7689C73.0938 22.6051 73.3921 23.3216 73.9874 23.8864C74.5855 24.4533 75.6903 25.0216 77.2706 25.5276L81.5084 26.8705C83.6571 27.5572 85.2076 28.5118 86.1317 29.7357C87.0565 30.9595 87.5051 32.3627 87.5051 33.9132C87.5051 35.1973 87.2358 36.3602 86.7298 37.3729C86.1927 38.3891 85.4755 39.2834 84.5514 39.9999C83.6266 40.7447 82.5218 41.2819 81.2405 41.6723C79.8976 42.0876 78.4945 42.2981 76.9716 42.2981Z" fill="#252F3E"/>
<path d="M84.6258 47.6988C81.485 47.7434 77.7773 48.4443 74.9731 50.4144C74.1064 51.0401 74.256 51.8756 75.2112 51.7566C78.4059 51.369 85.4443 50.5334 86.6986 52.1442C87.953 53.7245 85.2983 60.3789 84.1028 63.334C83.7457 64.2269 84.5209 64.5876 85.326 63.9009C90.5771 59.4853 91.9505 50.2649 90.8762 48.9219C90.3397 48.2664 87.7666 47.6534 84.6258 47.6988ZM2.15888 49.4782C1.50195 49.5605 1.20431 50.3542 1.89809 50.9813C13.5967 61.5418 29.0816 67.8985 46.2695 67.8985C58.5329 67.8985 72.7947 64.0504 82.6104 56.8008C84.2212 55.6046 82.8208 53.7862 81.1789 54.5303C70.1705 59.1862 58.2034 61.4539 47.3134 61.4539C31.1715 61.4539 15.5653 57.0085 2.9136 49.6668C2.63722 49.5031 2.37856 49.4513 2.15959 49.4782H2.15888Z" fill="#FF9900"/>
<path d="M26.7842 33.7325C26.7842 34.838 26.9032 35.7345 27.1137 36.39C27.3518 37.0462 27.6508 37.7634 28.0682 38.5386C28.2149 38.7768 28.2759 39.0149 28.2759 39.2253C28.2759 39.5216 28.0959 39.8206 27.709 40.119L25.8289 41.3733C25.5603 41.5505 25.2917 41.6419 25.0543 41.6419C24.7553 41.6419 24.4562 41.4923 24.1571 41.2238C23.7558 40.7908 23.3961 40.321 23.0828 39.8206C22.7508 39.2465 22.4425 38.659 22.1587 38.0596C19.8329 40.8057 16.9075 42.179 13.3855 42.179C10.8804 42.179 8.88195 41.4619 7.41785 40.0304C5.95589 38.5968 5.21108 36.6869 5.21108 34.3001C5.21108 31.7646 6.10541 29.7052 7.92738 28.1553C9.74581 26.602 12.1623 25.8267 15.2379 25.8267C16.2513 25.8267 17.2945 25.9153 18.3986 26.0648C19.5041 26.2143 20.6386 26.4524 21.832 26.721V24.5426C21.832 22.2749 21.353 20.6946 20.4289 19.7705C19.4722 18.8457 17.8614 18.3971 15.5639 18.3971C14.5201 18.3971 13.4464 18.5161 12.3416 18.7847C11.2447 19.0461 10.1679 19.3854 9.11935 19.8002C8.6403 20.0079 8.28313 20.1269 8.07549 20.1879C7.86573 20.246 7.7162 20.2765 7.59715 20.2765C7.17904 20.2765 6.9714 19.9774 6.9714 19.3524V17.8904C6.9714 17.4113 7.02951 17.0542 7.17904 16.8444C7.32785 16.6368 7.59715 16.4291 8.01526 16.2187C9.05841 15.6815 10.3127 15.2336 11.774 14.8757C13.236 14.4881 14.7886 14.3088 16.4299 14.3088C19.9789 14.3088 22.5754 15.1139 24.2479 16.7254C25.8891 18.3361 26.7225 20.7831 26.7225 24.0664V33.7325H26.7842ZM14.6703 38.2701C15.6532 38.2701 16.6687 38.0901 17.7431 37.7329C18.8174 37.3729 19.7719 36.7174 20.5777 35.8231C21.0539 35.2561 21.4139 34.6297 21.5911 33.9132C21.7711 33.1961 21.8901 32.3329 21.8901 31.316V30.0652C20.9862 29.8431 20.0703 29.673 19.1469 29.5557C18.2158 29.4382 17.2783 29.3791 16.3399 29.3785C14.3415 29.3785 12.8795 29.7661 11.8938 30.5719C10.9108 31.3769 10.4325 32.5094 10.4325 34.0018C10.4325 35.4049 10.7897 36.4488 11.5366 37.1653C12.2538 37.9101 13.2976 38.2701 14.6703 38.2701ZM38.6294 41.4923C38.0923 41.4923 37.7351 41.4038 37.497 41.1933C37.256 41.0133 37.0484 40.598 36.8684 40.0311L29.8569 16.9656C29.6797 16.3682 29.5876 15.9805 29.5876 15.7701C29.5876 15.2939 29.8264 15.026 30.3055 15.026H33.2287C33.7956 15.026 34.1833 15.1139 34.3938 15.3243C34.6319 15.5015 34.8119 15.9196 34.989 16.4865L40.0021 36.2412L44.658 16.4872C44.8054 15.892 44.9854 15.5022 45.2228 15.325C45.4638 15.1443 45.8819 15.0253 46.419 15.0253H48.8051C49.372 15.0253 49.7604 15.1139 49.9985 15.3243C50.2366 15.5015 50.4471 15.9196 50.5654 16.4865L55.2801 36.4793L60.4427 16.4872C60.6199 15.892 60.8304 15.5022 61.038 15.325C61.2761 15.1443 61.6666 15.0253 62.2031 15.0253H64.9768C65.4558 15.0253 65.7244 15.2634 65.7244 15.7701C65.7244 15.9189 65.6939 16.0691 65.6634 16.2491C65.633 16.4291 65.5749 16.6672 65.4558 16.9932L58.2643 40.0608C58.0843 40.6561 57.8767 41.0438 57.6357 41.2231C57.3976 41.4038 57.01 41.5228 56.5033 41.5228H53.9379C53.3703 41.5228 52.9827 41.4307 52.7446 41.2238C52.5036 41.0133 52.296 40.6257 52.1769 40.0304L47.5515 20.7831L42.9558 39.9999C42.807 40.598 42.6298 40.9857 42.3889 41.1933C42.1501 41.4038 41.7327 41.4923 41.1955 41.4923H38.6294ZM76.9716 42.2981C75.4217 42.2981 73.8683 42.1181 72.3766 41.7609C70.8842 41.4038 69.722 41.0133 68.9467 40.5675C68.4676 40.299 68.1409 40.0006 68.0219 39.7313C67.9043 39.4682 67.843 39.1833 67.8419 38.8951V37.3729C67.8419 36.7479 68.08 36.4488 68.5293 36.4488C68.7064 36.4488 68.8857 36.4793 69.0657 36.5402C69.2429 36.5983 69.5115 36.7174 69.8098 36.8364C70.8646 37.2997 71.9654 37.6503 73.0938 37.8824C74.2864 38.1205 75.4494 38.2396 76.6449 38.2396C78.5249 38.2396 79.9862 37.9101 80.9996 37.2546C82.0151 36.5983 82.5523 35.6431 82.5523 34.4199C82.5523 33.5837 82.2837 32.8998 81.7472 32.3322C81.2101 31.7653 80.1938 31.2579 78.7326 30.7795L74.4055 29.4366C72.2271 28.7499 70.6156 27.7372 69.6334 26.3943C68.6483 25.0798 68.1409 23.6178 68.1409 22.0679C68.1409 20.8136 68.4102 19.7095 68.9467 18.7543C69.4794 17.7943 70.2119 16.9599 71.0946 16.3072C71.989 15.6234 73.0052 15.1139 74.1986 14.7567C75.3912 14.3995 76.6449 14.25 77.9573 14.25C78.6135 14.25 79.2995 14.2805 79.9557 14.3691C80.6424 14.4576 81.2682 14.5767 81.8961 14.6957C82.4913 14.8453 83.059 14.9948 83.5961 15.1748C84.1333 15.3548 84.5514 15.532 84.8505 15.712C85.2686 15.9501 85.5669 16.1882 85.7441 16.4561C85.9241 16.697 86.0127 17.0244 86.0127 17.4418V18.845C86.0127 19.4714 85.7746 19.8002 85.326 19.8002C85.0879 19.8002 84.7002 19.6791 84.1942 19.4409C82.4913 18.6657 80.5815 18.278 78.464 18.278C76.7639 18.278 75.4217 18.5466 74.4969 19.1142C73.5693 19.6791 73.0938 20.5457 73.0938 21.7689C73.0938 22.6051 73.3921 23.3216 73.9874 23.8864C74.5855 24.4533 75.6903 25.0216 77.2706 25.5276L81.5084 26.8705C83.6571 27.5572 85.2076 28.5118 86.1317 29.7357C87.0565 30.9595 87.5051 32.3627 87.5051 33.9132C87.5051 35.1973 87.2358 36.3602 86.7298 37.3729C86.1927 38.3891 85.4755 39.2834 84.5514 39.9999C83.6266 40.7447 82.5218 41.2819 81.2405 41.6723C79.8976 42.0876 78.4945 42.2981 76.9716 42.2981Z" stroke="white" stroke-width="3" mask="url(#path-1-outside-1_11_55)"/>
<path d="M84.6258 47.6988C81.485 47.7434 77.7773 48.4443 74.9731 50.4144C74.1064 51.0401 74.256 51.8756 75.2112 51.7566C78.4059 51.369 85.4443 50.5334 86.6986 52.1442C87.953 53.7245 85.2983 60.3789 84.1028 63.334C83.7457 64.2269 84.5209 64.5876 85.326 63.9009C90.5771 59.4853 91.9505 50.2649 90.8762 48.9219C90.3397 48.2664 87.7666 47.6534 84.6258 47.6988ZM2.15888 49.4782C1.50195 49.5605 1.20431 50.3542 1.89809 50.9813C13.5967 61.5418 29.0816 67.8985 46.2695 67.8985C58.5329 67.8985 72.7947 64.0504 82.6104 56.8008C84.2212 55.6046 82.8208 53.7862 81.1789 54.5303C70.1705 59.1862 58.2034 61.4539 47.3134 61.4539C31.1715 61.4539 15.5653 57.0085 2.9136 49.6668C2.63722 49.5031 2.37856 49.4513 2.15959 49.4782H2.15888Z" stroke="white" stroke-width="3" mask="url(#path-1-outside-1_11_55)"/>
</svg>
