<svg width="123" height="127" viewBox="0 0 123 127" fill="none" xmlns="http://www.w3.org/2000/svg">
<path d="M92.0879 92.6417C92.9006 85.8694 92.6573 84.8753 97.6952 85.9731L98.9739 86.085C102.848 86.2612 107.916 85.461 110.894 84.076C117.303 81.0978 121.103 76.1271 114.784 77.4322C100.368 80.4105 99.3777 75.5227 99.3777 75.5227C114.6 52.9085 120.963 24.201 115.47 17.1736C100.489 -1.99275 74.5566 7.07055 74.1228 7.30483L73.9841 7.33075C71.1359 6.73883 67.9481 6.38534 64.3669 6.32729C57.8432 6.21948 52.8933 8.03981 49.1382 10.8906C49.1382 10.8906 2.87641 -8.19287 5.02886 34.8897C5.48648 44.0546 18.1486 104.239 33.252 86.0601C38.7724 79.4132 44.1064 73.7926 44.1064 73.7926C46.7548 75.5538 49.9271 76.4536 53.2526 76.1302L53.5104 75.9104C53.4296 76.7356 53.4648 77.5431 53.6129 78.4989C49.7231 82.8518 50.8661 83.6157 43.0877 85.2184C35.2171 86.8418 39.8409 89.7329 42.8589 90.4887C46.5188 91.405 54.9847 92.7029 60.7059 84.6856L60.4782 85.5999C62.0042 86.8231 61.9017 94.3874 62.1171 99.7914C62.3335 105.196 62.6948 110.24 63.7954 113.214C64.8959 116.187 66.1942 123.846 76.4171 121.652C84.9607 119.823 91.4926 117.185 92.0879 92.6417Z" fill="white"/>
<path d="M73.0885 127C68.5672 127 65.6227 125.249 63.8347 123.558C61.1356 121.008 60.0651 117.723 59.4252 115.761L59.1488 114.942C57.8608 111.461 57.4239 106.449 57.1651 99.9946C57.1257 99.0253 57.0988 98.0271 57.0688 96.9687C57.0471 96.1943 57.0201 95.223 56.9808 94.2071C55.3519 94.9847 53.6229 95.5318 51.8435 95.8325C48.6557 96.3778 45.2287 96.2015 41.6558 95.3069C39.1348 94.6756 36.5154 93.3674 35.0224 91.347C30.6709 95.1628 26.5203 94.6456 24.2591 93.8899C20.27 92.5578 16.7002 88.8145 13.3447 82.4485C10.9541 77.9132 8.64217 72.0044 6.47212 64.8848C2.69315 52.4866 0.292219 39.4281 0.0789401 35.1406C-0.591955 21.7213 3.01618 12.1242 10.8008 6.61858C23.0809 -2.06636 41.6869 3.04115 48.4704 5.3601C53.0279 2.60991 58.3899 1.27161 64.4487 1.36802C67.7027 1.42089 70.8015 1.707 73.6797 2.22117C76.6821 1.27576 82.6125 -0.081197 89.4012 0.00380714C101.909 0.153083 112.274 5.03357 119.373 14.1176C124.44 20.5987 121.934 34.2086 119.991 41.745C117.256 52.3456 112.463 63.6201 106.576 73.4349C108.175 73.4464 110.491 73.2546 113.783 72.5735C120.279 71.2311 122.179 74.7183 122.694 76.2795C124.76 82.5428 115.781 87.2761 112.981 88.5781C109.392 90.2461 103.542 91.262 98.7503 91.0422L98.5411 91.0287L97.2821 90.9178L97.1579 91.969L97.0378 92.9963C96.7158 105.435 94.9413 113.312 91.2896 118.517C87.462 123.974 82.1425 125.503 77.4566 126.509C75.858 126.851 74.4054 127 73.0885 127ZM63.5738 81.7291C66.4924 84.0677 66.7481 88.4682 66.9769 96.6919C67.0059 97.7181 67.0328 98.6895 67.0691 99.5965C67.1788 102.344 67.4366 108.776 68.443 111.494C68.5848 111.879 68.7122 112.268 68.8467 112.682C69.968 116.119 70.5302 117.843 75.3787 116.806C79.4485 115.932 81.541 115.148 83.1789 112.814C85.5591 109.42 86.8905 102.592 87.1349 92.5215L92.0869 92.6417L87.169 92.0509L87.314 90.8214C87.785 86.7682 88.1246 83.8407 90.83 81.9043C93.0011 80.3514 95.4745 80.5017 97.4447 80.8573C95.2798 79.2194 94.6814 77.2985 94.522 76.5107L94.1089 74.4737L95.2695 72.7497C101.955 62.8188 107.467 50.6134 110.395 39.2622C113.403 27.5991 112.486 21.4052 111.569 20.2338C99.4253 4.69769 78.3677 11.1124 76.1686 11.8401L75.7969 12.0412L73.9333 12.3885L72.9788 12.1905C70.3469 11.6432 67.4232 11.3405 64.2892 11.2897C59.3652 11.2067 55.3926 12.3719 52.1355 14.8464L49.8753 16.562L47.2528 15.4808C41.6496 13.1867 25.192 8.57471 16.5076 14.7334C11.6871 18.1522 9.49115 24.8509 9.97982 34.644C10.1413 37.8773 12.3352 50.1169 15.9547 61.9874C20.9564 78.3921 25.5015 83.8417 27.3993 84.4751C27.7306 84.5871 28.5899 83.9185 29.4451 82.8901C33.0108 78.6102 36.7031 74.4376 40.517 70.3779L43.3848 67.3561L46.8521 69.6626C48.2498 70.5925 49.7915 71.1201 51.3745 71.2197L59.6437 64.1581L58.4458 76.3987C58.4189 76.6734 58.4054 77.0476 58.5131 77.7422L58.8734 80.0622L57.31 81.812L57.1299 82.0152L61.6729 84.1144L63.5738 81.7291Z" fill="white"/>
<path d="M114.784 77.4322C100.367 80.4105 99.3766 75.5227 99.3766 75.5227C114.599 52.9075 120.961 24.1989 115.47 17.1736C100.489 -1.99172 74.5556 7.07159 74.1228 7.30691L73.983 7.33179C71.1348 6.73987 67.947 6.38741 64.3638 6.32936C57.8401 6.22259 52.8923 8.04188 49.1371 10.8926C49.1371 10.8926 2.87434 -8.18976 5.02576 34.8918C5.48338 44.0577 18.1455 104.242 33.2489 86.0632C38.7693 79.4163 44.1023 73.7957 44.1023 73.7957C46.7517 75.5569 49.9229 76.4567 53.2474 76.1333L53.5062 75.9135C53.4255 76.7387 53.4627 77.5462 53.6098 78.502C49.719 82.8549 50.862 83.6189 43.0835 85.2215C35.2129 86.8449 39.8367 89.7361 42.8558 90.4918C46.5146 91.4081 54.9816 92.706 60.7018 84.6887L60.473 85.603C61.998 86.8262 63.0686 93.556 62.8895 99.6567C62.7093 105.757 62.5892 109.946 63.7912 113.218C64.9922 116.49 66.189 123.85 76.414 121.656C84.9576 119.823 89.3846 115.072 90.0017 107.148C90.4386 101.514 91.4273 102.348 91.4905 97.3107L92.2846 94.9265C93.1998 87.2896 92.4295 84.8265 97.6942 85.972L98.9728 86.084C102.847 86.2602 107.917 85.461 110.894 84.076C117.302 81.0998 121.103 76.1271 114.784 77.4322Z" fill="#FFDB6E"/>
<path d="M73.6051 123.943C65.0823 123.943 62.3821 117.185 61.2774 114.421C59.6602 110.371 59.3113 94.6539 59.6716 81.7643C59.677 81.547 59.7252 81.3328 59.8136 81.1342C59.902 80.9356 60.0288 80.7564 60.1866 80.6071C60.3444 80.4577 60.5302 80.3411 60.7332 80.2639C60.9363 80.1868 61.1525 80.1506 61.3696 80.1575C61.5864 80.1634 61.8 80.2121 61.998 80.3007C62.1961 80.3893 62.3747 80.5161 62.5237 80.6739C62.6728 80.8317 62.7893 81.0174 62.8666 81.2204C62.9439 81.4233 62.9806 81.6395 62.9743 81.8566C62.5592 96.723 63.1483 110.195 64.3451 113.193C66.2129 117.867 69.0455 121.956 77.0538 120.238C84.6563 118.605 87.5034 115.719 88.7717 108.358C89.7449 102.71 91.6696 86.6396 91.9067 83.4685C91.9226 83.2518 91.981 83.0404 92.0786 82.8463C92.1762 82.6523 92.3111 82.4794 92.4756 82.3377C92.6401 82.1959 92.8309 82.088 93.037 82.0202C93.2432 81.9525 93.4607 81.9261 93.6771 81.9426C94.1138 81.9758 94.5196 82.181 94.8053 82.5134C95.091 82.8457 95.2334 83.2779 95.2011 83.7153C94.9537 87.017 93.0383 103.056 92.0278 108.921C90.5307 117.615 86.6596 121.559 77.7465 123.472C76.2318 123.797 74.8558 123.942 73.6051 123.943ZM27.392 90.9354C26.6471 90.9329 25.9074 90.8104 25.2013 90.5726C19.6654 88.7233 14.3924 79.6962 9.52842 63.7393C5.82607 51.593 3.48001 38.915 3.27398 34.7943C2.66417 22.5786 5.80536 13.9362 12.6127 9.10858C26.0792 -0.445056 48.7333 8.65246 49.691 9.04431C50.0967 9.21023 50.42 9.53072 50.5897 9.93528C50.7594 10.3398 50.7616 10.7953 50.5959 11.2015C50.4302 11.6078 50.1101 11.9314 49.7061 12.1013C49.302 12.2712 48.8471 12.2735 48.4414 12.1076C48.2229 12.0184 26.4996 3.30446 14.5156 11.8121C8.69498 15.9442 6.02278 23.6215 6.57254 34.6295C6.74545 38.1012 8.93724 50.4745 12.6872 62.7731C17.0294 77.0186 21.971 86.0073 26.2459 87.4347C26.9168 87.6586 28.9585 88.3397 31.8771 84.8255C35.2807 80.7327 38.8119 76.748 42.4654 72.8772C42.7712 72.5719 43.1841 72.3986 43.6158 72.3942C44.0476 72.3899 44.4639 72.555 44.7757 72.8541C45.0874 73.1533 45.2698 73.5627 45.2839 73.9948C45.2979 74.4269 45.1425 74.8473 44.8508 75.1661C44.8012 75.218 39.8326 80.4188 34.4178 86.9413C31.8533 90.0294 29.3954 90.9354 27.392 90.9354ZM99.2741 76.9979C98.9746 76.9975 98.6809 76.9156 98.4243 76.7609C98.1677 76.6063 97.9579 76.3847 97.8173 76.12C97.6767 75.8552 97.6106 75.5571 97.6262 75.2576C97.6417 74.9582 97.7382 74.6685 97.9054 74.4198C113.294 51.5567 118.695 23.9314 114.069 18.0122C108.246 10.563 100.025 6.67249 89.631 6.44754C81.9354 6.28167 75.8187 8.24921 74.8185 8.59234L74.567 8.69496C73.5617 9.01114 72.7903 8.45965 72.4994 7.81486C72.3335 7.44544 72.3084 7.02801 72.4287 6.6413C72.5491 6.2546 72.8066 5.92536 73.1527 5.71567C73.2003 5.68768 73.3515 5.62341 73.5968 5.53322C75.2958 4.9102 81.5058 3.04426 89.1972 3.13237C100.698 3.2547 110.198 7.69461 116.669 15.9742C119.73 19.8917 119.737 28.9166 116.688 40.7363C113.58 52.7872 107.732 65.7379 100.644 76.2691C100.327 76.7429 99.8053 76.9979 99.2741 76.9979ZM100.061 87.5819C97.4333 87.5819 95.0779 87.2108 93.6678 86.3649C92.2183 85.4952 91.9419 84.3134 91.9057 83.6862C91.5102 76.7304 95.343 75.5196 97.2977 74.9671C97.0254 74.5545 96.6382 74.0694 96.2375 73.5687C95.0976 72.1423 93.5363 70.1892 92.3333 67.268C92.1448 66.8119 91.5547 65.7514 90.8714 64.523C87.1659 57.8699 79.4558 44.0256 84.4088 36.936C86.7011 33.6551 91.2658 32.3634 97.9914 33.0839C96.0128 27.0486 86.5913 8.16939 64.2354 7.80242C57.5119 7.69046 51.9977 9.76062 47.8543 13.9497C38.5778 23.3302 38.9132 40.303 38.9184 40.473C38.9241 40.6902 38.887 40.9063 38.8093 41.1091C38.7316 41.3119 38.6148 41.4974 38.4655 41.6549C38.3162 41.8125 38.1373 41.9391 37.9392 42.0275C37.741 42.1159 37.5274 42.1643 37.3105 42.17C37.0937 42.1757 36.8778 42.1386 36.6753 42.0608C36.4727 41.983 36.2875 41.866 36.1301 41.7165C35.9727 41.567 35.8463 41.388 35.758 41.1895C35.6698 40.9911 35.6214 40.7772 35.6157 40.5601C35.595 39.8065 35.2492 21.995 45.5073 11.6214C50.3081 6.76682 56.6278 4.37012 64.2902 4.49555C78.5923 4.73087 87.7985 12.0112 93.0021 18.0765C98.6747 24.6871 101.456 31.9788 101.684 34.4129C101.855 36.2228 100.558 36.5846 100.296 36.6385L99.6997 36.652C93.0994 35.5936 88.8649 36.3286 87.1141 38.8331C83.3466 44.2246 90.6405 57.3204 93.7548 62.9131C94.5499 64.3395 95.1235 65.371 95.3865 66.0074C96.4094 68.4912 97.7439 70.1602 98.8155 71.5016C99.7587 72.6813 100.576 73.7045 100.868 74.9049C101.003 75.1433 102.928 77.9941 114.349 75.6337C117.211 75.0428 118.928 75.5476 119.453 77.1368C120.485 80.2622 114.693 83.9081 111.487 85.3988C108.614 86.736 104.028 87.5819 100.061 87.5819ZM95.1991 83.4136C95.5614 83.7795 97.3743 84.4108 101.128 84.2491C104.466 84.1061 107.986 83.3794 110.099 82.3977C112.8 81.1413 114.603 79.7367 115.537 78.7778L115.019 78.8731C107.717 80.3825 102.552 80.1814 99.6676 78.275C99.4738 78.1467 99.2871 78.008 99.1085 77.8593C98.7958 77.9827 98.5069 78.0635 98.3009 78.1216C96.6651 78.5808 94.9734 79.0566 95.1991 83.4136ZM48.0272 92.6552C46.2133 92.6552 44.3042 92.4075 42.3547 91.9192C40.3347 91.4133 36.9295 89.8905 36.9813 87.3891C37.0403 84.5829 41.1164 83.7412 42.6508 83.425C48.1939 82.2816 48.5553 81.8234 50.2874 79.6206C50.7926 78.9789 51.4211 78.1796 52.2783 77.2218C53.5507 75.7954 54.9412 75.0728 56.4114 75.0728C57.4353 75.0728 58.275 75.4201 58.8299 75.6513C60.5983 76.3852 62.0736 78.1599 62.6803 80.2819C63.228 82.1966 62.9661 84.0397 61.9452 85.4713C58.5939 90.1704 53.7806 92.6552 48.0272 92.6552ZM40.5501 87.5311C41.0481 87.9168 42.0461 88.432 43.157 88.7098C44.8457 89.1327 46.4836 89.3473 48.0283 89.3473C52.7349 89.3473 56.5139 87.3964 59.2585 83.5484C59.8311 82.746 59.6592 81.727 59.506 81.1911C59.185 80.0684 58.3878 79.0473 57.5668 78.7062C57.1216 78.5217 56.752 78.3807 56.4124 78.3807C56.2302 78.3807 55.6752 78.3807 54.7414 79.4267C54.097 80.1524 53.4775 80.8999 52.884 81.6679C50.7264 84.4109 49.7376 85.3417 43.3186 86.6655C41.7521 86.9869 40.9487 87.3145 40.5501 87.5311ZM53.2526 79.9015C52.8582 79.9009 52.4771 79.759 52.178 79.5016C51.879 79.2442 51.6817 78.8882 51.6219 78.4979C51.5809 78.2233 51.5532 77.9469 51.5391 77.6696C47.3315 77.5908 43.272 75.7829 40.1898 72.5631C36.2928 68.4923 34.5193 62.8519 35.3248 57.0893C36.1996 50.8311 35.8724 45.3069 35.6964 42.339C35.6478 41.5138 35.6126 40.9178 35.6147 40.5052C35.6178 39.9817 35.6281 38.5936 40.2623 36.2415C41.9105 35.4049 45.2153 33.9453 48.8255 33.5711C54.8066 32.9522 58.7492 35.6195 59.9294 41.0826C63.1151 55.8318 60.1821 62.3554 58.0399 67.1198C57.6413 68.0071 57.2645 68.8447 56.9632 69.6564L56.6971 70.3717C55.5655 73.4101 54.5871 76.0348 54.8874 77.9951C54.9203 78.2098 54.9107 78.4289 54.8591 78.6399C54.8075 78.8508 54.7148 79.0496 54.5865 79.2247C54.4581 79.3998 54.2966 79.5479 54.111 79.6604C53.9255 79.773 53.7196 79.8479 53.5052 79.8808L53.2526 79.9015ZM38.9288 40.9634L38.9929 42.1441C39.1752 45.227 39.5147 50.9638 38.5954 57.5485C37.9317 62.3015 39.3812 66.9404 42.5742 70.2743C45.0973 72.9094 48.4176 74.3638 51.83 74.3638H51.9004C52.2825 72.7518 52.9171 71.0496 53.6004 69.2158L53.8645 68.5047C54.2051 67.5883 54.6037 66.701 55.0261 65.7618C57.0874 61.1757 59.654 55.4669 56.6982 41.7823C56.1132 39.0715 54.6938 37.5031 52.3612 36.9858C47.5696 35.9264 40.4289 39.5349 38.9288 40.9634ZM48.899 40.2616C48.8162 40.8462 49.9685 42.4074 51.4718 42.6158C52.972 42.8262 54.2558 41.605 54.3376 41.0204C54.4194 40.4357 53.2681 39.7909 51.7648 39.5815C50.2625 39.3721 48.9787 39.6769 48.899 40.2616ZM51.8166 43.1911L51.3952 43.1621C50.4634 43.0325 49.5212 42.4447 48.8762 41.5885C48.6495 41.2878 48.2799 40.7052 48.3534 40.1848C48.4579 39.4219 49.3877 38.9647 50.8382 38.9647C51.1622 38.9647 51.4998 38.9886 51.8393 39.0363C52.6324 39.1461 53.3685 39.3752 53.9121 39.679C54.8542 40.2056 54.9236 40.7934 54.8812 41.0971C54.7652 41.9399 53.4265 43.1911 51.8166 43.1911ZM49.4467 40.359C49.4933 40.7198 50.3857 41.9098 51.5474 42.0705L51.8176 42.0892C52.8902 42.0892 53.6916 41.2443 53.7858 40.9675C53.6864 40.7788 52.9968 40.3103 51.6892 40.1278C51.4077 40.0874 51.1236 40.067 50.8392 40.0667C49.9985 40.0667 49.5523 40.2564 49.4467 40.359ZM94.5924 39.0684C94.6741 39.6531 93.5229 41.2142 92.0206 41.4236C90.5194 41.633 89.2345 40.4129 89.1517 39.8282C89.073 39.2436 90.2243 38.5978 91.7255 38.3894C93.2268 38.179 94.5095 38.4848 94.5924 39.0684ZM91.6738 41.7222C90.2284 41.7222 88.9809 40.5964 88.8784 39.8656C88.7593 38.9886 90.2015 38.322 91.6862 38.1157C92.0133 38.0701 92.3374 38.0473 92.649 38.0473C93.9308 38.0473 94.7797 38.4236 94.8646 39.0311C94.9195 39.424 94.6182 40.0304 94.0995 40.5777C93.7568 40.9374 93.0373 41.5605 92.0568 41.6963L91.6738 41.7222ZM92.6501 38.5988C92.3643 38.5988 92.0661 38.6206 91.7638 38.662C90.2719 38.8704 89.3815 39.4696 89.425 39.7909C89.4747 40.1444 90.4272 41.1717 91.6748 41.1717L91.9823 41.15C92.7971 41.037 93.409 40.5041 93.7009 40.1973C94.1596 39.7153 94.3418 39.2612 94.3201 39.1068C94.2911 38.9015 93.7403 38.5988 92.6501 38.5988ZM96.7552 72.645C96.4559 72.6452 96.1622 72.5639 95.9055 72.4098C95.6488 72.2556 95.4388 72.0345 95.298 71.7701C95.1572 71.5057 95.0908 71.2079 95.106 70.9086C95.1212 70.6093 95.2175 70.3198 95.3844 70.0711C98.9024 64.8101 98.2585 59.4455 97.6362 54.2572C97.3702 52.0471 97.0968 49.7613 97.1672 47.5678C97.2397 45.311 97.5265 43.4492 97.8029 41.6486C98.1311 39.5152 98.4417 37.5 98.3133 35.1074C98.3016 34.8905 98.3327 34.6735 98.4048 34.4687C98.4769 34.2638 98.5886 34.0752 98.7334 33.9136C98.8783 33.752 99.0536 33.6205 99.2492 33.5267C99.4448 33.4329 99.657 33.3786 99.8736 33.3669C100.09 33.3552 100.307 33.3863 100.512 33.4585C100.716 33.5307 100.904 33.6425 101.066 33.7875C101.227 33.9326 101.359 34.1081 101.452 34.3039C101.546 34.4998 101.6 34.7122 101.612 34.9291C101.759 37.6638 101.408 39.9443 101.068 42.1513C100.806 43.8545 100.535 45.6158 100.47 47.6735C100.407 49.6162 100.654 51.6791 100.916 53.8622C101.579 59.3792 102.329 65.6322 98.1301 71.9111C97.9789 72.1372 97.7743 72.3225 97.5344 72.4505C97.2946 72.5785 97.027 72.6453 96.7552 72.645Z" fill="#FFBC5E"/>
</svg>
