<svg width="120" height="120" viewBox="0 0 120 120" fill="none" xmlns="http://www.w3.org/2000/svg">
<mask id="path-1-inside-1_11_56" fill="white">
<path fill-rule="evenodd" clip-rule="evenodd" d="M116.259 51.8272L102.047 60.0056L116.259 68.1617C117.394 68.8058 118.338 69.7425 118.995 70.8758C119.653 72.0091 119.999 73.2983 120 74.6113C120 75.9238 119.654 77.2175 118.996 78.3499C116.906 81.886 112.328 83.1048 108.777 81.0686L83.3241 66.4443C81.6925 65.517 80.476 63.9935 79.9257 62.1882C79.6762 61.4061 79.5617 60.5866 79.5873 59.7655C79.6058 59.1769 79.6912 58.5919 79.8474 58.0033C80.3567 56.1844 81.5467 54.5534 83.3131 53.5257L108.759 38.92C112.314 36.8763 116.902 38.1027 118.981 41.6573C121.067 45.22 119.847 49.7648 116.259 51.8272ZM102.802 91.4594L77.367 76.8617C76.0536 76.0997 74.5411 75.7596 73.0311 75.8866C69.1713 76.1455 66.1259 79.4078 66.1072 83.3113V112.546C66.1072 116.67 69.4428 120 73.5888 120C77.7313 120 81.0779 116.663 81.0779 112.546V96.1955L95.3198 104.374C98.8671 106.429 103.463 105.21 105.542 101.655C107.606 98.0927 106.39 93.5181 102.801 91.4556V91.4594H102.802ZM73.4477 62.8671L62.8724 73.3743C62.5092 73.7133 62.0392 73.9124 61.5449 73.9368H58.44C57.9481 73.9065 57.4811 73.7081 57.1161 73.3743L46.5405 62.8671C46.2133 62.5065 46.0201 62.0427 45.994 61.5546V58.4571C46.02 57.9646 46.213 57.496 46.5405 57.1298L57.1087 46.6189C57.4747 46.2883 57.9418 46.0937 58.4325 46.0676H61.5449C62.0374 46.0903 62.5067 46.2853 62.8721 46.6189L73.4477 57.1298C73.7754 57.496 73.9684 57.9645 73.9944 58.4571V61.5546C73.9944 61.967 73.7528 62.567 73.4477 62.8671ZM64.9957 59.9497C64.9625 59.4559 64.7646 58.988 64.4341 58.6221L61.3738 55.5847C61.006 55.2547 60.5379 55.0603 60.0463 55.0336H59.9237C59.4354 55.0604 58.9709 55.2549 58.6073 55.5847L55.547 58.6221C55.2231 58.9898 55.0341 59.4584 55.0115 59.9497V60.0697C55.0115 60.4933 55.2457 61.0821 55.5467 61.382L58.6073 64.427C58.9121 64.7271 59.4996 64.9819 59.9237 64.9819H60.0461C60.5378 64.9521 61.0053 64.7566 61.3738 64.427L64.4341 61.3822C64.7649 61.0225 64.9631 60.5592 64.9957 60.0697V59.9497ZM17.1867 28.5217L42.6287 43.1388C43.946 43.8976 45.4599 44.2374 46.9721 44.1137C50.8354 43.8475 53.8772 40.5813 53.8996 36.6776V7.44724C53.8996 3.33758 50.5455 0 46.4179 0C42.2754 0 38.9288 3.33758 38.9288 7.44724V23.8043L24.6759 15.607C21.1245 13.5594 16.5359 14.7822 14.4536 18.3332C13.7945 19.4685 13.4467 20.7602 13.4458 22.0757C13.4458 24.7453 14.881 27.2167 17.1867 28.5253V28.5217ZM73.0313 44.1137C74.5412 44.239 76.0532 43.899 77.3672 43.1388L102.802 28.5253C103.936 27.8793 104.88 26.9411 105.538 25.8066C106.195 24.672 106.542 23.3819 106.543 22.068C106.543 20.7557 106.197 19.4657 105.542 18.3332C103.456 14.7858 98.8712 13.5633 95.3201 15.607L81.0782 23.8043V7.44724C81.0782 3.33758 77.7316 0 73.5891 0C69.443 0 66.1074 3.33758 66.1074 7.44724V36.674C66.0964 40.5999 69.1492 43.8249 73.0315 44.1098L73.0313 44.1137ZM46.9721 75.8824C45.4595 75.7537 43.9441 76.094 42.6287 76.8578L17.1867 91.4556C16.0519 92.1032 15.1077 93.0428 14.4505 94.1785C13.7933 95.3143 13.4466 96.6055 13.4458 97.9204C13.4458 99.2329 13.7916 100.523 14.4461 101.655C16.5359 105.199 21.1207 106.418 24.6684 104.37L38.9213 96.1918V112.541C38.9213 116.666 42.268 119.996 46.4104 119.996C50.5381 119.996 53.8921 116.659 53.8921 112.541V83.3108C53.8811 79.4073 50.8354 76.1412 46.9757 75.8824H46.9721ZM40.0743 62.1882C40.319 61.4051 40.432 60.5862 40.4089 59.7655C40.3663 58.4879 39.9984 57.2428 39.3407 56.1501C38.6829 55.0573 37.7573 54.1536 36.6531 53.526L11.2337 38.9239C7.64511 36.869 3.06774 38.0876 1.01138 41.6612C-1.06706 45.2236 0.163443 49.7685 3.752 51.8308L17.9603 60.0094L3.74456 68.1653C1.43523 69.474 0 71.9453 0 74.6152C0 75.9313 0.345607 77.2213 1.00394 78.3538C3.09366 81.8973 7.67487 83.1162 11.2262 81.0725L36.6533 66.4479C38.3789 65.473 39.5389 63.9279 40.0743 62.1918V62.1882Z"/>
</mask>
<path fill-rule="evenodd" clip-rule="evenodd" d="M116.259 51.8272L102.047 60.0056L116.259 68.1617C117.394 68.8058 118.338 69.7425 118.995 70.8758C119.653 72.0091 119.999 73.2983 120 74.6113C120 75.9238 119.654 77.2175 118.996 78.3499C116.906 81.886 112.328 83.1048 108.777 81.0686L83.3241 66.4443C81.6925 65.517 80.476 63.9935 79.9257 62.1882C79.6762 61.4061 79.5617 60.5866 79.5873 59.7655C79.6058 59.1769 79.6912 58.5919 79.8474 58.0033C80.3567 56.1844 81.5467 54.5534 83.3131 53.5257L108.759 38.92C112.314 36.8763 116.902 38.1027 118.981 41.6573C121.067 45.22 119.847 49.7648 116.259 51.8272ZM102.802 91.4594L77.367 76.8617C76.0536 76.0997 74.5411 75.7596 73.0311 75.8866C69.1713 76.1455 66.1259 79.4078 66.1072 83.3113V112.546C66.1072 116.67 69.4428 120 73.5888 120C77.7313 120 81.0779 116.663 81.0779 112.546V96.1955L95.3198 104.374C98.8671 106.429 103.463 105.21 105.542 101.655C107.606 98.0927 106.39 93.5181 102.801 91.4556V91.4594H102.802ZM73.4477 62.8671L62.8724 73.3743C62.5092 73.7133 62.0392 73.9124 61.5449 73.9368H58.44C57.9481 73.9065 57.4811 73.7081 57.1161 73.3743L46.5405 62.8671C46.2133 62.5065 46.0201 62.0427 45.994 61.5546V58.4571C46.02 57.9646 46.213 57.496 46.5405 57.1298L57.1087 46.6189C57.4747 46.2883 57.9418 46.0937 58.4325 46.0676H61.5449C62.0374 46.0903 62.5067 46.2853 62.8721 46.6189L73.4477 57.1298C73.7754 57.496 73.9684 57.9645 73.9944 58.4571V61.5546C73.9944 61.967 73.7528 62.567 73.4477 62.8671ZM64.9957 59.9497C64.9625 59.4559 64.7646 58.988 64.4341 58.6221L61.3738 55.5847C61.006 55.2547 60.5379 55.0603 60.0463 55.0336H59.9237C59.4354 55.0604 58.9709 55.2549 58.6073 55.5847L55.547 58.6221C55.2231 58.9898 55.0341 59.4584 55.0115 59.9497V60.0697C55.0115 60.4933 55.2457 61.0821 55.5467 61.382L58.6073 64.427C58.9121 64.7271 59.4996 64.9819 59.9237 64.9819H60.0461C60.5378 64.9521 61.0053 64.7566 61.3738 64.427L64.4341 61.3822C64.7649 61.0225 64.9631 60.5592 64.9957 60.0697V59.9497ZM17.1867 28.5217L42.6287 43.1388C43.946 43.8976 45.4599 44.2374 46.9721 44.1137C50.8354 43.8475 53.8772 40.5813 53.8996 36.6776V7.44724C53.8996 3.33758 50.5455 0 46.4179 0C42.2754 0 38.9288 3.33758 38.9288 7.44724V23.8043L24.6759 15.607C21.1245 13.5594 16.5359 14.7822 14.4536 18.3332C13.7945 19.4685 13.4467 20.7602 13.4458 22.0757C13.4458 24.7453 14.881 27.2167 17.1867 28.5253V28.5217ZM73.0313 44.1137C74.5412 44.239 76.0532 43.899 77.3672 43.1388L102.802 28.5253C103.936 27.8793 104.88 26.9411 105.538 25.8066C106.195 24.672 106.542 23.3819 106.543 22.068C106.543 20.7557 106.197 19.4657 105.542 18.3332C103.456 14.7858 98.8712 13.5633 95.3201 15.607L81.0782 23.8043V7.44724C81.0782 3.33758 77.7316 0 73.5891 0C69.443 0 66.1074 3.33758 66.1074 7.44724V36.674C66.0964 40.5999 69.1492 43.8249 73.0315 44.1098L73.0313 44.1137ZM46.9721 75.8824C45.4595 75.7537 43.9441 76.094 42.6287 76.8578L17.1867 91.4556C16.0519 92.1032 15.1077 93.0428 14.4505 94.1785C13.7933 95.3143 13.4466 96.6055 13.4458 97.9204C13.4458 99.2329 13.7916 100.523 14.4461 101.655C16.5359 105.199 21.1207 106.418 24.6684 104.37L38.9213 96.1918V112.541C38.9213 116.666 42.268 119.996 46.4104 119.996C50.5381 119.996 53.8921 116.659 53.8921 112.541V83.3108C53.8811 79.4073 50.8354 76.1412 46.9757 75.8824H46.9721ZM40.0743 62.1882C40.319 61.4051 40.432 60.5862 40.4089 59.7655C40.3663 58.4879 39.9984 57.2428 39.3407 56.1501C38.6829 55.0573 37.7573 54.1536 36.6531 53.526L11.2337 38.9239C7.64511 36.869 3.06774 38.0876 1.01138 41.6612C-1.06706 45.2236 0.163443 49.7685 3.752 51.8308L17.9603 60.0094L3.74456 68.1653C1.43523 69.474 0 71.9453 0 74.6152C0 75.9313 0.345607 77.2213 1.00394 78.3538C3.09366 81.8973 7.67487 83.1162 11.2262 81.0725L36.6533 66.4479C38.3789 65.473 39.5389 63.9279 40.0743 62.1918V62.1882Z" fill="#249EDC" stroke="white" stroke-width="4" mask="url(#path-1-inside-1_11_56)"/>
</svg>
