<svg width="116" height="119" viewBox="0 0 116 119" fill="none" xmlns="http://www.w3.org/2000/svg">
<path d="M52.1348 1.00195C53.9235 0.952228 55.7974 1.69762 57.4688 3.37305L57.4697 3.37402C58.6382 4.54186 59.6709 5.9393 60.5439 7.38867V7.38965L72.5078 27.3174C72.7811 27.7761 73.1472 28.2388 73.7227 28.4707C74.2976 28.7024 74.8778 28.62 75.3789 28.4854L75.3799 28.4863L104.684 20.6807C106.595 20.1755 108.483 20.0036 110.372 20.3418V20.3408C112.398 20.7227 113.724 21.6616 114.409 22.8594C115.096 24.0603 115.238 25.6945 114.548 27.6611C113.992 29.2373 113.074 30.6509 111.986 32.0166L111.511 32.5996L91.0625 56.6924C90.7153 57.1001 90.4303 57.5754 90.3818 58.1592C90.3345 58.7295 90.5286 59.2336 90.7568 59.665V59.666L102.933 82.8135L102.934 82.8145C103.876 84.6012 104.535 86.3489 104.552 88.2363V88.2373C104.594 92.5426 101.462 96.0813 97.1523 96.7139C94.703 97.0725 92.3947 96.5604 89.917 95.7939L89.9131 95.793L71.5283 90.1855L71.5225 90.1836L71.4072 90.1436C71.3896 90.1361 71.3781 90.1298 71.3711 90.126L71.2021 89.8916L70.9072 89.7871L67.0469 88.4248L66.4258 88.2061L65.9795 88.6895L49.4863 106.537C48.9668 107.054 48.4348 107.559 47.8896 108.049L47.8691 108.067L47.8486 108.088C40.2371 115.761 36.0298 117.562 33.9824 117.827H33.9814L33.9248 117.835C33.1954 117.921 32.7593 117.811 32.541 117.726C32.4386 117.685 32.375 117.647 32.3447 117.626L32.3867 117.479C31.9719 117.31 31.4551 116.757 30.957 115.524C30.4771 114.337 30.0966 112.723 29.8096 110.787C29.2367 106.924 29.0607 101.978 29.0869 97.0703C29.1131 92.1722 29.3402 87.3512 29.5605 83.752C29.6707 81.9532 29.7795 80.4614 29.8604 79.4199C29.9008 78.8993 29.9336 78.4913 29.957 78.2139C29.9687 78.0752 29.9782 77.9686 29.9844 77.8975C29.9875 77.862 29.9896 77.8352 29.9912 77.8174C29.992 77.8087 29.9928 77.8022 29.9932 77.7979C29.9933 77.7958 29.994 77.794 29.9941 77.793V77.792V77.791L30.0449 77.2246L29.584 76.8916L26.1367 74.3975L25.9561 74.2666L25.7363 74.2256L25.6592 74.2051C25.6366 74.1973 25.6172 74.1887 25.6006 74.1797L25.5654 74.1602L25.5293 74.1445L9.20312 66.8525L9.19727 66.8496C6.8607 65.8243 4.80192 64.4342 3.21777 62.4893V62.4883L2.89355 62.0752C1.34232 60.0051 0.789109 57.9005 1.07129 56.0098C1.37161 53.9976 2.64345 52.0593 5.02637 50.542C6.6209 49.527 8.44942 48.7487 10.3076 48.1396L10.3086 48.1406L36.5254 39.792H36.5264C36.9596 39.6535 37.4111 39.4456 37.7725 39.0566C38.1416 38.6591 38.3239 38.1736 38.4131 37.6562L38.4121 37.6553L41.9834 17.3857L41.9844 17.3867C42.6553 13.6558 42.9721 10.1636 44.6289 7.05273C45.2785 5.84514 46.0461 4.65156 46.9297 3.66602C48.4155 2.01317 50.1187 1.16318 51.7988 1.02148L52.1348 1.00195ZM32.3486 117.635C32.3508 117.637 32.3531 117.64 32.3555 117.643L32.3623 117.649C32.3622 117.65 32.3586 117.652 32.3301 117.679L32.3438 117.63C32.3453 117.631 32.3469 117.633 32.3486 117.635ZM51.998 18.1729L50.959 23.9131L50.958 23.917L47.3643 44.1904L47.3633 44.1973L46.9893 46.3867L46.9824 46.4287L46.9785 46.4727C46.9713 46.5602 46.9577 46.606 46.9512 46.625C46.9424 46.6309 46.9277 46.6411 46.9033 46.6533C46.8483 46.6809 46.7652 46.7142 46.6348 46.7549L46.6299 46.7559L19.9453 55.2109C19.4615 55.3616 18.9391 55.5811 18.377 56.0938L17.1963 57.1709L18.6816 57.7617L40.3662 66.3926L40.6006 66.4951L43.7939 67.8867L39.5635 101.685L39.168 104.846L41.2988 102.478L64.5254 76.6699L67.4023 77.4775L67.4092 77.498L67.9238 77.6396L89.002 83.4639L89.6592 83.6455L90.0684 83.0986L90.082 83.0801L90.4434 82.5986L90.1865 82.0547L89.6436 80.9043L89.6348 80.8848L89.624 80.8652L77.8057 58.4043L77.8047 58.4004L77.7139 58.2129C77.6528 58.0665 77.6577 58.0138 77.6582 58.0098C77.6584 58.0074 77.6608 57.9864 77.6865 57.9355C77.7151 57.8792 77.7683 57.7934 77.8711 57.6689L96.5605 35.6719L96.5625 35.6689C96.8293 35.3526 97.1563 34.9149 97.2812 34.2051L97.5518 32.6689L96.042 33.0645L90.584 34.4961L90.5811 34.4971L67.9111 40.5371C67.8493 40.5536 67.8044 40.5621 67.7734 40.5664C67.7628 40.5534 67.7494 40.5382 67.7354 40.5186L67.6465 40.3828L54.7773 18.8838L54.7744 18.8789L54.5645 18.5518C54.3348 18.2184 54.0329 17.8677 53.5576 17.5332L52.2773 16.6328L51.998 18.1729Z" fill="#E15919" stroke="white" stroke-width="2"/>
</svg>
