<svg width="120" height="195" viewBox="0 0 120 195" fill="none" xmlns="http://www.w3.org/2000/svg">
<path d="M32.8096 156.257C25.4618 156.257 19.4914 162.232 19.4912 169.579C19.4912 176.927 25.4617 182.902 32.8096 182.902C40.1513 182.902 46.1221 176.926 46.1221 169.579C46.1219 162.232 40.1512 156.257 32.8096 156.257ZM94.6035 120.104C87.2557 120.104 81.2842 126.079 81.2842 133.428C81.2842 140.775 87.2558 146.751 94.6035 146.751C101.946 146.751 107.915 140.774 107.915 133.426C107.915 126.079 101.945 120.104 94.6035 120.104ZM32.8027 78.8525C22.7829 78.8527 14.632 87.0136 14.6318 97.0469C14.6318 107.074 22.7829 115.237 32.8027 115.237C42.8301 115.237 50.9805 107.075 50.9805 97.0469C50.9803 87.0133 42.8285 78.8525 32.8027 78.8525ZM94.6035 47.5645C87.2552 47.5645 81.2843 53.5466 81.2842 60.8936C81.2842 68.2348 87.2555 74.2168 94.6035 74.2168C101.946 74.2167 107.915 68.2343 107.915 60.8936C107.915 53.5488 101.946 47.5646 94.6035 47.5645ZM32.8096 12.0977C25.4618 12.0977 19.4913 18.0729 19.4912 25.4189C19.4912 32.7663 25.4615 38.7432 32.8096 38.7432C40.1512 38.7429 46.1219 32.768 46.1221 25.4209C46.1221 18.0737 40.1513 12.0979 32.8096 12.0977ZM28.126 49.3828L27.3496 49.2051C16.5192 46.7162 8.40639 37.0036 8.40625 25.4209C8.40625 11.9511 19.3586 1 32.8096 1C46.2556 1.00025 57.2061 11.9496 57.2061 25.4209C57.2059 37.1642 48.8762 46.9903 37.8232 49.3135L37.0293 49.4805V65.5225L37.8701 65.6582C45.6178 66.9079 52.6319 70.9856 57.5635 77.1084L58.1514 77.8379L58.917 77.2998L70.8379 68.9316L71.4268 68.5186L71.2217 67.8281C70.565 65.6207 70.2002 63.2997 70.2002 60.8936C70.2004 47.4254 81.1512 36.4736 94.6035 36.4736C108.049 36.4738 119 47.4253 119 60.8936C119 74.3575 108.049 85.3143 94.6035 85.3145C87.3383 85.3145 80.8231 82.1022 76.3467 77.0342L75.7549 76.3643L75.0225 76.8779L63.1064 85.2461L62.4824 85.6846L62.7402 86.4023C63.8607 89.5277 64.5258 92.8646 64.6045 96.3486L64.6123 97.0469C64.606 100.738 63.9514 104.4 62.6787 107.863L62.415 108.582L63.0391 109.024L74.9766 117.482L75.7109 118.002L76.3057 117.326C80.7837 112.236 87.3165 109.006 94.6035 109.006C108.05 109.006 119 119.958 119 133.428C119 146.896 108.05 157.847 94.6035 157.847C81.1514 157.847 70.2008 146.896 70.2002 133.429C70.2025 131.104 70.5402 128.792 71.2031 126.564L71.4082 125.878L70.8232 125.464L58.8086 116.946L58.0459 116.406L57.4551 117.131C52.5753 123.115 45.6955 127.12 38.0947 128.402L37.2617 128.543V145.571L38.0469 145.744C48.9845 148.148 57.2059 157.917 57.2061 169.579C57.2061 183.049 46.2556 194 32.8096 194C19.3572 194 8.4082 183.049 8.4082 169.579C8.40835 157.917 16.6279 148.146 27.5713 145.744L28.3564 145.571V128.543L27.5225 128.402C12.4928 125.873 1 112.79 1 97.0469C1.00013 81.3787 12.3844 68.3418 27.2988 65.7207L28.126 65.5762V49.3828Z" fill="#231F20" stroke="white" stroke-width="2"/>
</svg>
