<svg width="120" height="120" viewBox="0 0 120 120" fill="none" xmlns="http://www.w3.org/2000/svg">
<mask id="mask0_8_74" style="mask-type:alpha" maskUnits="userSpaceOnUse" x="0" y="0" width="120" height="120">
<path d="M86.7217 1.0918C88.0443 0.866672 89.4043 1.05803 90.6133 1.63965L115.319 13.5264C116.422 14.0572 117.353 14.8885 118.004 15.9248C118.655 16.9612 119 18.1608 119 19.3848V99.9941C119 101.218 118.655 102.416 118.004 103.452C117.353 104.488 116.422 105.32 115.319 105.851L90.6133 117.739C89.8135 118.124 88.9426 118.341 88.0557 118.375C87.2797 118.405 86.5058 118.294 85.7705 118.05L85.457 117.938L85.1475 117.808C84.4346 117.486 83.7857 117.037 83.2314 116.481L83.2148 116.465L83.1973 116.449L35.9004 73.3008L35.2852 72.7402L34.6221 73.2432L14.0215 88.8809C13.2783 89.4452 12.361 89.7319 11.4287 89.6904C10.5548 89.6515 9.71945 89.3264 9.0498 88.7686L8.91797 88.6533L2.31055 82.6436C1.89878 82.2688 1.56904 81.8119 1.34375 81.3027C1.11857 80.7937 1.00239 80.2431 1.00195 79.6865C1.00153 79.1297 1.11728 78.5788 1.3418 78.0693C1.53822 77.6236 1.81398 77.2179 2.15527 76.8721L2.30566 76.7275L20.1709 60.4277L20.9805 59.6885L20.1709 58.9502L2.30469 42.6504C1.89332 42.2751 1.56448 41.8181 1.33984 41.3086C1.11524 40.7991 0.99958 40.2482 1 39.6914C1.00042 39.1345 1.11735 38.5834 1.34277 38.0742C1.56819 37.5652 1.89772 37.109 2.30957 36.7344L8.91699 30.7236C9.6073 30.0959 10.4956 29.7298 11.4277 29.6885C12.3599 29.6471 13.2773 29.9328 14.0205 30.4971L34.6211 46.1357L35.2842 46.6396L35.8994 46.0781L83.1963 2.92871L83.2139 2.91309L83.2295 2.89746C84.1781 1.94831 85.3988 1.317 86.7217 1.0918ZM89.4131 31.6514L53.5264 58.8926L52.4775 59.6885L53.5264 60.4854L89.4141 87.7266L91.0186 88.9453V86.9307L91.0176 32.4482V30.4336L89.4131 31.6514Z" fill="white" stroke="white" stroke-width="2"/>
</mask>
<g mask="url(#mask0_8_74)">
<path d="M86.7012 1.09113C88.0246 0.865945 89.3851 1.05785 90.5947 1.63995L115.32 13.5462C115.457 13.612 115.591 13.6824 115.722 13.7571C114.285 13.5827 112.758 13.9272 111.429 14.9359L13.9561 88.8802C13.212 89.4446 12.2943 89.7313 11.3613 89.6898C10.4285 89.6482 9.53955 89.2818 8.84863 88.6536L2.2373 82.6429C1.82534 82.2684 1.49597 81.8121 1.27051 81.303C1.0451 80.7941 0.928215 80.2435 0.927734 79.6868C0.927311 79.1301 1.04298 78.579 1.26758 78.0696C1.49225 77.5602 1.82101 77.103 2.23242 76.7278L83.1738 2.92902L83.1914 2.91339L83.208 2.89679C84.157 1.94734 85.3778 1.31633 86.7012 1.09113Z" fill="#FFBC5E" stroke="white" stroke-width="2"/>
<g filter="url(#filter0_d_8_74)">
<path d="M11.3613 29.6875C12.2943 29.646 13.212 29.9327 13.9561 30.4971L111.429 104.44C112.759 105.45 114.286 105.794 115.724 105.619C115.592 105.694 115.458 105.766 115.32 105.832L90.5947 117.736C89.3852 118.319 88.0247 118.511 86.7012 118.286C85.3778 118.061 84.1572 117.431 83.208 116.481L83.1914 116.465L83.1738 116.449L2.23242 42.6494C1.82104 42.2743 1.49224 41.817 1.26758 41.3076C1.04307 40.7984 0.927368 40.2479 0.927734 39.6914C0.928158 39.1346 1.04505 38.5833 1.27051 38.0742C1.49596 37.5652 1.82537 37.1088 2.2373 36.7344L8.84863 30.7236C9.53954 30.0955 10.4285 29.729 11.3613 29.6875Z" fill="#FFBC5E" stroke="white" stroke-width="2"/>
</g>
<g filter="url(#filter1_d_8_74)">
<path d="M89.0264 1.11841C89.5664 1.22354 90.0941 1.39678 90.5957 1.63794L115.316 13.5276C116.42 14.0581 117.351 14.8896 118.003 15.926C118.654 16.9623 119 18.1619 119 19.386V99.9934C119 101.218 118.654 102.417 118.003 103.453C117.351 104.49 116.42 105.321 115.316 105.852L90.5957 117.74C90.0936 117.981 89.565 118.153 89.0244 118.258C90.2008 117.309 91 115.861 91 114.081V5.29517C91 3.51593 90.2021 2.06696 89.0264 1.11841Z" fill="#FFDB6E" stroke="white" stroke-width="2"/>
</g>
<g opacity="0.25" style="mix-blend-mode:overlay">
<path d="M86.6484 1.0918C87.9713 0.866599 89.3318 1.05787 90.541 1.63965L115.247 13.5264C116.35 14.0572 117.28 14.8887 117.931 15.9248C118.582 16.9612 118.928 18.1608 118.928 19.3848V99.9932C118.928 101.217 118.582 102.416 117.931 103.452C117.28 104.488 116.35 105.32 115.247 105.851L90.541 117.739C89.7412 118.124 88.8703 118.34 87.9834 118.374C87.0967 118.408 86.2125 118.26 85.3857 117.938C84.5508 117.612 83.7922 117.116 83.1592 116.481L83.1426 116.465L83.126 116.449L35.8291 73.2998L35.2139 72.7393L34.5508 73.2422L13.9492 88.8809C13.2059 89.4451 12.2878 89.731 11.3555 89.6895C10.4233 89.6479 9.53489 89.2813 8.84473 88.6533L2.2373 82.6436C1.82534 82.2689 1.49593 81.812 1.27051 81.3027C1.04511 80.7935 0.928158 80.2424 0.927734 79.6855C0.927371 79.1288 1.04397 78.5778 1.26855 78.0684C1.49317 77.559 1.82119 77.1018 2.23242 76.7266L20.0977 60.4277L20.9072 59.6885L20.0977 58.9502L2.23145 42.6514H2.23242C1.82111 42.276 1.49217 41.8191 1.26758 41.3096C1.04301 40.8 0.92732 40.2492 0.927734 39.6924C0.928158 39.1355 1.04514 38.5844 1.27051 38.0752C1.49581 37.5663 1.82471 37.11 2.23633 36.7354L8.84375 30.7246C9.53399 30.0968 10.4224 29.7309 11.3545 29.6895C12.2868 29.6481 13.205 29.9337 13.9482 30.498L34.5488 46.1357L35.2119 46.6396L35.8271 46.0781L83.124 2.92871L83.1572 2.89746C84.1057 1.94839 85.3257 1.31705 86.6484 1.0918ZM89.3418 31.6504L53.4541 58.8926L52.4043 59.6885L53.4541 60.4854L89.3418 87.7256L90.9463 88.9443V30.4326L89.3418 31.6504Z" fill="url(#paint0_linear_8_74)" style="mix-blend-mode:overlay"/>
<path d="M86.6484 1.0918C87.9713 0.866599 89.3318 1.05787 90.541 1.63965L115.247 13.5264C116.35 14.0572 117.28 14.8887 117.931 15.9248C118.582 16.9612 118.928 18.1608 118.928 19.3848V99.9932C118.928 101.217 118.582 102.416 117.931 103.452C117.28 104.488 116.35 105.32 115.247 105.851L90.541 117.739C89.7412 118.124 88.8703 118.34 87.9834 118.374C87.0967 118.408 86.2125 118.26 85.3857 117.938C84.5508 117.612 83.7922 117.116 83.1592 116.481L83.1426 116.465L83.126 116.449L35.8291 73.2998L35.2139 72.7393L34.5508 73.2422L13.9492 88.8809C13.2059 89.4451 12.2878 89.731 11.3555 89.6895C10.4233 89.6479 9.53489 89.2813 8.84473 88.6533L2.2373 82.6436C1.82534 82.2689 1.49593 81.812 1.27051 81.3027C1.04511 80.7935 0.928158 80.2424 0.927734 79.6855C0.927371 79.1288 1.04397 78.5778 1.26855 78.0684C1.49317 77.559 1.82119 77.1018 2.23242 76.7266L20.0977 60.4277L20.9072 59.6885L20.0977 58.9502L2.23145 42.6514H2.23242C1.82111 42.276 1.49217 41.8191 1.26758 41.3096C1.04301 40.8 0.92732 40.2492 0.927734 39.6924C0.928158 39.1355 1.04514 38.5844 1.27051 38.0752C1.49581 37.5663 1.82471 37.11 2.23633 36.7354L8.84375 30.7246C9.53399 30.0968 10.4224 29.7309 11.3545 29.6895C12.2868 29.6481 13.205 29.9337 13.9482 30.498L34.5488 46.1357L35.2119 46.6396L35.8271 46.0781L83.124 2.92871L83.1572 2.89746C84.1057 1.94839 85.3257 1.31705 86.6484 1.0918ZM89.3418 31.6504L53.4541 58.8926L52.4043 59.6885L53.4541 60.4854L89.3418 87.7256L90.9463 88.9443V30.4326L89.3418 31.6504Z" stroke="white" stroke-width="2"/>
</g>
</g>
<defs>
<filter id="filter0_d_8_74" x="-8.40561" y="20.3503" width="136.739" height="107.361" filterUnits="userSpaceOnUse" color-interpolation-filters="sRGB">
<feFlood flood-opacity="0" result="BackgroundImageFix"/>
<feColorMatrix in="SourceAlpha" type="matrix" values="0 0 0 0 0 0 0 0 0 0 0 0 0 0 0 0 0 0 127 0" result="hardAlpha"/>
<feOffset/>
<feGaussianBlur stdDeviation="4.16667"/>
<feColorMatrix type="matrix" values="0 0 0 0 0 0 0 0 0 0 0 0 0 0 0 0 0 0 0.25 0"/>
<feBlend mode="overlay" in2="BackgroundImageFix" result="effect1_dropShadow_8_74"/>
<feBlend mode="normal" in="SourceGraphic" in2="effect1_dropShadow_8_74" result="shape"/>
</filter>
<filter id="filter1_d_8_74" x="74.1667" y="-8.33505" width="54.1667" height="136.047" filterUnits="userSpaceOnUse" color-interpolation-filters="sRGB">
<feFlood flood-opacity="0" result="BackgroundImageFix"/>
<feColorMatrix in="SourceAlpha" type="matrix" values="0 0 0 0 0 0 0 0 0 0 0 0 0 0 0 0 0 0 127 0" result="hardAlpha"/>
<feOffset/>
<feGaussianBlur stdDeviation="4.16667"/>
<feColorMatrix type="matrix" values="0 0 0 0 0 0 0 0 0 0 0 0 0 0 0 0 0 0 0.25 0"/>
<feBlend mode="overlay" in2="BackgroundImageFix" result="effect1_dropShadow_8_74"/>
<feBlend mode="normal" in="SourceGraphic" in2="effect1_dropShadow_8_74" result="shape"/>
</filter>
<linearGradient id="paint0_linear_8_74" x1="59.9276" y1="-0.00186275" x2="59.9276" y2="119.379" gradientUnits="userSpaceOnUse">
<stop stop-color="white"/>
<stop offset="1" stop-color="white" stop-opacity="0"/>
</linearGradient>
</defs>
</svg>
