<svg width="119" height="119" viewBox="0 0 119 119" fill="none" xmlns="http://www.w3.org/2000/svg">
<path d="M54.667 2.95117C57.1904 0.430267 61.2297 0.352496 63.8428 2.71484L64.0908 2.95117L116.048 54.9062C117.298 56.1566 118 57.8523 118 59.6201C118 61.2775 117.383 62.8715 116.276 64.0947L116.049 64.335L64.3359 116.048C61.7292 118.65 57.5104 118.65 54.9092 116.049L2.95215 64.0928H2.95117C1.70177 62.8426 1.00002 61.1474 1 59.3799C1 57.6121 1.70232 55.9162 2.95215 54.666L37.8701 19.749L50.1992 32.0781C48.9955 35.6128 49.7953 39.6792 52.6182 42.502V42.5029C53.4037 43.2924 54.3154 43.9416 55.3125 44.4307V75.8174C54.3169 76.3066 53.4062 76.9551 52.6201 77.7422C48.6679 81.6945 48.6684 88.0974 52.6191 92.0547V92.0557C56.5685 96.0072 62.976 96.0063 66.9287 92.0557L66.9297 92.0547C70.8802 88.0966 70.8812 81.6936 66.9287 77.7422L66.9268 77.7412L66.6279 77.4551C66.073 76.9461 65.4626 76.5019 64.8096 76.1279L64.8105 46.7666L74.9502 56.9062C74.3898 58.5783 74.2755 60.3725 74.623 62.1094C75.0149 64.0675 75.9771 65.8658 77.3887 67.2783C78.3283 68.2184 79.4439 68.9648 80.6719 69.4736C81.8997 69.9824 83.2159 70.2441 84.5449 70.2441C85.8739 70.2441 87.1902 69.9823 88.418 69.4736C89.6459 68.9648 90.7625 68.2184 91.7021 67.2783L91.7012 67.2773C95.6545 63.3244 95.6553 56.9198 91.7012 52.9688C89.0318 50.2944 85.2429 49.4449 81.8545 50.3799L69.5156 38.04C70.4505 34.6502 69.5972 30.8672 66.9287 28.1953L66.9277 28.1943C64.2721 25.5387 60.5192 24.6798 57.1426 25.5898L44.585 13.0332L54.667 2.95117Z" fill="#F34F29" stroke="white" stroke-width="2"/>
</svg>
