<svg width="121" height="121" viewBox="0 0 121 121" fill="none" xmlns="http://www.w3.org/2000/svg">
<path d="M3.88646 118.538L59.9059 61.1148C60.0788 60.9439 60.1861 60.7177 60.2089 60.4757C60.2318 60.2337 60.1689 59.9914 60.031 59.7911C56.6246 55.0352 50.3387 54.2104 48.0089 51.0146C41.1086 41.5488 39.3577 36.1899 36.3922 36.5225C36.1852 36.5523 35.9949 36.6527 35.8536 36.8067L15.6177 57.5513C3.97514 69.4759 2.30218 95.76 2.00001 117.77C1.99901 117.989 2.06359 118.204 2.18543 118.386C2.30728 118.568 2.48081 118.709 2.68369 118.792C2.88656 118.874 3.1095 118.894 3.32378 118.849C3.53807 118.804 3.7343 118.695 3.88646 118.538Z" fill="#017CEE"/>
<path d="M118.53 117.119L61.108 61.0954C60.937 60.922 60.7104 60.8144 60.468 60.7915C60.2255 60.7686 59.9828 60.8319 59.7824 60.9702C55.0265 64.3787 54.2017 70.6627 51.006 72.9925C41.5403 79.8929 36.1815 81.6438 36.514 84.6094C36.5442 84.8157 36.6446 85.0052 36.7982 85.146L57.5426 105.382C69.4671 117.025 95.7508 118.698 117.761 119C117.979 119 118.192 118.935 118.373 118.814C118.554 118.693 118.695 118.52 118.777 118.318C118.86 118.117 118.88 117.895 118.836 117.681C118.792 117.468 118.686 117.272 118.53 117.119Z" fill="#00AD46"/>
<path d="M57.5465 105.383C51.0278 99.0227 48.0071 86.4426 60.4998 60.5003C40.1902 69.5769 33.0737 81.5075 36.5735 84.9235L57.5465 105.383Z" fill="#04D659"/>
<path d="M117.112 2.47127L61.0941 59.8944C60.9209 60.065 60.8133 60.2913 60.7904 60.5334C60.7675 60.7755 60.8308 61.018 60.969 61.2181C64.3773 65.974 70.6594 66.7988 72.9911 69.9946C79.8914 79.4604 81.6442 84.8193 84.6078 84.4867C84.8149 84.4573 85.0053 84.3568 85.1464 84.2025L105.382 63.4579C117.025 51.5333 118.698 25.2492 119 3.23876C119 3.01976 118.935 2.80564 118.813 2.62385C118.691 2.44205 118.518 2.30089 118.315 2.21845C118.112 2.13602 117.889 2.11607 117.675 2.16118C117.46 2.20629 117.264 2.31404 117.112 2.47127Z" fill="#00C7D4"/>
<path d="M105.394 63.4575C99.0338 69.9763 86.4539 72.997 60.5101 60.5042C69.5866 80.814 81.517 87.9306 84.933 84.4308L105.394 63.4575Z" fill="#11E1EE"/>
<path d="M2.46555 3.88833L59.888 59.9066C60.0588 60.0795 60.285 60.1868 60.527 60.2097C60.769 60.2326 61.0114 60.1696 61.2116 60.0318C65.9675 56.6233 66.7923 50.3393 69.988 48.0095C79.4537 41.1091 84.8126 39.3582 84.48 36.3926C84.4497 36.1858 84.3494 35.9957 84.1958 35.854L63.4514 15.6179C51.5269 3.97518 25.2432 2.30219 3.23303 2.00002C3.01359 1.9986 2.79876 2.06302 2.61631 2.18496C2.43386 2.3069 2.29218 2.48077 2.20957 2.68408C2.12697 2.88739 2.10724 3.1108 2.15293 3.32544C2.19862 3.54008 2.3073 3.7363 2.46555 3.88833Z" fill="#E43921"/>
<path d="M63.4608 15.6199C69.9795 21.9798 73.0002 34.5599 60.5075 60.504C80.8171 51.4274 87.9336 39.495 84.4338 36.0808L63.4608 15.6199Z" fill="#FF7557"/>
<path d="M15.6177 57.5513C21.9775 51.0326 34.558 48.0119 60.5018 60.5047C51.4253 40.1949 39.4949 33.0783 36.0789 36.5781L15.6177 57.5513Z" fill="#0CB6FF"/>
<path d="M60.5101 62.9989C61.8931 62.9989 63.0142 61.8778 63.0142 60.4948C63.0142 59.1118 61.8931 57.9907 60.5101 57.9907C59.1271 57.9907 58.006 59.1118 58.006 60.4948C58.006 61.8778 59.1271 62.9989 60.5101 62.9989Z" fill="#4A4848"/>
<path d="M3.24707 1C14.2617 1.15122 26.4026 1.64519 37.2988 3.57129C48.163 5.49176 57.9658 8.86393 64.1504 14.9023H64.1494L64.1553 14.9072L64.1592 14.9043L84.3594 34.6123L116.396 1.77344C116.687 1.47318 117.062 1.26833 117.469 1.18262C117.878 1.0965 118.304 1.13457 118.691 1.29199C119.079 1.44945 119.41 1.71928 119.644 2.06641C119.877 2.41345 120.001 2.8222 120 3.24023V3.25293C119.849 14.2677 119.355 26.4084 117.429 37.3047C115.509 48.1656 112.137 57.9644 106.103 64.1494L106.109 64.1562L86.3916 84.3662L119.229 116.403L119.23 116.405C119.529 116.698 119.732 117.073 119.815 117.479C119.9 117.888 119.861 118.312 119.703 118.697C119.545 119.083 119.276 119.412 118.93 119.645C118.584 119.877 118.176 120 117.76 120H117.747C106.732 119.849 94.5915 119.355 83.6953 117.429C72.8311 115.508 63.0283 112.136 56.8438 106.098V106.097L36.6426 86.3926L4.60254 119.236L4.60156 119.235C4.31008 119.536 3.93676 119.741 3.53027 119.827C3.12073 119.914 2.6944 119.875 2.30664 119.718C1.91903 119.56 1.58734 119.29 1.35449 118.942C1.12158 118.594 0.998084 118.184 1 117.766V117.757C1.15121 106.742 1.64526 94.6014 3.57129 83.7051C5.43169 73.1803 8.65447 63.6514 14.3438 57.4434L14.9023 56.8525L14.9121 56.8428L20.6924 50.918L34.6123 36.6465L1.76758 4.60449L1.76855 4.60352C1.46792 4.31271 1.26139 3.93992 1.1748 3.5332C1.08758 3.12304 1.12535 2.69612 1.2832 2.30762C1.44111 1.91902 1.71182 1.58661 2.06055 1.35352C2.40923 1.12046 2.81987 0.997327 3.23926 1H3.24707Z" stroke="white" stroke-width="2"/>
</svg>
