<svg width="120" height="120" viewBox="0 0 120 120" fill="none" xmlns="http://www.w3.org/2000/svg">
<path d="M89.8418 87.5355C90.6348 81.1364 90.3974 80.1971 95.3124 81.2344L96.5599 81.3402C100.34 81.5067 105.284 80.7505 108.189 79.4419C114.442 76.6278 118.149 71.9311 111.985 73.1643C97.9205 75.9784 96.9538 71.3601 96.9538 71.3601C111.805 49.9923 118.013 22.8671 112.653 16.227C98.0376 -1.88292 72.7382 6.68084 72.3149 6.90221L72.1796 6.92669C69.4008 6.3674 66.2908 6.03339 62.7969 5.97854C56.4324 5.87667 51.6032 7.59667 47.9397 10.2903C47.9397 10.2903 2.80625 -7.7413 4.90621 32.9667C5.35266 41.6264 17.7059 98.4932 32.441 81.3167C37.8267 75.0361 43.0307 69.7253 43.0307 69.7253C45.6145 71.3895 48.7094 72.2397 51.9537 71.9341L52.2052 71.7264C52.1265 72.5061 52.1608 73.2691 52.3052 74.1722C48.5104 78.2851 49.6255 79.007 42.0368 80.5213C34.3581 82.0552 38.8691 84.787 41.8135 85.5011C45.3842 86.367 53.6436 87.5933 59.2253 80.0179L59.0031 80.8818C60.4919 82.0376 60.3919 89.185 60.602 94.2911C60.8131 99.3982 61.1657 104.163 62.2394 106.974C63.3131 109.783 64.5797 117.019 74.5533 114.947C82.8884 113.219 89.261 110.726 89.8418 87.5355Z" fill="black"/>
<path d="M71.3059 120C66.8948 120 64.0222 118.346 62.2778 116.748C59.6445 114.338 58.6001 111.234 57.9758 109.38L57.7061 108.606C56.4496 105.317 56.0233 100.581 55.7708 94.4831C55.7324 93.5673 55.7062 92.624 55.6769 91.6239C55.6557 90.8922 55.6294 89.9745 55.591 89.0145C54.0019 89.7493 52.315 90.2662 50.579 90.5504C47.469 91.0656 44.1256 90.8991 40.6398 90.0538C38.1803 89.4573 35.6248 88.2212 34.1682 86.3121C29.9229 89.9176 25.8735 89.4289 23.6674 88.7148C19.7756 87.4562 16.2928 83.9192 13.0192 77.9041C10.6869 73.6188 8.43139 68.0356 6.31426 61.3084C2.62747 49.5936 0.285091 37.2549 0.0770148 33.2037C-0.577517 20.5241 2.94261 11.4559 10.5374 6.25378C22.518 -1.95246 40.6701 2.87353 47.2882 5.06467C51.7345 2.46606 56.9657 1.20152 62.8767 1.29262C66.0514 1.34257 69.0746 1.61291 71.8826 2.09874C74.8118 1.20544 80.5976 -0.0767216 87.2207 0.00359729C99.4235 0.144645 109.535 4.75613 116.462 13.3395C121.405 19.4633 118.96 32.3231 117.065 39.4441C114.396 49.4604 109.72 60.1135 103.977 69.3874C105.536 69.3981 107.796 69.2169 111.008 68.5734C117.345 67.3049 119.199 70.6 119.702 72.0751C121.717 77.9932 112.958 82.4656 110.225 83.6959C106.724 85.2719 101.016 86.2318 96.3417 86.0241L96.1377 86.0114L94.9094 85.9066L94.7882 86.8998L94.671 87.8705C94.3569 99.6235 92.6256 107.067 89.0631 111.985C85.3288 117.141 80.139 118.586 75.5674 119.536C74.0078 119.859 72.5907 120 71.3059 120ZM62.0232 77.2243C64.8706 79.4341 65.1201 83.592 65.3434 91.3624C65.3716 92.3321 65.3979 93.2499 65.4332 94.107C65.5403 96.7026 65.7918 102.78 66.7736 105.349C66.912 105.712 67.0363 106.08 67.1676 106.471C68.2615 109.719 68.8099 111.348 73.5402 110.368C77.5108 109.542 79.5522 108.801 81.1501 106.596C83.4723 103.389 84.7712 96.9377 85.0096 87.4219L89.8408 87.5355L85.043 86.9772L85.1844 85.8155C85.6439 81.9857 85.9753 79.2196 88.6146 77.3899C90.7327 75.9226 93.1458 76.0646 95.068 76.4006C92.9559 74.853 92.3721 73.038 92.2165 72.2935L91.8135 70.3688L92.9458 68.7399C99.4679 59.3563 104.846 47.8237 107.702 37.0982C110.637 26.0778 109.742 20.2253 108.848 19.1185C97.0003 4.43877 76.4563 10.4999 74.3108 11.1875L73.9482 11.3775L72.1301 11.7057L71.1988 11.5186C68.6312 11.0014 65.7787 10.7154 62.7212 10.6674C57.9172 10.589 54.0416 11.69 50.8639 14.0281L48.6588 15.6491L46.1003 14.6275C40.6338 12.4599 24.5775 8.10209 16.105 13.9213C11.402 17.1517 9.25965 23.4812 9.73641 32.7345C9.89399 35.7896 12.0343 47.3545 15.5656 58.5708C20.4453 74.0713 24.8795 79.2205 26.731 79.819C27.0542 79.9248 27.8926 79.293 28.7269 78.3214C32.2057 74.2774 35.8079 70.3348 39.5287 66.4988L42.3267 63.6436L45.7094 65.823C47.073 66.7016 48.577 67.2001 50.1214 67.2942L58.189 60.6218L57.0203 72.1877C56.994 72.4473 56.9809 72.8009 57.0859 73.4572L57.4375 75.6493L55.9122 77.3027L55.7365 77.4947L60.1687 79.4782L62.0232 77.2243Z" fill="black"/>
<path d="M111.985 73.1643C97.9195 75.9784 96.9528 71.3601 96.9528 71.3601C111.804 49.9913 118.011 22.8651 112.653 16.227C98.0376 -1.88194 72.7371 6.68182 72.3149 6.90416L72.1786 6.92767C69.3998 6.36838 66.2898 6.03535 62.7939 5.9805C56.4294 5.87961 51.6022 7.59863 47.9387 10.2922C47.9387 10.2922 2.80423 -7.73836 4.90318 32.9686C5.34963 41.6293 17.7029 98.4961 32.438 81.3196C37.8237 75.0391 43.0266 69.7282 43.0266 69.7282C45.6114 71.3924 48.7053 72.2426 51.9487 71.937L52.2012 71.7293C52.1224 72.509 52.1588 73.272 52.3022 74.1751C48.5063 78.2881 49.6215 79.01 42.0327 80.5243C34.3541 82.0582 38.8651 84.79 41.8105 85.504C45.3801 86.3699 53.6406 87.5962 59.2213 80.0208L58.998 80.8847C60.4859 82.0405 61.5303 88.3994 61.3556 94.1638C61.1798 99.9281 61.0626 103.886 62.2353 106.978C63.407 110.069 64.5747 117.023 74.5502 114.951C82.8854 113.219 87.2045 108.73 87.8065 101.243C88.2328 95.919 89.1974 96.7065 89.259 91.9472L90.0338 89.6943C90.9267 82.4784 90.1752 80.1511 95.3114 81.2334L96.5589 81.3392C100.339 81.5057 105.285 80.7505 108.189 79.4419C114.441 76.6298 118.149 71.9311 111.985 73.1643Z" fill="#336791"/>
<path d="M71.8099 117.111C63.4949 117.111 60.8606 110.726 59.7829 108.115C58.2051 104.288 57.8647 89.4367 58.2162 77.2576C58.2215 77.0522 58.2685 76.8499 58.3548 76.6622C58.441 76.4745 58.5646 76.3053 58.7186 76.1642C58.8726 76.023 59.0538 75.9129 59.2519 75.84C59.45 75.7671 59.661 75.7329 59.8728 75.7394C60.0843 75.745 60.2927 75.791 60.4859 75.8747C60.6791 75.9584 60.8534 76.0782 60.9988 76.2274C61.1442 76.3765 61.2579 76.5519 61.3333 76.7436C61.4087 76.9354 61.4444 77.1397 61.4384 77.3448C61.0333 91.3918 61.6081 104.121 62.7757 106.954C64.5979 111.371 67.3615 115.234 75.1745 113.611C82.5915 112.068 85.3692 109.341 86.6066 102.386C87.556 97.0484 89.4338 81.8642 89.6651 78.8679C89.6805 78.6632 89.7375 78.4634 89.8328 78.28C89.928 78.0966 90.0596 77.9333 90.2201 77.7994C90.3806 77.6654 90.5667 77.5635 90.7678 77.4994C90.969 77.4354 91.1812 77.4105 91.3923 77.4261C91.8184 77.4574 92.2142 77.6514 92.493 77.9654C92.7717 78.2794 92.9106 78.6878 92.8792 79.101C92.6377 82.2207 90.7691 97.3755 89.7833 102.918C88.3227 111.133 84.546 114.859 75.8502 116.667C74.3725 116.973 73.0301 117.11 71.8099 117.111ZM26.7239 85.9233C25.9972 85.9208 25.2755 85.8051 24.5866 85.5804C19.1857 83.833 14.0414 75.3035 9.29602 60.2261C5.68397 48.7493 3.39513 36.7701 3.19412 32.8765C2.59919 21.3341 5.66377 13.1681 12.305 8.60653C25.4432 -0.420525 47.5447 8.17555 48.4791 8.5458C48.8749 8.70258 49.1902 9.00541 49.3558 9.38767C49.5214 9.76993 49.5235 10.2003 49.3619 10.5841C49.2002 10.968 48.8879 11.2738 48.4937 11.4343C48.0995 11.5949 47.6557 11.597 47.2599 11.4402C47.0468 11.356 25.8533 3.12232 14.1616 11.1611C8.4829 15.0653 5.87589 22.3195 6.41224 32.7208C6.58092 36.0011 8.71926 47.6924 12.3778 59.3132C16.6141 72.7735 21.4352 81.2667 25.6058 82.6155C26.2603 82.8271 28.2522 83.4706 31.0996 80.1501C34.4202 76.2829 37.8653 72.5178 41.4297 68.8604C41.728 68.5719 42.1308 68.4081 42.552 68.404C42.9733 68.3999 43.3794 68.5559 43.6836 68.8385C43.9877 69.1212 44.1657 69.508 44.1794 69.9163C44.1931 70.3246 44.0415 70.7219 43.7569 71.0231C43.7084 71.0721 38.8611 75.9862 33.5783 82.1492C31.0764 85.0672 28.6784 85.9233 26.7239 85.9233ZM96.8528 72.7539C96.5606 72.7535 96.274 72.6761 96.0237 72.53C95.7733 72.3839 95.5686 72.1746 95.4315 71.9244C95.2943 71.6742 95.2299 71.3925 95.245 71.1096C95.2602 70.8266 95.3544 70.553 95.5175 70.3179C110.53 48.715 115.8 22.6124 111.287 17.0194C105.606 9.98077 97.5851 6.30471 87.4449 6.09216C79.937 5.93544 73.9694 7.79453 72.9937 8.11874L72.7483 8.21571C71.7675 8.51446 71.015 7.99337 70.7311 7.38412C70.5693 7.03506 70.5448 6.64064 70.6622 6.27525C70.7796 5.90986 71.0308 5.59876 71.3685 5.40063C71.4149 5.37419 71.5624 5.31346 71.8018 5.22824C73.4593 4.63956 79.5178 2.87647 87.0217 2.95972C98.2417 3.0753 107.51 7.2705 113.823 15.0938C116.81 18.7953 116.817 27.3228 113.842 38.491C110.81 49.8777 105.104 62.1146 98.1891 72.0653C97.8801 72.5129 97.371 72.7539 96.8528 72.7539ZM97.6205 82.7546C95.0569 82.7546 92.759 82.4039 91.3832 81.6046C89.9691 80.7828 89.6994 79.6662 89.6641 79.0736C89.2782 72.5012 93.0175 71.3571 94.9246 70.8351C94.6589 70.4452 94.2811 69.9868 93.8902 69.5137C92.7781 68.1659 91.2549 66.3205 90.0812 63.5603C89.8974 63.1293 89.3217 62.1273 88.655 60.9666C85.0399 54.6802 77.5179 41.599 82.3501 34.9002C84.5864 31.8001 89.0398 30.5796 95.6013 31.2604C93.6711 25.5577 84.4793 7.71911 62.6687 7.37236C56.1092 7.26658 50.7295 9.22264 46.6872 13.1808C37.6369 22.0443 37.9641 38.0816 37.9692 38.2422C37.9747 38.4474 37.9386 38.6516 37.8628 38.8432C37.7869 39.0349 37.673 39.2101 37.5273 39.359C37.3816 39.5079 37.2071 39.6275 37.0138 39.711C36.8205 39.7945 36.6121 39.8403 36.4005 39.8457C36.1889 39.8511 35.9783 39.816 35.7808 39.7425C35.5832 39.669 35.4024 39.5584 35.2489 39.4172C35.0953 39.2759 34.972 39.1067 34.8859 38.9193C34.7998 38.7318 34.7526 38.5297 34.747 38.3245C34.7268 37.6124 34.3894 20.7827 44.3973 10.9808C49.0811 6.39385 55.2466 4.12925 62.7222 4.24776C76.6754 4.47011 85.6571 11.3491 90.7337 17.0802C96.268 23.3264 98.9811 30.2162 99.2043 32.5161C99.3709 34.2263 98.1053 34.5681 97.8498 34.6191L97.268 34.6318C90.8287 33.6317 86.6975 34.3262 84.9894 36.6927C81.3137 41.787 88.4298 54.161 91.4681 59.4454C92.2438 60.7932 92.8034 61.7678 93.06 62.3692C94.0579 64.7161 95.3599 66.2931 96.4053 67.5606C97.3255 68.6753 98.1225 69.642 98.4073 70.7763C98.5396 71.0016 100.417 73.6952 111.56 71.4649C114.352 70.9066 116.027 71.3836 116.539 72.8851C117.546 75.8383 111.896 79.2832 108.768 80.6917C105.965 81.9553 101.491 82.7546 97.6205 82.7546ZM92.8771 78.816C93.2307 79.1618 94.9993 79.7583 98.6619 79.6055C101.918 79.4703 105.353 78.7837 107.413 77.8561C110.049 76.669 111.808 75.3417 112.719 74.4357L112.214 74.5258C105.09 75.952 100.051 75.7619 97.2366 73.9606C97.0476 73.8394 96.8655 73.7083 96.6912 73.5679C96.3862 73.6844 96.1043 73.7608 95.9033 73.8157C94.3074 74.2496 92.6569 74.6992 92.8771 78.816ZM46.8559 87.5482C45.0862 87.5482 43.2236 87.3141 41.3216 86.8528C39.351 86.3748 36.0288 84.9359 36.0793 82.5724C36.1369 79.9209 40.1136 79.1255 41.6105 78.8268C47.0185 77.7464 47.371 77.3135 49.0609 75.232C49.5538 74.6257 50.1669 73.8705 51.0032 72.9655C52.2446 71.6177 53.6012 70.935 55.0355 70.935C56.0345 70.935 56.8536 71.2631 57.395 71.4815C59.1203 72.175 60.5596 73.8519 61.1515 75.8569C61.6859 77.6661 61.4303 79.4076 60.4344 80.7603C57.1647 85.2004 52.4689 87.5482 46.8559 87.5482ZM39.5611 82.7066C40.0469 83.071 41.0206 83.5578 42.1044 83.8203C43.7519 84.2199 45.3498 84.4227 46.8569 84.4227C51.4487 84.4227 55.1355 82.5792 57.8132 78.9433C58.3718 78.1852 58.2041 77.2224 58.0546 76.716C57.7415 75.6552 56.9637 74.6904 56.1627 74.3681C55.7284 74.1938 55.3678 74.0605 55.0365 74.0605C54.8587 74.0605 54.3173 74.0605 53.4062 75.0489C52.7775 75.7345 52.1731 76.4408 51.5941 77.1665C49.4891 79.7583 48.5245 80.6379 42.262 81.8887C40.7338 82.1923 39.9499 82.5019 39.5611 82.7066ZM51.9537 75.4975C51.569 75.4969 51.1971 75.3629 50.9054 75.1196C50.6136 74.8764 50.4212 74.54 50.3629 74.1712C50.3228 73.9118 50.2958 73.6506 50.282 73.3886C46.1771 73.3142 42.2166 71.6059 39.2095 68.5636C35.4076 64.7171 33.6773 59.3877 34.4632 53.9426C35.3167 48.0294 34.9975 42.8096 34.8258 40.0053C34.7783 39.2257 34.744 38.6624 34.746 38.2726C34.749 37.778 34.7591 36.4664 39.2803 34.2439C40.8883 33.4535 44.1125 32.0743 47.6346 31.7207C53.4699 31.136 57.3162 33.6562 58.4677 38.8182C61.5758 52.7545 58.7142 58.9185 56.6243 63.4202C56.2355 64.2587 55.8678 65.0501 55.5739 65.8171L55.3143 66.4929C54.2102 69.3638 53.2557 71.8439 53.5486 73.6962C53.5808 73.899 53.5714 74.106 53.5211 74.3054C53.4707 74.5047 53.3803 74.6925 53.2551 74.858C53.1299 75.0234 52.9723 75.1633 52.7912 75.2697C52.6102 75.3761 52.4094 75.4468 52.2002 75.4779L51.9537 75.4975ZM37.9793 38.7055L38.0419 39.8212C38.2197 42.7342 38.551 48.1548 37.654 54.3765C37.0066 58.8675 38.4207 63.2508 41.5358 66.4009C43.9973 68.8908 47.2367 70.265 50.5659 70.265H50.6346C51.0073 68.7419 51.6265 67.1335 52.2931 65.4008L52.5507 64.7289C52.883 63.863 53.2719 63.0245 53.684 62.1371C55.6951 57.8038 58.1991 52.4097 55.3153 39.4793C54.7446 36.918 53.3598 35.436 51.0841 34.9472C46.4094 33.9462 39.4429 37.3558 37.9793 38.7055ZM47.7063 38.0424C47.6255 38.5949 48.7498 40.07 50.2164 40.2669C51.68 40.4657 52.9325 39.3119 53.0123 38.7594C53.0921 38.207 51.9689 37.5977 50.5022 37.3999C49.0366 37.202 47.7841 37.49 47.7063 38.0424ZM50.5527 40.8105L50.1416 40.7831C49.2326 40.6606 48.3134 40.1052 47.6841 39.2962C47.4629 39.0121 47.1023 38.4616 47.174 37.9699C47.276 37.249 48.1831 36.8171 49.5982 36.8171C49.9144 36.8171 50.2437 36.8396 50.575 36.8847C51.3487 36.9885 52.0669 37.205 52.5972 37.4919C53.5163 37.9895 53.584 38.5449 53.5426 38.8319C53.4295 39.6282 52.1234 40.8105 50.5527 40.8105ZM48.2407 38.1345C48.2861 38.4754 49.1568 39.5998 50.2901 39.7516L50.5538 39.7693C51.6002 39.7693 52.382 38.971 52.4739 38.7095C52.377 38.5312 51.7042 38.0885 50.4285 37.9161C50.1538 37.8779 49.8767 37.8585 49.5992 37.8583C48.779 37.8583 48.3437 38.0375 48.2407 38.1345ZM92.2852 36.915C92.365 37.4675 91.2418 38.9426 89.7762 39.1404C88.3116 39.3383 87.0581 38.1854 86.9773 37.633C86.9005 37.0806 88.0237 36.4703 89.4883 36.2734C90.9529 36.0746 92.2044 36.3636 92.2852 36.915ZM89.4378 39.4225C88.0277 39.4225 86.8106 38.3588 86.7106 37.6683C86.5944 36.8396 88.0015 36.2098 89.4499 36.0149C89.7691 35.9718 90.0853 35.9502 90.3893 35.9502C91.6398 35.9502 92.468 36.3058 92.5509 36.8798C92.6044 37.251 92.3105 37.824 91.8044 38.3412C91.4701 38.6811 90.7681 39.2697 89.8115 39.398L89.4378 39.4225ZM90.3903 36.4713C90.1115 36.4713 89.8206 36.4919 89.5257 36.5311C88.0702 36.7279 87.2015 37.2941 87.2439 37.5977C87.2924 37.9317 88.2217 38.9024 89.4388 38.9024L89.7388 38.8819C90.5337 38.7751 91.1307 38.2716 91.4155 37.9817C91.863 37.5262 92.0408 37.0972 92.0196 36.9513C91.9913 36.7573 91.4539 36.4713 90.3903 36.4713ZM94.3953 68.641C94.1033 68.6411 93.8167 68.5643 93.5663 68.4187C93.3159 68.2731 93.111 68.0641 92.9736 67.8143C92.8362 67.5644 92.7715 67.283 92.7864 67.0003C92.8012 66.7175 92.8951 66.4439 93.0579 66.2089C96.4902 61.2379 95.8619 56.169 95.2549 51.2666C94.9953 49.1783 94.7286 47.0185 94.7973 44.9459C94.868 42.8136 95.1478 41.0544 95.4175 39.353C95.7377 37.3372 96.0407 35.433 95.9155 33.1724C95.904 32.9674 95.9344 32.7624 96.0047 32.5688C96.075 32.3753 96.184 32.1971 96.3253 32.0444C96.4667 31.8916 96.6376 31.7674 96.8285 31.6788C97.0194 31.5902 97.2263 31.5388 97.4377 31.5278C97.649 31.5167 97.8604 31.5461 98.06 31.6143C98.2596 31.6825 98.4434 31.7882 98.6009 31.9252C98.7584 32.0623 98.8864 32.2281 98.9778 32.4132C99.0692 32.5983 99.1222 32.799 99.1336 33.0039C99.277 35.5878 98.9346 37.7427 98.6033 39.828C98.3477 41.4374 98.0831 43.1015 98.0195 45.0458C97.9578 46.8814 98.1992 48.8306 98.4548 50.8934C99.1012 56.1063 99.8336 62.0147 95.7367 67.9475C95.5891 68.1611 95.3895 68.3362 95.1556 68.4572C94.9216 68.5781 94.6604 68.6413 94.3953 68.641Z" fill="white"/>
</svg>
