<svg width="153" height="112" viewBox="0 0 153 112" fill="none" xmlns="http://www.w3.org/2000/svg">
<mask id="path-1-inside-1_8_842" fill="white">
<path d="M43.1179 53.4099C43.1179 55.3057 43.321 56.843 43.6799 57.9671C44.086 59.0925 44.596 60.3223 45.3078 61.6518C45.558 62.0601 45.6619 62.4685 45.6619 62.8294C45.6619 63.3374 45.3549 63.8502 44.6951 64.3618L41.4888 66.5128C41.0307 66.8167 40.5727 66.9734 40.1678 66.9734C39.6578 66.9734 39.1478 66.717 38.6378 66.2564C37.9534 65.5139 37.34 64.7083 36.8057 63.8502C36.2394 62.8657 35.7137 61.8582 35.2297 60.8303C31.2632 65.5394 26.2743 67.8946 20.2678 67.8946C15.9956 67.8946 12.5875 66.6647 10.0906 64.2099C7.5974 61.7515 6.32721 58.4763 6.32721 54.3833C6.32721 50.0351 7.8524 46.5036 10.9596 43.8458C14.0607 41.182 18.1819 39.8525 23.427 39.8525C25.1552 39.8525 26.9342 40.0044 28.8171 40.2608C30.7025 40.5172 32.6374 40.9256 34.6726 41.3861V37.6504C34.6726 33.7616 33.8556 31.0516 32.2796 29.4669C30.6481 27.881 27.9011 27.1117 23.9829 27.1117C22.2027 27.1117 20.3718 27.3159 18.4877 27.7764C16.617 28.2246 14.7806 28.8066 12.9924 29.5179C12.1754 29.874 11.5663 30.0781 11.2122 30.1827C10.8544 30.2823 10.5994 30.3346 10.3964 30.3346C9.68336 30.3346 9.32925 29.8217 9.32925 28.7499V26.2428C9.32925 25.4213 9.42835 24.8088 9.68336 24.4491C9.93715 24.093 10.3964 23.7369 11.1094 23.376C12.8884 22.4548 15.0276 21.6868 17.5196 21.0731C20.0128 20.4083 22.6608 20.1009 25.4598 20.1009C31.5122 20.1009 35.9403 21.4814 38.7925 24.2449C41.5915 27.0072 43.0128 31.2035 43.0128 36.8338V53.4099H43.1179ZM22.4589 61.1912C24.1352 61.1912 25.8671 60.8825 27.6992 60.2701C29.5314 59.6527 31.1593 58.5286 32.5334 56.9949C33.3456 56.0227 33.9595 54.9484 34.2617 53.7198C34.5686 52.49 34.7717 51.0098 34.7717 49.2659V47.1209C33.2301 46.7401 31.6681 46.4484 30.0934 46.2472C28.5055 46.0458 26.9067 45.9444 25.3063 45.9434C21.8982 45.9434 19.4049 46.6081 17.7238 47.9899C16.0476 49.3704 15.2318 51.3124 15.2318 53.8717C15.2318 56.2779 15.8409 58.068 17.1147 59.2966C18.3378 60.5739 20.118 61.1912 22.4589 61.1912ZM63.3188 66.717C62.4028 66.717 61.7936 66.5651 61.3876 66.2042C60.9767 65.8955 60.6226 65.1833 60.3156 64.2111L48.3582 24.6569C48.0561 23.6324 47.8989 22.9677 47.8989 22.6067C47.8989 21.7901 48.3062 21.3307 49.1232 21.3307H54.1085C55.0753 21.3307 55.7364 21.4814 56.0953 21.8423C56.5014 22.1461 56.8084 22.8632 57.1105 23.8354L65.6598 57.7119L73.6 23.8366C73.8514 22.8158 74.1583 22.1474 74.5632 21.8435C74.9741 21.5337 75.6871 21.3295 76.6032 21.3295H80.6724C81.6393 21.3295 82.3016 21.4814 82.7076 21.8423C83.1137 22.1461 83.4726 22.8632 83.6745 23.8354L91.715 58.1203L100.519 23.8366C100.821 22.8158 101.18 22.1474 101.534 21.8435C101.941 21.5337 102.606 21.3295 103.521 21.3295H108.252C109.069 21.3295 109.527 21.7378 109.527 22.6067C109.527 22.8619 109.475 23.1196 109.423 23.4282C109.371 23.7369 109.272 24.1452 109.069 24.7043L96.8042 64.2622C96.4972 65.283 96.1431 65.9477 95.7322 66.2552C95.3261 66.5651 94.665 66.7693 93.8009 66.7693H89.426C88.4579 66.7693 87.7968 66.6113 87.3908 66.2564C86.9799 65.8955 86.6258 65.2307 86.4227 64.2099L78.5345 31.2035L70.697 64.1577C70.4433 65.1833 70.1411 65.8481 69.7302 66.2042C69.3229 66.5651 68.6111 66.717 67.695 66.717H63.3188ZM128.707 68.0988C126.064 68.0988 123.415 67.7901 120.871 67.1776C118.326 66.5651 116.344 65.8955 115.022 65.1311C114.205 64.6705 113.648 64.1589 113.445 63.6971C113.244 63.2458 113.14 62.7574 113.138 62.2631V59.6527C113.138 58.5808 113.544 58.068 114.31 58.068C114.612 58.068 114.918 58.1203 115.225 58.2248C115.527 58.3244 115.985 58.5286 116.494 58.7328C118.293 59.5271 120.17 60.1284 122.094 60.5265C124.128 60.9348 126.112 61.139 128.15 61.139C131.357 61.139 133.849 60.5739 135.577 59.4498C137.309 58.3244 138.225 56.6863 138.225 54.5887C138.225 53.1547 137.767 51.982 136.852 51.0086C135.936 50.0364 134.203 49.1662 131.711 48.3459L124.331 46.043C120.616 44.8654 117.868 43.1288 116.193 40.8259C114.513 38.5716 113.648 36.0645 113.648 33.4067C113.648 31.2557 114.107 29.3624 115.022 27.7242C115.93 26.0781 117.179 24.6471 118.685 23.5279C120.21 22.3552 121.943 21.4814 123.978 20.8689C126.012 20.2564 128.15 20 130.389 20C131.508 20 132.678 20.0523 133.797 20.2042C134.968 20.3561 136.035 20.5602 137.106 20.7644C138.121 21.0208 139.089 21.2772 140.005 21.5859C140.921 21.8946 141.634 22.1984 142.144 22.5071C142.857 22.9154 143.366 23.3237 143.668 23.7831C143.975 24.1963 144.126 24.7577 144.126 25.4735V27.8797C144.126 28.954 143.72 29.5179 142.955 29.5179C142.549 29.5179 141.888 29.3101 141.025 28.9018C138.121 27.5723 134.864 26.9075 131.253 26.9075C128.353 26.9075 126.064 27.3681 124.487 28.3415C122.905 29.3101 122.094 30.7964 122.094 32.8939C122.094 34.3279 122.603 35.5565 123.618 36.5251C124.638 37.4973 126.522 38.4719 129.218 39.3396L136.445 41.6426C140.109 42.8201 142.753 44.4571 144.329 46.5559C145.906 48.6546 146.671 51.0608 146.671 53.7198C146.671 55.9219 146.212 57.9161 145.349 59.6527C144.433 61.3954 143.21 62.929 141.634 64.1577C140.057 65.4349 138.173 66.3561 135.988 67.0257C133.698 67.7378 131.305 68.0988 128.707 68.0988Z"/>
<path d="M141.761 77.3603C136.405 77.4368 130.082 78.6387 125.299 82.0171C123.821 83.0902 124.076 84.523 125.705 84.3188C131.154 83.6541 143.157 82.2213 145.296 84.9836C147.435 87.6936 142.908 99.1049 140.869 104.173C140.26 105.704 141.582 106.322 142.955 105.145C151.91 97.5725 154.253 81.7607 152.42 79.4578C151.506 78.3337 147.117 77.2825 141.761 77.3603ZM1.12199 80.4118C0.00165883 80.5527 -0.505933 81.9138 0.677239 82.9893C20.628 101.099 47.036 112 76.3482 112C97.2622 112 121.584 105.401 138.324 92.969C141.071 90.9177 138.683 87.7993 135.883 89.0754C117.109 97.0596 96.7002 100.948 78.1284 100.948C50.6001 100.948 23.9854 93.3251 2.40909 80.735C1.93776 80.4543 1.49664 80.3656 1.12319 80.4118H1.12199Z"/>
</mask>
<path d="M43.1179 53.4099C43.1179 55.3057 43.321 56.843 43.6799 57.9671C44.086 59.0925 44.596 60.3223 45.3078 61.6518C45.558 62.0601 45.6619 62.4685 45.6619 62.8294C45.6619 63.3374 45.3549 63.8502 44.6951 64.3618L41.4888 66.5128C41.0307 66.8167 40.5727 66.9734 40.1678 66.9734C39.6578 66.9734 39.1478 66.717 38.6378 66.2564C37.9534 65.5139 37.34 64.7083 36.8057 63.8502C36.2394 62.8657 35.7137 61.8582 35.2297 60.8303C31.2632 65.5394 26.2743 67.8946 20.2678 67.8946C15.9956 67.8946 12.5875 66.6647 10.0906 64.2099C7.5974 61.7515 6.32721 58.4763 6.32721 54.3833C6.32721 50.0351 7.8524 46.5036 10.9596 43.8458C14.0607 41.182 18.1819 39.8525 23.427 39.8525C25.1552 39.8525 26.9342 40.0044 28.8171 40.2608C30.7025 40.5172 32.6374 40.9256 34.6726 41.3861V37.6504C34.6726 33.7616 33.8556 31.0516 32.2796 29.4669C30.6481 27.881 27.9011 27.1117 23.9829 27.1117C22.2027 27.1117 20.3718 27.3159 18.4877 27.7764C16.617 28.2246 14.7806 28.8066 12.9924 29.5179C12.1754 29.874 11.5663 30.0781 11.2122 30.1827C10.8544 30.2823 10.5994 30.3346 10.3964 30.3346C9.68336 30.3346 9.32925 29.8217 9.32925 28.7499V26.2428C9.32925 25.4213 9.42835 24.8088 9.68336 24.4491C9.93715 24.093 10.3964 23.7369 11.1094 23.376C12.8884 22.4548 15.0276 21.6868 17.5196 21.0731C20.0128 20.4083 22.6608 20.1009 25.4598 20.1009C31.5122 20.1009 35.9403 21.4814 38.7925 24.2449C41.5915 27.0072 43.0128 31.2035 43.0128 36.8338V53.4099H43.1179ZM22.4589 61.1912C24.1352 61.1912 25.8671 60.8825 27.6992 60.2701C29.5314 59.6527 31.1593 58.5286 32.5334 56.9949C33.3456 56.0227 33.9595 54.9484 34.2617 53.7198C34.5686 52.49 34.7717 51.0098 34.7717 49.2659V47.1209C33.2301 46.7401 31.6681 46.4484 30.0934 46.2472C28.5055 46.0458 26.9067 45.9444 25.3063 45.9434C21.8982 45.9434 19.4049 46.6081 17.7238 47.9899C16.0476 49.3704 15.2318 51.3124 15.2318 53.8717C15.2318 56.2779 15.8409 58.068 17.1147 59.2966C18.3378 60.5739 20.118 61.1912 22.4589 61.1912ZM63.3188 66.717C62.4028 66.717 61.7936 66.5651 61.3876 66.2042C60.9767 65.8955 60.6226 65.1833 60.3156 64.2111L48.3582 24.6569C48.0561 23.6324 47.8989 22.9677 47.8989 22.6067C47.8989 21.7901 48.3062 21.3307 49.1232 21.3307H54.1085C55.0753 21.3307 55.7364 21.4814 56.0953 21.8423C56.5014 22.1461 56.8084 22.8632 57.1105 23.8354L65.6598 57.7119L73.6 23.8366C73.8514 22.8158 74.1583 22.1474 74.5632 21.8435C74.9741 21.5337 75.6871 21.3295 76.6032 21.3295H80.6724C81.6393 21.3295 82.3016 21.4814 82.7076 21.8423C83.1137 22.1461 83.4726 22.8632 83.6745 23.8354L91.715 58.1203L100.519 23.8366C100.821 22.8158 101.18 22.1474 101.534 21.8435C101.941 21.5337 102.606 21.3295 103.521 21.3295H108.252C109.069 21.3295 109.527 21.7378 109.527 22.6067C109.527 22.8619 109.475 23.1196 109.423 23.4282C109.371 23.7369 109.272 24.1452 109.069 24.7043L96.8042 64.2622C96.4972 65.283 96.1431 65.9477 95.7322 66.2552C95.3261 66.5651 94.665 66.7693 93.8009 66.7693H89.426C88.4579 66.7693 87.7968 66.6113 87.3908 66.2564C86.9799 65.8955 86.6258 65.2307 86.4227 64.2099L78.5345 31.2035L70.697 64.1577C70.4433 65.1833 70.1411 65.8481 69.7302 66.2042C69.3229 66.5651 68.6111 66.717 67.695 66.717H63.3188ZM128.707 68.0988C126.064 68.0988 123.415 67.7901 120.871 67.1776C118.326 66.5651 116.344 65.8955 115.022 65.1311C114.205 64.6705 113.648 64.1589 113.445 63.6971C113.244 63.2458 113.14 62.7574 113.138 62.2631V59.6527C113.138 58.5808 113.544 58.068 114.31 58.068C114.612 58.068 114.918 58.1203 115.225 58.2248C115.527 58.3244 115.985 58.5286 116.494 58.7328C118.293 59.5271 120.17 60.1284 122.094 60.5265C124.128 60.9348 126.112 61.139 128.15 61.139C131.357 61.139 133.849 60.5739 135.577 59.4498C137.309 58.3244 138.225 56.6863 138.225 54.5887C138.225 53.1547 137.767 51.982 136.852 51.0086C135.936 50.0364 134.203 49.1662 131.711 48.3459L124.331 46.043C120.616 44.8654 117.868 43.1288 116.193 40.8259C114.513 38.5716 113.648 36.0645 113.648 33.4067C113.648 31.2557 114.107 29.3624 115.022 27.7242C115.93 26.0781 117.179 24.6471 118.685 23.5279C120.21 22.3552 121.943 21.4814 123.978 20.8689C126.012 20.2564 128.15 20 130.389 20C131.508 20 132.678 20.0523 133.797 20.2042C134.968 20.3561 136.035 20.5602 137.106 20.7644C138.121 21.0208 139.089 21.2772 140.005 21.5859C140.921 21.8946 141.634 22.1984 142.144 22.5071C142.857 22.9154 143.366 23.3237 143.668 23.7831C143.975 24.1963 144.126 24.7577 144.126 25.4735V27.8797C144.126 28.954 143.72 29.5179 142.955 29.5179C142.549 29.5179 141.888 29.3101 141.025 28.9018C138.121 27.5723 134.864 26.9075 131.253 26.9075C128.353 26.9075 126.064 27.3681 124.487 28.3415C122.905 29.3101 122.094 30.7964 122.094 32.8939C122.094 34.3279 122.603 35.5565 123.618 36.5251C124.638 37.4973 126.522 38.4719 129.218 39.3396L136.445 41.6426C140.109 42.8201 142.753 44.4571 144.329 46.5559C145.906 48.6546 146.671 51.0608 146.671 53.7198C146.671 55.9219 146.212 57.9161 145.349 59.6527C144.433 61.3954 143.21 62.929 141.634 64.1577C140.057 65.4349 138.173 66.3561 135.988 67.0257C133.698 67.7378 131.305 68.0988 128.707 68.0988Z" fill="#FFDB6E"/>
<path d="M141.761 77.3603C136.405 77.4368 130.082 78.6387 125.299 82.0171C123.821 83.0902 124.076 84.523 125.705 84.3188C131.154 83.6541 143.157 82.2213 145.296 84.9836C147.435 87.6936 142.908 99.1049 140.869 104.173C140.26 105.704 141.582 106.322 142.955 105.145C151.91 97.5725 154.253 81.7607 152.42 79.4578C151.506 78.3337 147.117 77.2825 141.761 77.3603ZM1.12199 80.4118C0.00165883 80.5527 -0.505933 81.9138 0.677239 82.9893C20.628 101.099 47.036 112 76.3482 112C97.2622 112 121.584 105.401 138.324 92.969C141.071 90.9177 138.683 87.7993 135.883 89.0754C117.109 97.0596 96.7002 100.948 78.1284 100.948C50.6001 100.948 23.9854 93.3251 2.40909 80.735C1.93776 80.4543 1.49664 80.3656 1.12319 80.4118H1.12199Z" fill="#FFBC5E" fill-opacity="0.8"/>
<path d="M43.1179 53.4099C43.1179 55.3057 43.321 56.843 43.6799 57.9671C44.086 59.0925 44.596 60.3223 45.3078 61.6518C45.558 62.0601 45.6619 62.4685 45.6619 62.8294C45.6619 63.3374 45.3549 63.8502 44.6951 64.3618L41.4888 66.5128C41.0307 66.8167 40.5727 66.9734 40.1678 66.9734C39.6578 66.9734 39.1478 66.717 38.6378 66.2564C37.9534 65.5139 37.34 64.7083 36.8057 63.8502C36.2394 62.8657 35.7137 61.8582 35.2297 60.8303C31.2632 65.5394 26.2743 67.8946 20.2678 67.8946C15.9956 67.8946 12.5875 66.6647 10.0906 64.2099C7.5974 61.7515 6.32721 58.4763 6.32721 54.3833C6.32721 50.0351 7.8524 46.5036 10.9596 43.8458C14.0607 41.182 18.1819 39.8525 23.427 39.8525C25.1552 39.8525 26.9342 40.0044 28.8171 40.2608C30.7025 40.5172 32.6374 40.9256 34.6726 41.3861V37.6504C34.6726 33.7616 33.8556 31.0516 32.2796 29.4669C30.6481 27.881 27.9011 27.1117 23.9829 27.1117C22.2027 27.1117 20.3718 27.3159 18.4877 27.7764C16.617 28.2246 14.7806 28.8066 12.9924 29.5179C12.1754 29.874 11.5663 30.0781 11.2122 30.1827C10.8544 30.2823 10.5994 30.3346 10.3964 30.3346C9.68336 30.3346 9.32925 29.8217 9.32925 28.7499V26.2428C9.32925 25.4213 9.42835 24.8088 9.68336 24.4491C9.93715 24.093 10.3964 23.7369 11.1094 23.376C12.8884 22.4548 15.0276 21.6868 17.5196 21.0731C20.0128 20.4083 22.6608 20.1009 25.4598 20.1009C31.5122 20.1009 35.9403 21.4814 38.7925 24.2449C41.5915 27.0072 43.0128 31.2035 43.0128 36.8338V53.4099H43.1179ZM22.4589 61.1912C24.1352 61.1912 25.8671 60.8825 27.6992 60.2701C29.5314 59.6527 31.1593 58.5286 32.5334 56.9949C33.3456 56.0227 33.9595 54.9484 34.2617 53.7198C34.5686 52.49 34.7717 51.0098 34.7717 49.2659V47.1209C33.2301 46.7401 31.6681 46.4484 30.0934 46.2472C28.5055 46.0458 26.9067 45.9444 25.3063 45.9434C21.8982 45.9434 19.4049 46.6081 17.7238 47.9899C16.0476 49.3704 15.2318 51.3124 15.2318 53.8717C15.2318 56.2779 15.8409 58.068 17.1147 59.2966C18.3378 60.5739 20.118 61.1912 22.4589 61.1912ZM63.3188 66.717C62.4028 66.717 61.7936 66.5651 61.3876 66.2042C60.9767 65.8955 60.6226 65.1833 60.3156 64.2111L48.3582 24.6569C48.0561 23.6324 47.8989 22.9677 47.8989 22.6067C47.8989 21.7901 48.3062 21.3307 49.1232 21.3307H54.1085C55.0753 21.3307 55.7364 21.4814 56.0953 21.8423C56.5014 22.1461 56.8084 22.8632 57.1105 23.8354L65.6598 57.7119L73.6 23.8366C73.8514 22.8158 74.1583 22.1474 74.5632 21.8435C74.9741 21.5337 75.6871 21.3295 76.6032 21.3295H80.6724C81.6393 21.3295 82.3016 21.4814 82.7076 21.8423C83.1137 22.1461 83.4726 22.8632 83.6745 23.8354L91.715 58.1203L100.519 23.8366C100.821 22.8158 101.18 22.1474 101.534 21.8435C101.941 21.5337 102.606 21.3295 103.521 21.3295H108.252C109.069 21.3295 109.527 21.7378 109.527 22.6067C109.527 22.8619 109.475 23.1196 109.423 23.4282C109.371 23.7369 109.272 24.1452 109.069 24.7043L96.8042 64.2622C96.4972 65.283 96.1431 65.9477 95.7322 66.2552C95.3261 66.5651 94.665 66.7693 93.8009 66.7693H89.426C88.4579 66.7693 87.7968 66.6113 87.3908 66.2564C86.9799 65.8955 86.6258 65.2307 86.4227 64.2099L78.5345 31.2035L70.697 64.1577C70.4433 65.1833 70.1411 65.8481 69.7302 66.2042C69.3229 66.5651 68.6111 66.717 67.695 66.717H63.3188ZM128.707 68.0988C126.064 68.0988 123.415 67.7901 120.871 67.1776C118.326 66.5651 116.344 65.8955 115.022 65.1311C114.205 64.6705 113.648 64.1589 113.445 63.6971C113.244 63.2458 113.14 62.7574 113.138 62.2631V59.6527C113.138 58.5808 113.544 58.068 114.31 58.068C114.612 58.068 114.918 58.1203 115.225 58.2248C115.527 58.3244 115.985 58.5286 116.494 58.7328C118.293 59.5271 120.17 60.1284 122.094 60.5265C124.128 60.9348 126.112 61.139 128.15 61.139C131.357 61.139 133.849 60.5739 135.577 59.4498C137.309 58.3244 138.225 56.6863 138.225 54.5887C138.225 53.1547 137.767 51.982 136.852 51.0086C135.936 50.0364 134.203 49.1662 131.711 48.3459L124.331 46.043C120.616 44.8654 117.868 43.1288 116.193 40.8259C114.513 38.5716 113.648 36.0645 113.648 33.4067C113.648 31.2557 114.107 29.3624 115.022 27.7242C115.93 26.0781 117.179 24.6471 118.685 23.5279C120.21 22.3552 121.943 21.4814 123.978 20.8689C126.012 20.2564 128.15 20 130.389 20C131.508 20 132.678 20.0523 133.797 20.2042C134.968 20.3561 136.035 20.5602 137.106 20.7644C138.121 21.0208 139.089 21.2772 140.005 21.5859C140.921 21.8946 141.634 22.1984 142.144 22.5071C142.857 22.9154 143.366 23.3237 143.668 23.7831C143.975 24.1963 144.126 24.7577 144.126 25.4735V27.8797C144.126 28.954 143.72 29.5179 142.955 29.5179C142.549 29.5179 141.888 29.3101 141.025 28.9018C138.121 27.5723 134.864 26.9075 131.253 26.9075C128.353 26.9075 126.064 27.3681 124.487 28.3415C122.905 29.3101 122.094 30.7964 122.094 32.8939C122.094 34.3279 122.603 35.5565 123.618 36.5251C124.638 37.4973 126.522 38.4719 129.218 39.3396L136.445 41.6426C140.109 42.8201 142.753 44.4571 144.329 46.5559C145.906 48.6546 146.671 51.0608 146.671 53.7198C146.671 55.9219 146.212 57.9161 145.349 59.6527C144.433 61.3954 143.21 62.929 141.634 64.1577C140.057 65.4349 138.173 66.3561 135.988 67.0257C133.698 67.7378 131.305 68.0988 128.707 68.0988Z" stroke="white" stroke-width="4" mask="url(#path-1-inside-1_8_842)"/>
<path d="M141.761 77.3603C136.405 77.4368 130.082 78.6387 125.299 82.0171C123.821 83.0902 124.076 84.523 125.705 84.3188C131.154 83.6541 143.157 82.2213 145.296 84.9836C147.435 87.6936 142.908 99.1049 140.869 104.173C140.26 105.704 141.582 106.322 142.955 105.145C151.91 97.5725 154.253 81.7607 152.42 79.4578C151.506 78.3337 147.117 77.2825 141.761 77.3603ZM1.12199 80.4118C0.00165883 80.5527 -0.505933 81.9138 0.677239 82.9893C20.628 101.099 47.036 112 76.3482 112C97.2622 112 121.584 105.401 138.324 92.969C141.071 90.9177 138.683 87.7993 135.883 89.0754C117.109 97.0596 96.7002 100.948 78.1284 100.948C50.6001 100.948 23.9854 93.3251 2.40909 80.735C1.93776 80.4543 1.49664 80.3656 1.12319 80.4118H1.12199Z" stroke="white" stroke-width="4" mask="url(#path-1-inside-1_8_842)"/>
</svg>
