<svg width="125" height="122" viewBox="0 0 125 122" fill="none" xmlns="http://www.w3.org/2000/svg">
<path d="M18.5039 91.6143L18.4316 91.5801L18.3643 91.5342C16.9381 90.558 16.03 89.6948 15.6816 88.8643C15.4868 88.3995 15.4439 87.887 15.6553 87.4014C15.8533 86.9467 16.2122 86.6607 16.5215 86.4844C17.1185 86.1441 17.8793 86.0173 18.3838 85.9619C18.6557 85.9321 18.8973 85.9191 19.0713 85.9131C19.1586 85.9101 19.2302 85.9086 19.2812 85.9082H19.3691C19.3695 85.9082 19.3704 85.9084 19.3604 86.6719L19.3701 85.9082L19.3984 85.9092L19.4268 85.9111C22.8809 86.1534 25.486 87.9257 27.1953 89.5771C28.0532 90.406 28.701 91.2189 29.1357 91.8262C29.3536 92.1305 29.5199 92.3849 29.6328 92.5664C29.6893 92.6572 29.7325 92.7305 29.7627 92.7822C29.7777 92.8079 29.7894 92.8288 29.7979 92.8438C29.7991 92.8459 29.8007 92.8477 29.8018 92.8496L30.0488 93.2627C32.6309 97.4371 35.8805 98.8729 38.873 99.1406C41.7475 99.3977 44.4651 98.5788 46.2236 97.8506C46.7131 94.9145 47.7505 92.607 49.0391 90.9316C42.64 90.0314 36.1014 88.1857 31.0049 83.8936C25.3433 79.1254 21.6173 71.4813 21.6172 59.2803C21.6172 52.4277 23.9932 46.7631 27.9072 42.2773C27.0656 39.9105 25.5357 33.6872 28.7314 25.5742L28.9053 25.1328L29.3574 24.9883L29.6621 25.9404C29.357 24.9881 29.3584 24.9876 29.3594 24.9873L29.3613 24.9863C29.3625 24.9859 29.3639 24.9858 29.3652 24.9854C29.3683 24.9844 29.3723 24.9835 29.376 24.9824C29.3837 24.9801 29.393 24.9766 29.4033 24.9736C29.424 24.9677 29.4502 24.9609 29.4814 24.9531C29.544 24.9375 29.6282 24.9184 29.7334 24.8994C29.9439 24.8614 30.2398 24.8233 30.623 24.8057C31.3907 24.7704 32.5049 24.8207 33.9854 25.1328C36.8823 25.7436 41.1733 27.3555 47.0293 31.2686C51.9802 29.9369 57.2574 29.2676 62.4951 29.2441H62.5039C67.7383 29.2676 73.0181 29.9342 77.9775 31.2656C83.8264 27.3526 88.113 25.7417 91.0068 25.1309C92.4859 24.8187 93.5993 24.7675 94.3662 24.8027C94.7491 24.8203 95.0445 24.8594 95.2549 24.8975C95.36 24.9165 95.4443 24.9355 95.5068 24.9512C95.538 24.959 95.5643 24.9658 95.585 24.9717C95.5951 24.9746 95.6037 24.9782 95.6113 24.9805C95.6151 24.9816 95.6189 24.9824 95.6221 24.9834C95.6237 24.9839 95.6255 24.9839 95.627 24.9844L95.6289 24.9854C95.6299 24.9857 95.6307 24.986 95.3428 25.8838L95.6309 24.9863L96.082 25.1309L96.2559 25.5713C99.4593 33.6829 97.9286 39.9061 97.0879 42.2734C101.012 46.7611 103.371 52.4259 103.371 59.2773C103.371 71.5068 99.6387 79.1482 93.9639 83.9014C88.8594 88.1767 82.3111 89.9996 75.9014 90.8848C77.7304 93.2416 79.0732 96.8514 79.0732 101.72C79.0732 105.907 79.0552 109.685 79.0371 112.674C79.019 115.666 79.001 117.858 79.001 118.884C79.001 119.515 79.2169 120.118 79.6348 120.5C80.015 120.847 80.7231 121.155 82.043 120.912C106.431 112.746 124 89.7014 124 62.5439C123.999 28.5538 96.462 1 62.499 1C28.5393 1.00025 1.00022 28.552 1 62.5439C1 89.7098 18.5873 112.76 42.9873 120.92C44.28 121.146 44.9869 120.839 45.3721 120.487C45.7937 120.102 46.0098 119.502 46.0098 118.885C46.0098 117.509 45.9624 113.228 45.9336 108.458C37.7032 109.986 32.4832 108.174 29.2773 105.77C27.6151 104.523 26.5332 103.147 25.8652 102.075C25.5312 101.539 25.2999 101.078 25.1494 100.744C25.0742 100.577 25.0189 100.442 24.9814 100.345C24.9627 100.296 24.9478 100.256 24.9375 100.228C24.9348 100.22 24.9328 100.213 24.9307 100.207C23.5611 96.7323 21.9061 94.5658 20.625 93.2803C19.982 92.635 19.429 92.2084 19.0488 91.9482C18.859 91.8183 18.7123 91.7292 18.6182 91.6758C18.5711 91.6491 18.5368 91.631 18.5176 91.6211C18.5116 91.618 18.507 91.6158 18.5039 91.6143ZM18.5039 91.6143C18.5021 91.6134 18.5008 91.6127 18.5 91.6123H18.499L18.5029 91.6143H18.5039ZM22.8486 89.4336L22.7305 89.6973M22.7588 89.3936L22.8428 89.4307L22.8486 89.4336M22.8486 89.4336L22.7305 89.6973M22.8486 89.4336L22.8555 89.4365M22.7305 89.6973L22.7295 89.6982C22.7282 89.6919 22.7257 89.6856 22.7246 89.6787M22.7305 89.6973C22.7336 89.6956 22.737 89.6942 22.7402 89.6924M22.7246 89.6787L22.8428 89.4307M22.7246 89.6787L22.8428 89.4307M22.7246 89.6787C22.7234 89.6709 22.7206 89.6628 22.7197 89.6543C22.712 89.5803 22.7209 89.488 22.7588 89.3936M22.8555 89.4365L22.7402 89.6924M22.8555 89.4365L22.7402 89.6924M22.9414 89.4746L22.8623 89.4395L22.8555 89.4365M22.9414 89.4746L22.9404 89.4766C22.8833 89.5902 22.8059 89.6544 22.7422 89.6914L22.7402 89.6924M22.8623 89.4395L22.7422 89.6914M22.8623 89.4395V89.4404M22.7422 89.6914L22.8623 89.4404M22.9404 89.4766L22.8623 89.4404M22.9404 89.4766L22.8623 89.4404M22.7656 89.377C22.7635 89.3818 22.7617 89.3868 22.7598 89.3916L22.7588 89.3936M22.7656 89.377C22.7633 89.3819 22.7601 89.3865 22.7578 89.3916V89.3936H22.7588M22.9473 89.4678L22.9443 89.4756L22.9814 89.4922L22.9473 89.4678ZM22.9473 89.4678C22.9461 89.4704 22.9446 89.4729 22.9434 89.4756L22.9414 89.4746M22.9473 89.4678L22.9463 89.4668M22.9414 89.4746C22.9428 89.4719 22.945 89.4696 22.9463 89.4668M22.9463 89.4668C22.9488 89.4616 22.9517 89.4566 22.9541 89.4512C23.0058 89.3265 22.9999 89.221 22.9844 89.1484M22.9463 89.4668L22.8672 89.4092M22.9844 89.1484L22.8672 89.4092M22.9844 89.1484L22.8672 89.4092M22.9844 89.1484C22.984 89.1468 22.9838 89.1452 22.9834 89.1436C22.9226 89.1761 22.8424 89.2353 22.7812 89.3467M22.8672 89.4092L22.7812 89.3467M22.7812 89.3467C22.7759 89.3564 22.7707 89.3664 22.7656 89.377M22.7812 89.3467L22.7793 89.3457C22.7741 89.356 22.7701 89.3667 22.7656 89.377M22.7598 89.3916H22.7578M22.7598 89.3916H22.7578" fill="#FFDB6E" stroke="white" stroke-width="2"/>
</svg>
