<svg width="120" height="126" viewBox="0 0 120 126" fill="none" xmlns="http://www.w3.org/2000/svg">
<path d="M55.1377 3.06641C57.764 0.311366 61.9973 0.311917 64.6182 3.06543H64.6191L117.012 58.0771C118.279 59.4088 119 61.2251 119 63.1279C119 65.0306 118.28 66.8459 117.013 68.1777L64.8652 122.934C62.2369 125.689 58.0046 125.689 55.3818 122.935L2.98828 67.9229C1.72068 66.5914 1.00008 64.7757 1 62.873C1 60.9703 1.72061 59.1547 2.98828 57.8232L2.9873 57.8223L38.1885 20.8633L50.6436 33.9424C49.416 37.6598 50.2026 41.9549 53.0488 44.9434V44.9443C53.844 45.7834 54.77 46.4744 55.7852 46.9941V80.3271C54.7711 80.8472 53.8458 81.5379 53.0498 82.375C49.091 86.5325 49.092 93.2486 53.0498 97.4111H53.0508C57.0335 101.595 63.5158 101.595 67.502 97.4121L67.5029 97.4111C71.4609 93.2475 71.4617 86.5307 67.502 82.374L67.501 82.373L67.2002 82.0713C66.6357 81.5276 66.0131 81.0532 65.3457 80.6543L65.3467 49.4629L75.6025 60.2314C75.0272 62.0018 74.9053 63.9025 75.2559 65.7422C75.647 67.7949 76.6091 69.6865 78.0273 71.1768C78.9717 72.1689 80.0962 72.9592 81.3369 73.499C82.5776 74.0388 83.9097 74.3174 85.2559 74.3174C86.602 74.3173 87.9341 74.0388 89.1748 73.499C90.4152 72.9593 91.5382 72.1686 92.4824 71.1768L92.4834 71.1777C96.4445 67.0196 96.444 60.2999 92.4824 56.1436C89.8003 53.3222 85.9782 52.4118 82.5498 53.3984L70.0801 40.3047C71.036 36.7389 70.1938 32.7417 67.502 29.9121H67.501C64.8323 27.11 61.0458 26.1895 57.6289 27.1504L44.915 13.7998L55.1367 3.06543L55.1377 3.06641Z" fill="url(#paint0_linear_8_59)" stroke="white" stroke-width="2"/>
<defs>
<linearGradient id="paint0_linear_8_59" x1="8" y1="18" x2="79.5" y2="114.5" gradientUnits="userSpaceOnUse">
<stop offset="1" stop-color="#FFDB6E"/>
</linearGradient>
</defs>
</svg>
